<svg width="24" height="24" viewBox="0 0 24 24" fill="none" xmlns="http://www.w3.org/2000/svg">
<path d="M3.58037 21.196H17.8394L17.1584 18.991L18.7874 20.389L20.2804 21.727L23.0004 24V2.475C22.9324 1.137 21.7804 0 20.3524 0L3.58537 0.003C2.15837 0.003 1.00037 1.142 1.00037 2.48V18.72C1.00037 20.131 2.15637 21.196 3.58037 21.196ZM14.1284 5.683L14.0954 5.695L14.1074 5.683H14.1284ZM6.49737 6.952C8.33037 5.618 10.0294 5.682 10.0294 5.682L10.1664 5.817C7.92337 6.352 6.90637 7.354 6.90637 7.354C6.90637 7.354 7.17837 7.221 7.65337 7.018C10.6744 5.83 13.9734 5.916 17.0274 7.42C17.0274 7.42 16.0084 6.483 13.9034 5.883L14.0894 5.7C14.3804 5.701 15.9204 5.755 17.5684 6.96C17.5684 6.96 19.4124 10.11 19.4124 13.98C19.3514 13.906 18.2684 15.646 15.4814 15.706C15.4814 15.706 15.0094 15.172 14.6734 14.706C16.3034 14.238 16.9134 13.302 16.9134 13.302C16.3784 13.639 15.8904 13.839 15.4944 14.039C14.8854 14.307 14.2754 14.439 13.6664 14.574C10.7824 15.042 9.16337 14.259 7.63337 13.638L7.11037 13.372C7.11037 13.372 7.71937 14.308 9.28437 14.776C8.87337 15.245 8.46637 15.778 8.46637 15.778C5.68037 15.712 4.66437 13.972 4.66437 13.972C4.66437 10.096 6.49737 6.952 6.49737 6.952Z" fill="#6859D5"/>
<path d="M14.3084 12.7709C15.0194 12.7709 15.5984 12.1709 15.5984 11.4309C15.5984 10.6959 15.0224 10.0959 14.3084 10.0959V10.0989C13.6004 10.0989 13.0204 10.6969 13.0184 11.4369C13.0184 12.1709 13.5974 12.7709 14.3084 12.7709Z" fill="#6859D5"/>
<path d="M9.69051 12.7709C10.4015 12.7709 10.9805 12.1709 10.9805 11.4309C10.9805 10.6959 10.4055 10.0959 9.69451 10.0959L9.69051 10.0989C8.97951 10.0989 8.40051 10.6969 8.40051 11.4369C8.40051 12.1709 8.97951 12.7709 9.69051 12.7709Z" fill="#6859D5"/>
</svg>
