<svg width="24" height="24" viewBox="0 0 24 24" fill="none" xmlns="http://www.w3.org/2000/svg">
<g clip-path="url(#clip0)">
<path d="M21.5345 7.113C22.5105 6.42 23.3315 5.555 24.0005 4.559V4.558C23.1075 4.949 22.1575 5.209 21.1655 5.335C22.1855 4.726 22.9645 3.769 23.3305 2.616C22.3795 3.183 21.3295 3.583 20.2105 3.807C19.3075 2.845 18.0205 2.25 16.6165 2.25C13.8925 2.25 11.6995 4.461 11.6995 7.171C11.6995 7.561 11.7325 7.936 11.8135 8.293C7.72349 8.093 4.10349 6.133 1.67149 3.146C1.24749 3.883 0.997488 4.726 0.997488 5.633C0.997488 7.337 1.87449 8.847 3.18349 9.722C2.39249 9.707 1.61749 9.477 0.960488 9.116V9.17C0.960488 11.561 2.66549 13.547 4.90249 14.005C4.50149 14.115 4.06549 14.167 3.61249 14.167C3.29749 14.167 2.97949 14.149 2.68149 14.083C3.31849 16.031 5.12849 17.464 7.27849 17.511C5.60449 18.82 3.47849 19.609 1.17749 19.609C0.774488 19.609 0.387488 19.591 0.000488281 19.542C2.18049 20.947 4.76249 21.75 7.54849 21.75C16.2315 21.75 21.8905 14.506 21.5345 7.113Z" fill="#6859D5"/>
</g>
<defs>
<clipPath id="clip0">
<rect width="24" height="24" fill="white" transform="translate(0.000488281)"/>
</clipPath>
</defs>
</svg>
