<svg width="26" height="26" viewBox="0 0 26 26" fill="none" xmlns="http://www.w3.org/2000/svg">
<g clip-path="url(#clip0)">
<path d="M24.673 6.90778C24.3921 5.86354 23.5688 5.04038 22.5247 4.7592C20.6173 4.2373 12.9875 4.2373 12.9875 4.2373C12.9875 4.2373 5.35796 4.2373 3.45054 4.73941C2.42653 5.0203 1.58314 5.86369 1.30225 6.90778C0.800293 8.81506 0.800293 12.7705 0.800293 12.7705C0.800293 12.7705 0.800293 16.7459 1.30225 18.6332C1.58343 19.6773 2.40645 20.5004 3.45069 20.7816C5.37804 21.3037 12.9878 21.3037 12.9878 21.3037C12.9878 21.3037 20.6173 21.3037 22.5247 20.8016C23.569 20.5205 24.3921 19.6974 24.6733 18.6533C25.1751 16.7459 25.1751 12.7906 25.1751 12.7906C25.1751 12.7906 25.1952 8.81506 24.673 6.90778ZM10.5583 16.4247V9.11632L16.9029 12.7705L10.5583 16.4247Z" fill="#6859D5"/>
</g>
<defs>
<clipPath id="clip0">
<rect width="26" height="26" fill="white" transform="translate(0.000488281)"/>
</clipPath>
</defs>
</svg>
