<svg width="24" height="24" viewBox="0 0 24 24" fill="none" xmlns="http://www.w3.org/2000/svg">
<path d="M3.5799 21.196H17.8389L17.1579 18.991L18.7869 20.389L20.2799 21.727L22.9999 24V2.475C22.9319 1.137 21.7799 0 20.3519 0L3.5849 0.003C2.1579 0.003 0.999905 1.142 0.999905 2.48V18.72C0.999905 20.131 2.1559 21.196 3.5799 21.196ZM14.1279 5.683L14.0949 5.695L14.1069 5.683H14.1279ZM6.49691 6.952C8.32991 5.618 10.0289 5.682 10.0289 5.682L10.1659 5.817C7.92291 6.352 6.90591 7.354 6.90591 7.354C6.90591 7.354 7.17791 7.221 7.65291 7.018C10.6739 5.83 13.9729 5.916 17.0269 7.42C17.0269 7.42 16.0079 6.483 13.9029 5.883L14.0889 5.7C14.3799 5.701 15.9199 5.755 17.5679 6.96C17.5679 6.96 19.4119 10.11 19.4119 13.98C19.3509 13.906 18.2679 15.646 15.4809 15.706C15.4809 15.706 15.0089 15.172 14.6729 14.706C16.3029 14.238 16.9129 13.302 16.9129 13.302C16.3779 13.639 15.8899 13.839 15.4939 14.039C14.8849 14.307 14.2749 14.439 13.6659 14.574C10.7819 15.042 9.16291 14.259 7.63291 13.638L7.10991 13.372C7.10991 13.372 7.71891 14.308 9.28391 14.776C8.87291 15.245 8.46591 15.778 8.46591 15.778C5.6799 15.712 4.66391 13.972 4.66391 13.972C4.66391 10.096 6.49691 6.952 6.49691 6.952Z" fill="#45C1BD"/>
<path d="M14.3079 12.7709C15.0189 12.7709 15.5979 12.1709 15.5979 11.4309C15.5979 10.6959 15.0219 10.0959 14.3079 10.0959V10.0989C13.5999 10.0989 13.0199 10.6969 13.0179 11.4369C13.0179 12.1709 13.5969 12.7709 14.3079 12.7709Z" fill="#45C1BD"/>
<path d="M9.69 12.7709C10.401 12.7709 10.98 12.1709 10.98 11.4309C10.98 10.6959 10.405 10.0959 9.694 10.0959L9.69 10.0989C8.979 10.0989 8.4 10.6969 8.4 11.4369C8.4 12.1709 8.979 12.7709 9.69 12.7709Z" fill="#45C1BD"/>
</svg>
