<svg width="24" height="24" viewBox="0 0 24 24" fill="none" xmlns="http://www.w3.org/2000/svg">
<g clip-path="url(#clip0)">
<path d="M21.534 7.113C22.51 6.42 23.331 5.555 24 4.559V4.558C23.107 4.949 22.157 5.209 21.165 5.335C22.185 4.726 22.964 3.769 23.33 2.616C22.379 3.183 21.329 3.583 20.21 3.807C19.307 2.845 18.02 2.25 16.616 2.25C13.892 2.25 11.699 4.461 11.699 7.171C11.699 7.561 11.732 7.936 11.813 8.293C7.72299 8.093 4.10299 6.133 1.67099 3.146C1.24699 3.883 0.996992 4.726 0.996992 5.633C0.996992 7.337 1.87399 8.847 3.18299 9.722C2.39199 9.707 1.61699 9.477 0.959992 9.116V9.17C0.959992 11.561 2.66499 13.547 4.90199 14.005C4.50099 14.115 4.06499 14.167 3.61199 14.167C3.29699 14.167 2.97899 14.149 2.68099 14.083C3.31799 16.031 5.12799 17.464 7.27799 17.511C5.60399 18.82 3.47799 19.609 1.17699 19.609C0.773992 19.609 0.386992 19.591 -7.62939e-06 19.542C2.17999 20.947 4.76199 21.75 7.54799 21.75C16.231 21.75 21.89 14.506 21.534 7.113Z" fill="#45C1BD"/>
</g>
<defs>
<clipPath id="clip0">
<rect width="24" height="24" fill="white"/>
</clipPath>
</defs>
</svg>
