<svg width="14" height="14" fill="none" xmlns="http://www.w3.org/2000/svg"><path d="M7 3.795A3.2 3.2 0 003.795 7 3.2 3.2 0 007 10.205 3.2 3.2 0 0010.205 7 3.2 3.2 0 007 3.795zm0 5.288A2.087 2.087 0 014.917 7c0-1.147.936-2.083 2.083-2.083 1.147 0 2.083.936 2.083 2.083A2.087 2.087 0 017 9.083zm3.336-6.166a.748.748 0 100 1.497.746.746 0 00.53-1.278.748.748 0 00-.53-.219zM13.246 7c0-.862.009-1.717-.04-2.578-.048-1-.276-1.887-1.008-2.619C11.466 1.07 10.58.843 9.58.795 8.717.747 7.862.755 7.002.755c-.863 0-1.718-.008-2.579.04-1 .049-1.887.277-2.618 1.008-.733.733-.96 1.619-1.008 2.619C.748 5.285.757 6.139.757 7c0 .861-.009 1.717.04 2.578.048 1 .276 1.888 1.008 2.619.732.733 1.618.96 2.618 1.008.863.048 1.718.04 2.579.04.862 0 1.717.008 2.578-.04 1-.049 1.887-.277 2.618-1.008.733-.733.96-1.619 1.008-2.619.05-.86.04-1.715.04-2.578zm-1.374 3.684a1.985 1.985 0 01-.472.716c-.22.22-.431.358-.716.472-.822.327-2.773.253-3.684.253s-2.864.074-3.686-.251a1.986 1.986 0 01-.716-.472 1.999 1.999 0 01-.471-.716C1.802 9.863 1.875 7.911 1.875 7c0-.91-.073-2.864.252-3.686a1.98 1.98 0 01.471-.715 2.02 2.02 0 01.716-.472c.822-.325 2.775-.252 3.686-.252.91 0 2.864-.073 3.686.252.284.114.497.251.716.472a2 2 0 01.471.715c.325.822.252 2.775.252 3.686s.073 2.863-.253 3.684z" fill="#000"/></svg>