<svg width="50" height="50" viewBox="0 0 50 50" fill="none" xmlns="http://www.w3.org/2000/svg">
<rect width="50" height="50" rx="25" fill="url(#paint0_linear)"/>
<g clip-path="url(#clip0)">
<path d="M29.3385 28.5149C31.2404 28.5149 32.7877 26.9378 32.7877 24.9993V19.3743C32.7877 17.4358 31.2404 15.8586 29.3385 15.8586C27.4365 15.8586 25.8892 17.4358 25.8892 19.3743V24.9993C25.8892 26.9378 27.4365 28.5149 29.3385 28.5149Z" fill="#FAFAFA"/>
<path d="M34.8572 21.4836C34.4762 21.4836 34.1674 21.7985 34.1674 22.1868V24.9993C34.1674 27.7132 32.0011 29.9211 29.3384 29.9211C26.6756 29.9211 24.5094 27.7132 24.5094 24.9993V22.1868C24.5094 21.7985 24.2005 21.4836 23.8195 21.4836C23.4385 21.4836 23.1296 21.7985 23.1296 22.1868V24.9993C23.1296 28.2509 25.5485 30.9372 28.6485 31.2881V34.1399H26.5789C26.1979 34.1399 25.8891 34.4547 25.8891 34.843C25.8891 35.2313 26.1979 35.5461 26.5789 35.5461H32.0978C32.4788 35.5461 32.7877 35.2313 32.7877 34.843C32.7877 34.4547 32.4788 34.1399 32.0978 34.1399H30.0282V31.2881C33.1283 30.9372 35.5471 28.2509 35.5471 24.9993V22.1868C35.5471 21.7984 35.2382 21.4836 34.8572 21.4836Z" fill="#FAFAFA"/>
<path d="M24.5094 19.3743C24.5094 18.986 24.2006 18.6712 23.8196 18.6712H22.8202L21.6312 16.2474C21.3657 15.7062 20.5944 15.7382 20.3737 16.3007L18.3137 21.5497L16.1497 14.9332C15.9409 14.2946 15.0501 14.2932 14.8408 14.9332L13.6183 18.6711H12.6899C12.3089 18.6711 12 18.9859 12 19.3743C12 19.7626 12.3089 20.0774 12.6899 20.0774H14.1156C14.4125 20.0774 14.6761 19.8837 14.77 19.5966L15.4953 17.379L17.6003 23.8154C17.6918 24.0953 17.9451 24.2872 18.2345 24.2958C18.52 24.3045 18.7864 24.1316 18.8952 23.8541L21.0841 18.2767L21.7769 19.6887C21.8937 19.927 22.1326 20.0774 22.3939 20.0774H23.8196C24.2006 20.0774 24.5094 19.7626 24.5094 19.3743Z" fill="#FAFAFA"/>
</g>
<defs>
<linearGradient id="paint0_linear" x1="1.86265e-07" y1="50" x2="52.2774" y2="47.4932" gradientUnits="userSpaceOnUse">
<stop stop-color="#F7A800"/>
<stop offset="1" stop-color="#FFC316"/>
</linearGradient>
<clipPath id="clip0">
<rect width="23.5472" height="24" fill="white" transform="translate(12 13)"/>
</clipPath>
</defs>
</svg>
