<svg width="1047" height="530" viewBox="0 0 1047 530" fill="none" xmlns="http://www.w3.org/2000/svg">
<circle cx="2.5" cy="2.5" r="2.5" fill="#FAFAFA" fill-opacity="0.05"/>
<circle cx="37.5" cy="2.5" r="2.5" fill="#FAFAFA" fill-opacity="0.05"/>
<circle cx="72.5" cy="2.5" r="2.5" fill="#FAFAFA" fill-opacity="0.05"/>
<circle cx="107.5" cy="2.5" r="2.5" fill="#FAFAFA" fill-opacity="0.05"/>
<circle cx="142.5" cy="2.5" r="2.5" fill="#FAFAFA" fill-opacity="0.05"/>
<circle cx="177.5" cy="2.5" r="2.5" fill="#FAFAFA" fill-opacity="0.05"/>
<circle cx="212.5" cy="2.5" r="2.5" fill="#FAFAFA" fill-opacity="0.05"/>
<circle cx="247.5" cy="2.5" r="2.5" fill="#FAFAFA" fill-opacity="0.05"/>
<circle cx="282.5" cy="2.5" r="2.5" fill="#FAFAFA" fill-opacity="0.05"/>
<circle cx="317.5" cy="2.5" r="2.5" fill="#FAFAFA" fill-opacity="0.05"/>
<circle cx="352.5" cy="2.5" r="2.5" fill="#FAFAFA" fill-opacity="0.05"/>
<circle cx="387.5" cy="2.5" r="2.5" fill="#FAFAFA" fill-opacity="0.05"/>
<circle cx="422.5" cy="2.5" r="2.5" fill="#FAFAFA" fill-opacity="0.05"/>
<circle cx="457.5" cy="2.5" r="2.5" fill="#FAFAFA" fill-opacity="0.05"/>
<circle cx="492.5" cy="2.5" r="2.5" fill="#FAFAFA" fill-opacity="0.05"/>
<circle cx="527.5" cy="2.5" r="2.5" fill="#FAFAFA" fill-opacity="0.05"/>
<circle cx="562.5" cy="2.5" r="2.5" fill="#FAFAFA" fill-opacity="0.05"/>
<circle cx="597.5" cy="2.5" r="2.5" fill="#FAFAFA" fill-opacity="0.05"/>
<circle cx="632.5" cy="2.5" r="2.5" fill="#FAFAFA" fill-opacity="0.05"/>
<circle cx="667.5" cy="2.5" r="2.5" fill="#FAFAFA" fill-opacity="0.05"/>
<circle cx="702.5" cy="2.5" r="2.5" fill="#FAFAFA" fill-opacity="0.05"/>
<circle cx="737.5" cy="2.5" r="2.5" fill="#FAFAFA" fill-opacity="0.05"/>
<circle cx="772.5" cy="2.5" r="2.5" fill="#FAFAFA" fill-opacity="0.05"/>
<circle cx="807.5" cy="2.5" r="2.5" fill="#FAFAFA" fill-opacity="0.05"/>
<circle cx="842.5" cy="2.5" r="2.5" fill="#FAFAFA" fill-opacity="0.05"/>
<circle cx="877.5" cy="2.5" r="2.5" fill="#FAFAFA" fill-opacity="0.05"/>
<circle cx="912.5" cy="2.5" r="2.5" fill="#FAFAFA" fill-opacity="0.05"/>
<circle cx="947.5" cy="2.5" r="2.5" fill="#FAFAFA" fill-opacity="0.05"/>
<circle cx="982.5" cy="2.5" r="2.5" fill="#FAFAFA" fill-opacity="0.05"/>
<circle cx="1017.5" cy="2.5" r="2.5" fill="#FAFAFA" fill-opacity="0.05"/>
<circle cx="2.5" cy="37.5" r="2.5" fill="#FAFAFA" fill-opacity="0.05"/>
<circle cx="37.5" cy="37.5" r="2.5" fill="#FAFAFA" fill-opacity="0.05"/>
<circle cx="72.5" cy="37.5" r="2.5" fill="#FAFAFA" fill-opacity="0.05"/>
<circle cx="107.5" cy="37.5" r="2.5" fill="#FAFAFA" fill-opacity="0.05"/>
<circle cx="142.5" cy="37.5" r="2.5" fill="#FAFAFA" fill-opacity="0.05"/>
<circle cx="177.5" cy="37.5" r="2.5" fill="#FAFAFA" fill-opacity="0.05"/>
<circle cx="212.5" cy="37.5" r="2.5" fill="#FAFAFA" fill-opacity="0.05"/>
<circle cx="247.5" cy="37.5" r="2.5" fill="#FAFAFA" fill-opacity="0.05"/>
<circle cx="282.5" cy="37.5" r="2.5" fill="#FAFAFA" fill-opacity="0.05"/>
<circle cx="317.5" cy="37.5" r="2.5" fill="#FAFAFA" fill-opacity="0.05"/>
<circle cx="352.5" cy="37.5" r="2.5" fill="#FAFAFA" fill-opacity="0.05"/>
<circle cx="387.5" cy="37.5" r="2.5" fill="#FAFAFA" fill-opacity="0.05"/>
<circle cx="422.5" cy="37.5" r="2.5" fill="#FAFAFA" fill-opacity="0.05"/>
<circle cx="457.5" cy="37.5" r="2.5" fill="#FAFAFA" fill-opacity="0.05"/>
<circle cx="492.5" cy="37.5" r="2.5" fill="#FAFAFA" fill-opacity="0.05"/>
<circle cx="527.5" cy="37.5" r="2.5" fill="#FAFAFA" fill-opacity="0.05"/>
<circle cx="562.5" cy="37.5" r="2.5" fill="#FAFAFA" fill-opacity="0.05"/>
<circle cx="597.5" cy="37.5" r="2.5" fill="#FAFAFA" fill-opacity="0.05"/>
<circle cx="632.5" cy="37.5" r="2.5" fill="#FAFAFA" fill-opacity="0.05"/>
<circle cx="667.5" cy="37.5" r="2.5" fill="#FAFAFA" fill-opacity="0.05"/>
<circle cx="702.5" cy="37.5" r="2.5" fill="#FAFAFA" fill-opacity="0.05"/>
<circle cx="737.5" cy="37.5" r="2.5" fill="#FAFAFA" fill-opacity="0.05"/>
<circle cx="772.5" cy="37.5" r="2.5" fill="#FAFAFA" fill-opacity="0.05"/>
<circle cx="807.5" cy="37.5" r="2.5" fill="#FAFAFA" fill-opacity="0.05"/>
<circle cx="842.5" cy="37.5" r="2.5" fill="#FAFAFA" fill-opacity="0.05"/>
<circle cx="877.5" cy="37.5" r="2.5" fill="#FAFAFA" fill-opacity="0.05"/>
<circle cx="912.5" cy="37.5" r="2.5" fill="#FAFAFA" fill-opacity="0.05"/>
<circle cx="947.5" cy="37.5" r="2.5" fill="#FAFAFA" fill-opacity="0.05"/>
<circle cx="982.5" cy="37.5" r="2.5" fill="#FAFAFA" fill-opacity="0.05"/>
<circle cx="1017.5" cy="37.5" r="2.5" fill="#FAFAFA" fill-opacity="0.05"/>
<circle cx="2.5" cy="72.5" r="2.5" fill="#FAFAFA" fill-opacity="0.05"/>
<circle cx="37.5" cy="72.5" r="2.5" fill="#FAFAFA" fill-opacity="0.05"/>
<circle cx="72.5" cy="72.5" r="2.5" fill="#FAFAFA" fill-opacity="0.05"/>
<circle cx="107.5" cy="72.5" r="2.5" fill="#FAFAFA" fill-opacity="0.05"/>
<circle cx="142.5" cy="72.5" r="2.5" fill="#FAFAFA" fill-opacity="0.05"/>
<circle cx="177.5" cy="72.5" r="2.5" fill="#FAFAFA" fill-opacity="0.05"/>
<circle cx="212.5" cy="72.5" r="2.5" fill="#FAFAFA" fill-opacity="0.05"/>
<circle cx="247.5" cy="72.5" r="2.5" fill="#FAFAFA" fill-opacity="0.05"/>
<circle cx="282.5" cy="72.5" r="2.5" fill="#FAFAFA" fill-opacity="0.05"/>
<circle cx="317.5" cy="72.5" r="2.5" fill="#FAFAFA" fill-opacity="0.05"/>
<circle cx="352.5" cy="72.5" r="2.5" fill="#FAFAFA" fill-opacity="0.05"/>
<circle cx="387.5" cy="72.5" r="2.5" fill="#FAFAFA" fill-opacity="0.05"/>
<circle cx="422.5" cy="72.5" r="2.5" fill="#FAFAFA" fill-opacity="0.05"/>
<circle cx="457.5" cy="72.5" r="2.5" fill="#FAFAFA" fill-opacity="0.05"/>
<circle cx="492.5" cy="72.5" r="2.5" fill="#FAFAFA" fill-opacity="0.05"/>
<circle cx="527.5" cy="72.5" r="2.5" fill="#FAFAFA" fill-opacity="0.05"/>
<circle cx="562.5" cy="72.5" r="2.5" fill="#FAFAFA" fill-opacity="0.05"/>
<circle cx="597.5" cy="72.5" r="2.5" fill="#FAFAFA" fill-opacity="0.05"/>
<circle cx="632.5" cy="72.5" r="2.5" fill="#FAFAFA" fill-opacity="0.05"/>
<circle cx="667.5" cy="72.5" r="2.5" fill="#FAFAFA" fill-opacity="0.05"/>
<circle cx="702.5" cy="72.5" r="2.5" fill="#FAFAFA" fill-opacity="0.05"/>
<circle cx="737.5" cy="72.5" r="2.5" fill="#FAFAFA" fill-opacity="0.05"/>
<circle cx="772.5" cy="72.5" r="2.5" fill="#FAFAFA" fill-opacity="0.05"/>
<circle cx="807.5" cy="72.5" r="2.5" fill="#FAFAFA" fill-opacity="0.05"/>
<circle cx="842.5" cy="72.5" r="2.5" fill="#FAFAFA" fill-opacity="0.05"/>
<circle cx="877.5" cy="72.5" r="2.5" fill="#FAFAFA" fill-opacity="0.05"/>
<circle cx="912.5" cy="72.5" r="2.5" fill="#FAFAFA" fill-opacity="0.05"/>
<circle cx="947.5" cy="72.5" r="2.5" fill="#FAFAFA" fill-opacity="0.05"/>
<circle cx="982.5" cy="72.5" r="2.5" fill="#FAFAFA" fill-opacity="0.05"/>
<circle cx="1017.5" cy="72.5" r="2.5" fill="#FAFAFA" fill-opacity="0.05"/>
<circle cx="2.5" cy="107.5" r="2.5" fill="#FAFAFA" fill-opacity="0.05"/>
<circle cx="37.5" cy="107.5" r="2.5" fill="#FAFAFA" fill-opacity="0.05"/>
<circle cx="72.5" cy="107.5" r="2.5" fill="#FAFAFA" fill-opacity="0.05"/>
<circle cx="107.5" cy="107.5" r="2.5" fill="#FAFAFA" fill-opacity="0.05"/>
<circle cx="142.5" cy="107.5" r="2.5" fill="#FAFAFA" fill-opacity="0.05"/>
<circle cx="177.5" cy="107.5" r="2.5" fill="#FAFAFA" fill-opacity="0.05"/>
<circle cx="212.5" cy="107.5" r="2.5" fill="#FAFAFA" fill-opacity="0.05"/>
<circle cx="247.5" cy="107.5" r="2.5" fill="#FAFAFA" fill-opacity="0.05"/>
<circle cx="282.5" cy="107.5" r="2.5" fill="#FAFAFA" fill-opacity="0.05"/>
<circle cx="317.5" cy="107.5" r="2.5" fill="#FAFAFA" fill-opacity="0.05"/>
<circle cx="352.5" cy="107.5" r="2.5" fill="#FAFAFA" fill-opacity="0.05"/>
<circle cx="387.5" cy="107.5" r="2.5" fill="#FAFAFA" fill-opacity="0.05"/>
<circle cx="422.5" cy="107.5" r="2.5" fill="#FAFAFA" fill-opacity="0.05"/>
<circle cx="457.5" cy="107.5" r="2.5" fill="#FAFAFA" fill-opacity="0.05"/>
<circle cx="492.5" cy="107.5" r="2.5" fill="#FAFAFA" fill-opacity="0.05"/>
<circle cx="527.5" cy="107.5" r="2.5" fill="#FAFAFA" fill-opacity="0.05"/>
<circle cx="562.5" cy="107.5" r="2.5" fill="#FAFAFA" fill-opacity="0.05"/>
<circle cx="597.5" cy="107.5" r="2.5" fill="#FAFAFA" fill-opacity="0.05"/>
<circle cx="632.5" cy="107.5" r="2.5" fill="#FAFAFA" fill-opacity="0.05"/>
<circle cx="667.5" cy="107.5" r="2.5" fill="#FAFAFA" fill-opacity="0.05"/>
<circle cx="702.5" cy="107.5" r="2.5" fill="#FAFAFA" fill-opacity="0.05"/>
<circle cx="737.5" cy="107.5" r="2.5" fill="#FAFAFA" fill-opacity="0.05"/>
<circle cx="772.5" cy="107.5" r="2.5" fill="#FAFAFA" fill-opacity="0.05"/>
<circle cx="807.5" cy="107.5" r="2.5" fill="#FAFAFA" fill-opacity="0.05"/>
<circle cx="842.5" cy="107.5" r="2.5" fill="#FAFAFA" fill-opacity="0.05"/>
<circle cx="877.5" cy="107.5" r="2.5" fill="#FAFAFA" fill-opacity="0.05"/>
<circle cx="912.5" cy="107.5" r="2.5" fill="#FAFAFA" fill-opacity="0.05"/>
<circle cx="947.5" cy="107.5" r="2.5" fill="#FAFAFA" fill-opacity="0.05"/>
<circle cx="982.5" cy="107.5" r="2.5" fill="#FAFAFA" fill-opacity="0.05"/>
<circle cx="1017.5" cy="107.5" r="2.5" fill="#FAFAFA" fill-opacity="0.05"/>
<circle cx="2.5" cy="142.5" r="2.5" fill="#FAFAFA" fill-opacity="0.05"/>
<circle cx="37.5" cy="142.5" r="2.5" fill="#FAFAFA" fill-opacity="0.05"/>
<circle cx="72.5" cy="142.5" r="2.5" fill="#FAFAFA" fill-opacity="0.05"/>
<circle cx="107.5" cy="142.5" r="2.5" fill="#FAFAFA" fill-opacity="0.05"/>
<circle cx="142.5" cy="142.5" r="2.5" fill="#FAFAFA" fill-opacity="0.05"/>
<circle cx="177.5" cy="142.5" r="2.5" fill="#FAFAFA" fill-opacity="0.05"/>
<circle cx="212.5" cy="142.5" r="2.5" fill="#FAFAFA" fill-opacity="0.05"/>
<circle cx="247.5" cy="142.5" r="2.5" fill="#FAFAFA" fill-opacity="0.05"/>
<circle cx="282.5" cy="142.5" r="2.5" fill="#FAFAFA" fill-opacity="0.05"/>
<circle cx="317.5" cy="142.5" r="2.5" fill="#FAFAFA" fill-opacity="0.05"/>
<circle cx="352.5" cy="142.5" r="2.5" fill="#FAFAFA" fill-opacity="0.05"/>
<circle cx="387.5" cy="142.5" r="2.5" fill="#FAFAFA" fill-opacity="0.05"/>
<circle cx="422.5" cy="142.5" r="2.5" fill="#FAFAFA" fill-opacity="0.05"/>
<circle cx="457.5" cy="142.5" r="2.5" fill="#FAFAFA" fill-opacity="0.05"/>
<circle cx="492.5" cy="142.5" r="2.5" fill="#FAFAFA" fill-opacity="0.05"/>
<circle cx="527.5" cy="142.5" r="2.5" fill="#FAFAFA" fill-opacity="0.05"/>
<circle cx="562.5" cy="142.5" r="2.5" fill="#FAFAFA" fill-opacity="0.05"/>
<circle cx="597.5" cy="142.5" r="2.5" fill="#FAFAFA" fill-opacity="0.05"/>
<circle cx="632.5" cy="142.5" r="2.5" fill="#FAFAFA" fill-opacity="0.05"/>
<circle cx="667.5" cy="142.5" r="2.5" fill="#FAFAFA" fill-opacity="0.05"/>
<circle cx="702.5" cy="142.5" r="2.5" fill="#FAFAFA" fill-opacity="0.05"/>
<circle cx="737.5" cy="142.5" r="2.5" fill="#FAFAFA" fill-opacity="0.05"/>
<circle cx="772.5" cy="142.5" r="2.5" fill="#FAFAFA" fill-opacity="0.05"/>
<circle cx="807.5" cy="142.5" r="2.5" fill="#FAFAFA" fill-opacity="0.05"/>
<circle cx="842.5" cy="142.5" r="2.5" fill="#FAFAFA" fill-opacity="0.05"/>
<circle cx="877.5" cy="142.5" r="2.5" fill="#FAFAFA" fill-opacity="0.05"/>
<circle cx="912.5" cy="142.5" r="2.5" fill="#FAFAFA" fill-opacity="0.05"/>
<circle cx="947.5" cy="142.5" r="2.5" fill="#FAFAFA" fill-opacity="0.05"/>
<circle cx="982.5" cy="142.5" r="2.5" fill="#FAFAFA" fill-opacity="0.05"/>
<circle cx="1017.5" cy="142.5" r="2.5" fill="#FAFAFA" fill-opacity="0.05"/>
<circle cx="2.5" cy="177.5" r="2.5" fill="#FAFAFA" fill-opacity="0.05"/>
<circle cx="37.5" cy="177.5" r="2.5" fill="#FAFAFA" fill-opacity="0.05"/>
<circle cx="72.5" cy="177.5" r="2.5" fill="#FAFAFA" fill-opacity="0.05"/>
<circle cx="107.5" cy="177.5" r="2.5" fill="#FAFAFA" fill-opacity="0.05"/>
<circle cx="142.5" cy="177.5" r="2.5" fill="#FAFAFA" fill-opacity="0.05"/>
<circle cx="177.5" cy="177.5" r="2.5" fill="#FAFAFA" fill-opacity="0.05"/>
<circle cx="212.5" cy="177.5" r="2.5" fill="#FAFAFA" fill-opacity="0.05"/>
<circle cx="247.5" cy="177.5" r="2.5" fill="#FAFAFA" fill-opacity="0.05"/>
<circle cx="282.5" cy="177.5" r="2.5" fill="#FAFAFA" fill-opacity="0.05"/>
<circle cx="317.5" cy="177.5" r="2.5" fill="#FAFAFA" fill-opacity="0.05"/>
<circle cx="352.5" cy="177.5" r="2.5" fill="#FAFAFA" fill-opacity="0.05"/>
<circle cx="387.5" cy="177.5" r="2.5" fill="#FAFAFA" fill-opacity="0.05"/>
<circle cx="422.5" cy="177.5" r="2.5" fill="#FAFAFA" fill-opacity="0.05"/>
<circle cx="457.5" cy="177.5" r="2.5" fill="#FAFAFA" fill-opacity="0.05"/>
<circle cx="492.5" cy="177.5" r="2.5" fill="#FAFAFA" fill-opacity="0.05"/>
<circle cx="527.5" cy="177.5" r="2.5" fill="#FAFAFA" fill-opacity="0.05"/>
<circle cx="562.5" cy="177.5" r="2.5" fill="#FAFAFA" fill-opacity="0.05"/>
<circle cx="597.5" cy="177.5" r="2.5" fill="#FAFAFA" fill-opacity="0.05"/>
<circle cx="632.5" cy="177.5" r="2.5" fill="#FAFAFA" fill-opacity="0.05"/>
<circle cx="667.5" cy="177.5" r="2.5" fill="#FAFAFA" fill-opacity="0.05"/>
<circle cx="702.5" cy="177.5" r="2.5" fill="#FAFAFA" fill-opacity="0.05"/>
<circle cx="737.5" cy="177.5" r="2.5" fill="#FAFAFA" fill-opacity="0.05"/>
<circle cx="772.5" cy="177.5" r="2.5" fill="#FAFAFA" fill-opacity="0.05"/>
<circle cx="807.5" cy="177.5" r="2.5" fill="#FAFAFA" fill-opacity="0.05"/>
<circle cx="842.5" cy="177.5" r="2.5" fill="#FAFAFA" fill-opacity="0.05"/>
<circle cx="877.5" cy="177.5" r="2.5" fill="#FAFAFA" fill-opacity="0.05"/>
<circle cx="912.5" cy="177.5" r="2.5" fill="#FAFAFA" fill-opacity="0.05"/>
<circle cx="947.5" cy="177.5" r="2.5" fill="#FAFAFA" fill-opacity="0.05"/>
<circle cx="982.5" cy="177.5" r="2.5" fill="#FAFAFA" fill-opacity="0.05"/>
<circle cx="1017.5" cy="177.5" r="2.5" fill="#FAFAFA" fill-opacity="0.05"/>
<circle cx="2.5" cy="212.5" r="2.5" fill="#FAFAFA" fill-opacity="0.05"/>
<circle cx="37.5" cy="212.5" r="2.5" fill="#FAFAFA" fill-opacity="0.05"/>
<circle cx="72.5" cy="212.5" r="2.5" fill="#FAFAFA" fill-opacity="0.05"/>
<circle cx="107.5" cy="212.5" r="2.5" fill="#FAFAFA" fill-opacity="0.05"/>
<circle cx="142.5" cy="212.5" r="2.5" fill="#FAFAFA" fill-opacity="0.05"/>
<circle cx="177.5" cy="212.5" r="2.5" fill="#FAFAFA" fill-opacity="0.05"/>
<circle cx="212.5" cy="212.5" r="2.5" fill="#FAFAFA" fill-opacity="0.05"/>
<circle cx="247.5" cy="212.5" r="2.5" fill="#FAFAFA" fill-opacity="0.05"/>
<circle cx="282.5" cy="212.5" r="2.5" fill="#FAFAFA" fill-opacity="0.05"/>
<circle cx="317.5" cy="212.5" r="2.5" fill="#FAFAFA" fill-opacity="0.05"/>
<circle cx="352.5" cy="212.5" r="2.5" fill="#FAFAFA" fill-opacity="0.05"/>
<circle cx="387.5" cy="212.5" r="2.5" fill="#FAFAFA" fill-opacity="0.05"/>
<circle cx="422.5" cy="212.5" r="2.5" fill="#FAFAFA" fill-opacity="0.05"/>
<circle cx="457.5" cy="212.5" r="2.5" fill="#FAFAFA" fill-opacity="0.05"/>
<circle cx="492.5" cy="212.5" r="2.5" fill="#FAFAFA" fill-opacity="0.05"/>
<circle cx="527.5" cy="212.5" r="2.5" fill="#FAFAFA" fill-opacity="0.05"/>
<circle cx="562.5" cy="212.5" r="2.5" fill="#FAFAFA" fill-opacity="0.05"/>
<circle cx="597.5" cy="212.5" r="2.5" fill="#FAFAFA" fill-opacity="0.05"/>
<circle cx="632.5" cy="212.5" r="2.5" fill="#FAFAFA" fill-opacity="0.05"/>
<circle cx="667.5" cy="212.5" r="2.5" fill="#FAFAFA" fill-opacity="0.05"/>
<circle cx="702.5" cy="212.5" r="2.5" fill="#FAFAFA" fill-opacity="0.05"/>
<circle cx="737.5" cy="212.5" r="2.5" fill="#FAFAFA" fill-opacity="0.05"/>
<circle cx="772.5" cy="212.5" r="2.5" fill="#FAFAFA" fill-opacity="0.05"/>
<circle cx="807.5" cy="212.5" r="2.5" fill="#FAFAFA" fill-opacity="0.05"/>
<circle cx="842.5" cy="212.5" r="2.5" fill="#FAFAFA" fill-opacity="0.05"/>
<circle cx="877.5" cy="212.5" r="2.5" fill="#FAFAFA" fill-opacity="0.05"/>
<circle cx="912.5" cy="212.5" r="2.5" fill="#FAFAFA" fill-opacity="0.05"/>
<circle cx="947.5" cy="212.5" r="2.5" fill="#FAFAFA" fill-opacity="0.05"/>
<circle cx="982.5" cy="212.5" r="2.5" fill="#FAFAFA" fill-opacity="0.05"/>
<circle cx="1017.5" cy="212.5" r="2.5" fill="#FAFAFA" fill-opacity="0.05"/>
<circle cx="2.5" cy="247.5" r="2.5" fill="#FAFAFA" fill-opacity="0.05"/>
<circle cx="37.5" cy="247.5" r="2.5" fill="#FAFAFA" fill-opacity="0.05"/>
<circle cx="72.5" cy="247.5" r="2.5" fill="#FAFAFA" fill-opacity="0.05"/>
<circle cx="107.5" cy="247.5" r="2.5" fill="#FAFAFA" fill-opacity="0.05"/>
<circle cx="142.5" cy="247.5" r="2.5" fill="#FAFAFA" fill-opacity="0.05"/>
<circle cx="177.5" cy="247.5" r="2.5" fill="#FAFAFA" fill-opacity="0.05"/>
<circle cx="212.5" cy="247.5" r="2.5" fill="#FAFAFA" fill-opacity="0.05"/>
<circle cx="247.5" cy="247.5" r="2.5" fill="#FAFAFA" fill-opacity="0.05"/>
<circle cx="282.5" cy="247.5" r="2.5" fill="#FAFAFA" fill-opacity="0.05"/>
<circle cx="317.5" cy="247.5" r="2.5" fill="#FAFAFA" fill-opacity="0.05"/>
<circle cx="352.5" cy="247.5" r="2.5" fill="#FAFAFA" fill-opacity="0.05"/>
<circle cx="387.5" cy="247.5" r="2.5" fill="#FAFAFA" fill-opacity="0.05"/>
<circle cx="422.5" cy="247.5" r="2.5" fill="#FAFAFA" fill-opacity="0.05"/>
<circle cx="457.5" cy="247.5" r="2.5" fill="#FAFAFA" fill-opacity="0.05"/>
<circle cx="492.5" cy="247.5" r="2.5" fill="#FAFAFA" fill-opacity="0.05"/>
<circle cx="527.5" cy="247.5" r="2.5" fill="#FAFAFA" fill-opacity="0.05"/>
<circle cx="562.5" cy="247.5" r="2.5" fill="#FAFAFA" fill-opacity="0.05"/>
<circle cx="597.5" cy="247.5" r="2.5" fill="#FAFAFA" fill-opacity="0.05"/>
<circle cx="632.5" cy="247.5" r="2.5" fill="#FAFAFA" fill-opacity="0.05"/>
<circle cx="667.5" cy="247.5" r="2.5" fill="#FAFAFA" fill-opacity="0.05"/>
<circle cx="702.5" cy="247.5" r="2.5" fill="#FAFAFA" fill-opacity="0.05"/>
<circle cx="737.5" cy="247.5" r="2.5" fill="#FAFAFA" fill-opacity="0.05"/>
<circle cx="772.5" cy="247.5" r="2.5" fill="#FAFAFA" fill-opacity="0.05"/>
<circle cx="807.5" cy="247.5" r="2.5" fill="#FAFAFA" fill-opacity="0.05"/>
<circle cx="842.5" cy="247.5" r="2.5" fill="#FAFAFA" fill-opacity="0.05"/>
<circle cx="877.5" cy="247.5" r="2.5" fill="#FAFAFA" fill-opacity="0.05"/>
<circle cx="912.5" cy="247.5" r="2.5" fill="#FAFAFA" fill-opacity="0.05"/>
<circle cx="947.5" cy="247.5" r="2.5" fill="#FAFAFA" fill-opacity="0.05"/>
<circle cx="982.5" cy="247.5" r="2.5" fill="#FAFAFA" fill-opacity="0.05"/>
<circle cx="1017.5" cy="247.5" r="2.5" fill="#FAFAFA" fill-opacity="0.05"/>
<circle cx="2.5" cy="282.5" r="2.5" fill="#FAFAFA" fill-opacity="0.05"/>
<circle cx="37.5" cy="282.5" r="2.5" fill="#FAFAFA" fill-opacity="0.05"/>
<circle cx="72.5" cy="282.5" r="2.5" fill="#FAFAFA" fill-opacity="0.05"/>
<circle cx="107.5" cy="282.5" r="2.5" fill="#FAFAFA" fill-opacity="0.05"/>
<circle cx="142.5" cy="282.5" r="2.5" fill="#FAFAFA" fill-opacity="0.05"/>
<circle cx="177.5" cy="282.5" r="2.5" fill="#FAFAFA" fill-opacity="0.05"/>
<circle cx="212.5" cy="282.5" r="2.5" fill="#FAFAFA" fill-opacity="0.05"/>
<circle cx="247.5" cy="282.5" r="2.5" fill="#FAFAFA" fill-opacity="0.05"/>
<circle cx="282.5" cy="282.5" r="2.5" fill="#FAFAFA" fill-opacity="0.05"/>
<circle cx="317.5" cy="282.5" r="2.5" fill="#FAFAFA" fill-opacity="0.05"/>
<circle cx="352.5" cy="282.5" r="2.5" fill="#FAFAFA" fill-opacity="0.05"/>
<circle cx="387.5" cy="282.5" r="2.5" fill="#FAFAFA" fill-opacity="0.05"/>
<circle cx="422.5" cy="282.5" r="2.5" fill="#FAFAFA" fill-opacity="0.05"/>
<circle cx="457.5" cy="282.5" r="2.5" fill="#FAFAFA" fill-opacity="0.05"/>
<circle cx="492.5" cy="282.5" r="2.5" fill="#FAFAFA" fill-opacity="0.05"/>
<circle cx="527.5" cy="282.5" r="2.5" fill="#FAFAFA" fill-opacity="0.05"/>
<circle cx="562.5" cy="282.5" r="2.5" fill="#FAFAFA" fill-opacity="0.05"/>
<circle cx="597.5" cy="282.5" r="2.5" fill="#FAFAFA" fill-opacity="0.05"/>
<circle cx="632.5" cy="282.5" r="2.5" fill="#FAFAFA" fill-opacity="0.05"/>
<circle cx="667.5" cy="282.5" r="2.5" fill="#FAFAFA" fill-opacity="0.05"/>
<circle cx="702.5" cy="282.5" r="2.5" fill="#FAFAFA" fill-opacity="0.05"/>
<circle cx="737.5" cy="282.5" r="2.5" fill="#FAFAFA" fill-opacity="0.05"/>
<circle cx="772.5" cy="282.5" r="2.5" fill="#FAFAFA" fill-opacity="0.05"/>
<circle cx="807.5" cy="282.5" r="2.5" fill="#FAFAFA" fill-opacity="0.05"/>
<circle cx="842.5" cy="282.5" r="2.5" fill="#FAFAFA" fill-opacity="0.05"/>
<circle cx="877.5" cy="282.5" r="2.5" fill="#FAFAFA" fill-opacity="0.05"/>
<circle cx="912.5" cy="282.5" r="2.5" fill="#FAFAFA" fill-opacity="0.05"/>
<circle cx="947.5" cy="282.5" r="2.5" fill="#FAFAFA" fill-opacity="0.05"/>
<circle cx="982.5" cy="282.5" r="2.5" fill="#FAFAFA" fill-opacity="0.05"/>
<circle cx="1017.5" cy="282.5" r="2.5" fill="#FAFAFA" fill-opacity="0.05"/>
<circle cx="2.5" cy="317.5" r="2.5" fill="#FAFAFA" fill-opacity="0.05"/>
<circle cx="37.5" cy="317.5" r="2.5" fill="#FAFAFA" fill-opacity="0.05"/>
<circle cx="72.5" cy="317.5" r="2.5" fill="#FAFAFA" fill-opacity="0.05"/>
<circle cx="107.5" cy="317.5" r="2.5" fill="#FAFAFA" fill-opacity="0.05"/>
<circle cx="142.5" cy="317.5" r="2.5" fill="#FAFAFA" fill-opacity="0.05"/>
<circle cx="177.5" cy="317.5" r="2.5" fill="#FAFAFA" fill-opacity="0.05"/>
<circle cx="212.5" cy="317.5" r="2.5" fill="#FAFAFA" fill-opacity="0.05"/>
<circle cx="247.5" cy="317.5" r="2.5" fill="#FAFAFA" fill-opacity="0.05"/>
<circle cx="282.5" cy="317.5" r="2.5" fill="#FAFAFA" fill-opacity="0.05"/>
<circle cx="317.5" cy="317.5" r="2.5" fill="#FAFAFA" fill-opacity="0.05"/>
<circle cx="352.5" cy="317.5" r="2.5" fill="#FAFAFA" fill-opacity="0.05"/>
<circle cx="387.5" cy="317.5" r="2.5" fill="#FAFAFA" fill-opacity="0.05"/>
<circle cx="422.5" cy="317.5" r="2.5" fill="#FAFAFA" fill-opacity="0.05"/>
<circle cx="457.5" cy="317.5" r="2.5" fill="#FAFAFA" fill-opacity="0.05"/>
<circle cx="492.5" cy="317.5" r="2.5" fill="#FAFAFA" fill-opacity="0.05"/>
<circle cx="527.5" cy="317.5" r="2.5" fill="#FAFAFA" fill-opacity="0.05"/>
<circle cx="562.5" cy="317.5" r="2.5" fill="#FAFAFA" fill-opacity="0.05"/>
<circle cx="597.5" cy="317.5" r="2.5" fill="#FAFAFA" fill-opacity="0.05"/>
<circle cx="632.5" cy="317.5" r="2.5" fill="#FAFAFA" fill-opacity="0.05"/>
<circle cx="667.5" cy="317.5" r="2.5" fill="#FAFAFA" fill-opacity="0.05"/>
<circle cx="702.5" cy="317.5" r="2.5" fill="#FAFAFA" fill-opacity="0.05"/>
<circle cx="737.5" cy="317.5" r="2.5" fill="#FAFAFA" fill-opacity="0.05"/>
<circle cx="772.5" cy="317.5" r="2.5" fill="#FAFAFA" fill-opacity="0.05"/>
<circle cx="807.5" cy="317.5" r="2.5" fill="#FAFAFA" fill-opacity="0.05"/>
<circle cx="842.5" cy="317.5" r="2.5" fill="#FAFAFA" fill-opacity="0.05"/>
<circle cx="877.5" cy="317.5" r="2.5" fill="#FAFAFA" fill-opacity="0.05"/>
<circle cx="912.5" cy="317.5" r="2.5" fill="#FAFAFA" fill-opacity="0.05"/>
<circle cx="947.5" cy="317.5" r="2.5" fill="#FAFAFA" fill-opacity="0.05"/>
<circle cx="982.5" cy="317.5" r="2.5" fill="#FAFAFA" fill-opacity="0.05"/>
<circle cx="1017.5" cy="317.5" r="2.5" fill="#FAFAFA" fill-opacity="0.05"/>
<circle cx="2.5" cy="352.5" r="2.5" fill="#FAFAFA" fill-opacity="0.05"/>
<circle cx="37.5" cy="352.5" r="2.5" fill="#FAFAFA" fill-opacity="0.05"/>
<circle cx="72.5" cy="352.5" r="2.5" fill="#FAFAFA" fill-opacity="0.05"/>
<circle cx="107.5" cy="352.5" r="2.5" fill="#FAFAFA" fill-opacity="0.05"/>
<circle cx="142.5" cy="352.5" r="2.5" fill="#FAFAFA" fill-opacity="0.05"/>
<circle cx="177.5" cy="352.5" r="2.5" fill="#FAFAFA" fill-opacity="0.05"/>
<circle cx="212.5" cy="352.5" r="2.5" fill="#FAFAFA" fill-opacity="0.05"/>
<circle cx="247.5" cy="352.5" r="2.5" fill="#FAFAFA" fill-opacity="0.05"/>
<circle cx="282.5" cy="352.5" r="2.5" fill="#FAFAFA" fill-opacity="0.05"/>
<circle cx="317.5" cy="352.5" r="2.5" fill="#FAFAFA" fill-opacity="0.05"/>
<circle cx="352.5" cy="352.5" r="2.5" fill="#FAFAFA" fill-opacity="0.05"/>
<circle cx="387.5" cy="352.5" r="2.5" fill="#FAFAFA" fill-opacity="0.05"/>
<circle cx="422.5" cy="352.5" r="2.5" fill="#FAFAFA" fill-opacity="0.05"/>
<circle cx="457.5" cy="352.5" r="2.5" fill="#FAFAFA" fill-opacity="0.05"/>
<circle cx="492.5" cy="352.5" r="2.5" fill="#FAFAFA" fill-opacity="0.05"/>
<circle cx="527.5" cy="352.5" r="2.5" fill="#FAFAFA" fill-opacity="0.05"/>
<circle cx="562.5" cy="352.5" r="2.5" fill="#FAFAFA" fill-opacity="0.05"/>
<circle cx="597.5" cy="352.5" r="2.5" fill="#FAFAFA" fill-opacity="0.05"/>
<circle cx="632.5" cy="352.5" r="2.5" fill="#FAFAFA" fill-opacity="0.05"/>
<circle cx="667.5" cy="352.5" r="2.5" fill="#FAFAFA" fill-opacity="0.05"/>
<circle cx="702.5" cy="352.5" r="2.5" fill="#FAFAFA" fill-opacity="0.05"/>
<circle cx="737.5" cy="352.5" r="2.5" fill="#FAFAFA" fill-opacity="0.05"/>
<circle cx="772.5" cy="352.5" r="2.5" fill="#FAFAFA" fill-opacity="0.05"/>
<circle cx="807.5" cy="352.5" r="2.5" fill="#FAFAFA" fill-opacity="0.05"/>
<circle cx="842.5" cy="352.5" r="2.5" fill="#FAFAFA" fill-opacity="0.05"/>
<circle cx="877.5" cy="352.5" r="2.5" fill="#FAFAFA" fill-opacity="0.05"/>
<circle cx="912.5" cy="352.5" r="2.5" fill="#FAFAFA" fill-opacity="0.05"/>
<circle cx="947.5" cy="352.5" r="2.5" fill="#FAFAFA" fill-opacity="0.05"/>
<circle cx="982.5" cy="352.5" r="2.5" fill="#FAFAFA" fill-opacity="0.05"/>
<circle cx="1017.5" cy="352.5" r="2.5" fill="#FAFAFA" fill-opacity="0.05"/>
<circle cx="2.5" cy="387.5" r="2.5" fill="#FAFAFA" fill-opacity="0.05"/>
<circle cx="37.5" cy="387.5" r="2.5" fill="#FAFAFA" fill-opacity="0.05"/>
<circle cx="72.5" cy="387.5" r="2.5" fill="#FAFAFA" fill-opacity="0.05"/>
<circle cx="107.5" cy="387.5" r="2.5" fill="#FAFAFA" fill-opacity="0.05"/>
<circle cx="142.5" cy="387.5" r="2.5" fill="#FAFAFA" fill-opacity="0.05"/>
<circle cx="177.5" cy="387.5" r="2.5" fill="#FAFAFA" fill-opacity="0.05"/>
<circle cx="212.5" cy="387.5" r="2.5" fill="#FAFAFA" fill-opacity="0.05"/>
<circle cx="247.5" cy="387.5" r="2.5" fill="#FAFAFA" fill-opacity="0.05"/>
<circle cx="282.5" cy="387.5" r="2.5" fill="#FAFAFA" fill-opacity="0.05"/>
<circle cx="317.5" cy="387.5" r="2.5" fill="#FAFAFA" fill-opacity="0.05"/>
<circle cx="352.5" cy="387.5" r="2.5" fill="#FAFAFA" fill-opacity="0.05"/>
<circle cx="387.5" cy="387.5" r="2.5" fill="#FAFAFA" fill-opacity="0.05"/>
<circle cx="422.5" cy="387.5" r="2.5" fill="#FAFAFA" fill-opacity="0.05"/>
<circle cx="457.5" cy="387.5" r="2.5" fill="#FAFAFA" fill-opacity="0.05"/>
<circle cx="492.5" cy="387.5" r="2.5" fill="#FAFAFA" fill-opacity="0.05"/>
<circle cx="527.5" cy="387.5" r="2.5" fill="#FAFAFA" fill-opacity="0.05"/>
<circle cx="562.5" cy="387.5" r="2.5" fill="#FAFAFA" fill-opacity="0.05"/>
<circle cx="597.5" cy="387.5" r="2.5" fill="#FAFAFA" fill-opacity="0.05"/>
<circle cx="632.5" cy="387.5" r="2.5" fill="#FAFAFA" fill-opacity="0.05"/>
<circle cx="667.5" cy="387.5" r="2.5" fill="#FAFAFA" fill-opacity="0.05"/>
<circle cx="702.5" cy="387.5" r="2.5" fill="#FAFAFA" fill-opacity="0.05"/>
<circle cx="737.5" cy="387.5" r="2.5" fill="#FAFAFA" fill-opacity="0.05"/>
<circle cx="772.5" cy="387.5" r="2.5" fill="#FAFAFA" fill-opacity="0.05"/>
<circle cx="807.5" cy="387.5" r="2.5" fill="#FAFAFA" fill-opacity="0.05"/>
<circle cx="842.5" cy="387.5" r="2.5" fill="#FAFAFA" fill-opacity="0.05"/>
<circle cx="877.5" cy="387.5" r="2.5" fill="#FAFAFA" fill-opacity="0.05"/>
<circle cx="912.5" cy="387.5" r="2.5" fill="#FAFAFA" fill-opacity="0.05"/>
<circle cx="947.5" cy="387.5" r="2.5" fill="#FAFAFA" fill-opacity="0.05"/>
<circle cx="982.5" cy="387.5" r="2.5" fill="#FAFAFA" fill-opacity="0.05"/>
<circle cx="1017.5" cy="387.5" r="2.5" fill="#FAFAFA" fill-opacity="0.05"/>
<circle cx="2.5" cy="422.5" r="2.5" fill="#FAFAFA" fill-opacity="0.05"/>
<circle cx="37.5" cy="422.5" r="2.5" fill="#FAFAFA" fill-opacity="0.05"/>
<circle cx="72.5" cy="422.5" r="2.5" fill="#FAFAFA" fill-opacity="0.05"/>
<circle cx="107.5" cy="422.5" r="2.5" fill="#FAFAFA" fill-opacity="0.05"/>
<circle cx="142.5" cy="422.5" r="2.5" fill="#FAFAFA" fill-opacity="0.05"/>
<circle cx="177.5" cy="422.5" r="2.5" fill="#FAFAFA" fill-opacity="0.05"/>
<circle cx="212.5" cy="422.5" r="2.5" fill="#FAFAFA" fill-opacity="0.05"/>
<circle cx="247.5" cy="422.5" r="2.5" fill="#FAFAFA" fill-opacity="0.05"/>
<circle cx="282.5" cy="422.5" r="2.5" fill="#FAFAFA" fill-opacity="0.05"/>
<circle cx="317.5" cy="422.5" r="2.5" fill="#FAFAFA" fill-opacity="0.05"/>
<circle cx="352.5" cy="422.5" r="2.5" fill="#FAFAFA" fill-opacity="0.05"/>
<circle cx="387.5" cy="422.5" r="2.5" fill="#FAFAFA" fill-opacity="0.05"/>
<circle cx="422.5" cy="422.5" r="2.5" fill="#FAFAFA" fill-opacity="0.05"/>
<circle cx="457.5" cy="422.5" r="2.5" fill="#FAFAFA" fill-opacity="0.05"/>
<circle cx="492.5" cy="422.5" r="2.5" fill="#FAFAFA" fill-opacity="0.05"/>
<circle cx="527.5" cy="422.5" r="2.5" fill="#FAFAFA" fill-opacity="0.05"/>
<circle cx="562.5" cy="422.5" r="2.5" fill="#FAFAFA" fill-opacity="0.05"/>
<circle cx="597.5" cy="422.5" r="2.5" fill="#FAFAFA" fill-opacity="0.05"/>
<circle cx="632.5" cy="422.5" r="2.5" fill="#FAFAFA" fill-opacity="0.05"/>
<circle cx="667.5" cy="422.5" r="2.5" fill="#FAFAFA" fill-opacity="0.05"/>
<circle cx="702.5" cy="422.5" r="2.5" fill="#FAFAFA" fill-opacity="0.05"/>
<circle cx="737.5" cy="422.5" r="2.5" fill="#FAFAFA" fill-opacity="0.05"/>
<circle cx="772.5" cy="422.5" r="2.5" fill="#FAFAFA" fill-opacity="0.05"/>
<circle cx="807.5" cy="422.5" r="2.5" fill="#FAFAFA" fill-opacity="0.05"/>
<circle cx="842.5" cy="422.5" r="2.5" fill="#FAFAFA" fill-opacity="0.05"/>
<circle cx="877.5" cy="422.5" r="2.5" fill="#FAFAFA" fill-opacity="0.05"/>
<circle cx="912.5" cy="422.5" r="2.5" fill="#FAFAFA" fill-opacity="0.05"/>
<circle cx="947.5" cy="422.5" r="2.5" fill="#FAFAFA" fill-opacity="0.05"/>
<circle cx="982.5" cy="422.5" r="2.5" fill="#FAFAFA" fill-opacity="0.05"/>
<circle cx="1017.5" cy="422.5" r="2.5" fill="#FAFAFA" fill-opacity="0.05"/>
<circle cx="2.5" cy="457.5" r="2.5" fill="#FAFAFA" fill-opacity="0.05"/>
<circle cx="37.5" cy="457.5" r="2.5" fill="#FAFAFA" fill-opacity="0.05"/>
<circle cx="72.5" cy="457.5" r="2.5" fill="#FAFAFA" fill-opacity="0.05"/>
<circle cx="107.5" cy="457.5" r="2.5" fill="#FAFAFA" fill-opacity="0.05"/>
<circle cx="142.5" cy="457.5" r="2.5" fill="#FAFAFA" fill-opacity="0.05"/>
<circle cx="177.5" cy="457.5" r="2.5" fill="#FAFAFA" fill-opacity="0.05"/>
<circle cx="212.5" cy="457.5" r="2.5" fill="#FAFAFA" fill-opacity="0.05"/>
<circle cx="247.5" cy="457.5" r="2.5" fill="#FAFAFA" fill-opacity="0.05"/>
<circle cx="282.5" cy="457.5" r="2.5" fill="#FAFAFA" fill-opacity="0.05"/>
<circle cx="317.5" cy="457.5" r="2.5" fill="#FAFAFA" fill-opacity="0.05"/>
<circle cx="352.5" cy="457.5" r="2.5" fill="#FAFAFA" fill-opacity="0.05"/>
<circle cx="387.5" cy="457.5" r="2.5" fill="#FAFAFA" fill-opacity="0.05"/>
<circle cx="422.5" cy="457.5" r="2.5" fill="#FAFAFA" fill-opacity="0.05"/>
<circle cx="457.5" cy="457.5" r="2.5" fill="#FAFAFA" fill-opacity="0.05"/>
<circle cx="492.5" cy="457.5" r="2.5" fill="#FAFAFA" fill-opacity="0.05"/>
<circle cx="527.5" cy="457.5" r="2.5" fill="#FAFAFA" fill-opacity="0.05"/>
<circle cx="562.5" cy="457.5" r="2.5" fill="#FAFAFA" fill-opacity="0.05"/>
<circle cx="597.5" cy="457.5" r="2.5" fill="#FAFAFA" fill-opacity="0.05"/>
<circle cx="632.5" cy="457.5" r="2.5" fill="#FAFAFA" fill-opacity="0.05"/>
<circle cx="667.5" cy="457.5" r="2.5" fill="#FAFAFA" fill-opacity="0.05"/>
<circle cx="702.5" cy="457.5" r="2.5" fill="#FAFAFA" fill-opacity="0.05"/>
<circle cx="737.5" cy="457.5" r="2.5" fill="#FAFAFA" fill-opacity="0.05"/>
<circle cx="772.5" cy="457.5" r="2.5" fill="#FAFAFA" fill-opacity="0.05"/>
<circle cx="807.5" cy="457.5" r="2.5" fill="#FAFAFA" fill-opacity="0.05"/>
<circle cx="842.5" cy="457.5" r="2.5" fill="#FAFAFA" fill-opacity="0.05"/>
<circle cx="877.5" cy="457.5" r="2.5" fill="#FAFAFA" fill-opacity="0.05"/>
<circle cx="912.5" cy="457.5" r="2.5" fill="#FAFAFA" fill-opacity="0.05"/>
<circle cx="947.5" cy="457.5" r="2.5" fill="#FAFAFA" fill-opacity="0.05"/>
<circle cx="982.5" cy="457.5" r="2.5" fill="#FAFAFA" fill-opacity="0.05"/>
<circle cx="1017.5" cy="457.5" r="2.5" fill="#FAFAFA" fill-opacity="0.05"/>
<circle cx="2.5" cy="492.5" r="2.5" fill="#FAFAFA" fill-opacity="0.05"/>
<circle cx="37.5" cy="492.5" r="2.5" fill="#FAFAFA" fill-opacity="0.05"/>
<circle cx="72.5" cy="492.5" r="2.5" fill="#FAFAFA" fill-opacity="0.05"/>
<circle cx="107.5" cy="492.5" r="2.5" fill="#FAFAFA" fill-opacity="0.05"/>
<circle cx="142.5" cy="492.5" r="2.5" fill="#FAFAFA" fill-opacity="0.05"/>
<circle cx="177.5" cy="492.5" r="2.5" fill="#FAFAFA" fill-opacity="0.05"/>
<circle cx="212.5" cy="492.5" r="2.5" fill="#FAFAFA" fill-opacity="0.05"/>
<circle cx="247.5" cy="492.5" r="2.5" fill="#FAFAFA" fill-opacity="0.05"/>
<circle cx="282.5" cy="492.5" r="2.5" fill="#FAFAFA" fill-opacity="0.05"/>
<circle cx="317.5" cy="492.5" r="2.5" fill="#FAFAFA" fill-opacity="0.05"/>
<circle cx="352.5" cy="492.5" r="2.5" fill="#FAFAFA" fill-opacity="0.05"/>
<circle cx="387.5" cy="492.5" r="2.5" fill="#FAFAFA" fill-opacity="0.05"/>
<circle cx="422.5" cy="492.5" r="2.5" fill="#FAFAFA" fill-opacity="0.05"/>
<circle cx="457.5" cy="492.5" r="2.5" fill="#FAFAFA" fill-opacity="0.05"/>
<circle cx="492.5" cy="492.5" r="2.5" fill="#FAFAFA" fill-opacity="0.05"/>
<circle cx="527.5" cy="492.5" r="2.5" fill="#FAFAFA" fill-opacity="0.05"/>
<circle cx="562.5" cy="492.5" r="2.5" fill="#FAFAFA" fill-opacity="0.05"/>
<circle cx="597.5" cy="492.5" r="2.5" fill="#FAFAFA" fill-opacity="0.05"/>
<circle cx="632.5" cy="492.5" r="2.5" fill="#FAFAFA" fill-opacity="0.05"/>
<circle cx="667.5" cy="492.5" r="2.5" fill="#FAFAFA" fill-opacity="0.05"/>
<circle cx="702.5" cy="492.5" r="2.5" fill="#FAFAFA" fill-opacity="0.05"/>
<circle cx="737.5" cy="492.5" r="2.5" fill="#FAFAFA" fill-opacity="0.05"/>
<circle cx="772.5" cy="492.5" r="2.5" fill="#FAFAFA" fill-opacity="0.05"/>
<circle cx="807.5" cy="492.5" r="2.5" fill="#FAFAFA" fill-opacity="0.05"/>
<circle cx="842.5" cy="492.5" r="2.5" fill="#FAFAFA" fill-opacity="0.05"/>
<circle cx="877.5" cy="492.5" r="2.5" fill="#FAFAFA" fill-opacity="0.05"/>
<circle cx="912.5" cy="492.5" r="2.5" fill="#FAFAFA" fill-opacity="0.05"/>
<circle cx="947.5" cy="492.5" r="2.5" fill="#FAFAFA" fill-opacity="0.05"/>
<circle cx="982.5" cy="492.5" r="2.5" fill="#FAFAFA" fill-opacity="0.05"/>
<circle cx="1017.5" cy="492.5" r="2.5" fill="#FAFAFA" fill-opacity="0.05"/>
<circle cx="2.5" cy="527.5" r="2.5" fill="#FAFAFA" fill-opacity="0.05"/>
<circle cx="37.5" cy="527.5" r="2.5" fill="#FAFAFA" fill-opacity="0.05"/>
<circle cx="72.5" cy="527.5" r="2.5" fill="#FAFAFA" fill-opacity="0.05"/>
<circle cx="107.5" cy="527.5" r="2.5" fill="#FAFAFA" fill-opacity="0.05"/>
<circle cx="142.5" cy="527.5" r="2.5" fill="#FAFAFA" fill-opacity="0.05"/>
<circle cx="177.5" cy="527.5" r="2.5" fill="#FAFAFA" fill-opacity="0.05"/>
<circle cx="212.5" cy="527.5" r="2.5" fill="#FAFAFA" fill-opacity="0.05"/>
<circle cx="247.5" cy="527.5" r="2.5" fill="#FAFAFA" fill-opacity="0.05"/>
<circle cx="282.5" cy="527.5" r="2.5" fill="#FAFAFA" fill-opacity="0.05"/>
<circle cx="317.5" cy="527.5" r="2.5" fill="#FAFAFA" fill-opacity="0.05"/>
<circle cx="352.5" cy="527.5" r="2.5" fill="#FAFAFA" fill-opacity="0.05"/>
<circle cx="387.5" cy="527.5" r="2.5" fill="#FAFAFA" fill-opacity="0.05"/>
<circle cx="422.5" cy="527.5" r="2.5" fill="#FAFAFA" fill-opacity="0.05"/>
<circle cx="457.5" cy="527.5" r="2.5" fill="#FAFAFA" fill-opacity="0.05"/>
<circle cx="492.5" cy="527.5" r="2.5" fill="#FAFAFA" fill-opacity="0.05"/>
<circle cx="527.5" cy="527.5" r="2.5" fill="#FAFAFA" fill-opacity="0.05"/>
<circle cx="562.5" cy="527.5" r="2.5" fill="#FAFAFA" fill-opacity="0.05"/>
<circle cx="597.5" cy="527.5" r="2.5" fill="#FAFAFA" fill-opacity="0.05"/>
<circle cx="632.5" cy="527.5" r="2.5" fill="#FAFAFA" fill-opacity="0.05"/>
<circle cx="667.5" cy="527.5" r="2.5" fill="#FAFAFA" fill-opacity="0.05"/>
<circle cx="702.5" cy="527.5" r="2.5" fill="#FAFAFA" fill-opacity="0.05"/>
<circle cx="737.5" cy="527.5" r="2.5" fill="#FAFAFA" fill-opacity="0.05"/>
<circle cx="772.5" cy="527.5" r="2.5" fill="#FAFAFA" fill-opacity="0.05"/>
<circle cx="807.5" cy="527.5" r="2.5" fill="#FAFAFA" fill-opacity="0.05"/>
<circle cx="842.5" cy="527.5" r="2.5" fill="#FAFAFA" fill-opacity="0.05"/>
<circle cx="877.5" cy="527.5" r="2.5" fill="#FAFAFA" fill-opacity="0.05"/>
<circle cx="912.5" cy="527.5" r="2.5" fill="#FAFAFA" fill-opacity="0.05"/>
<circle cx="947.5" cy="527.5" r="2.5" fill="#FAFAFA" fill-opacity="0.05"/>
<circle cx="982.5" cy="527.5" r="2.5" fill="#FAFAFA" fill-opacity="0.05"/>
<circle cx="1017.5" cy="527.5" r="2.5" fill="#FAFAFA" fill-opacity="0.05"/>
</svg>
