<svg width="50" height="50" viewBox="0 0 50 50" fill="none" xmlns="http://www.w3.org/2000/svg">
<rect width="50" height="50" rx="25" fill="url(#paint0_linear)"/>
<g clip-path="url(#clip0)">
<path d="M21.4164 28.473L21.0194 34.1644C21.5874 34.1644 21.8334 33.9157 22.1284 33.617L24.7914 31.0231L30.3094 35.1418C31.3214 35.7167 32.0344 35.4139 32.3074 34.1929L35.9294 16.8945L35.9304 16.8935C36.2514 15.3687 35.3894 14.7725 34.4034 15.1465L13.1134 23.4543C11.6604 24.0291 11.6824 24.8547 12.8664 25.2288L18.3094 26.9543L30.9524 18.8912C31.5474 18.4896 32.0884 18.7118 31.6434 19.1134L21.4164 28.473Z" fill="#FAFAFA"/>
</g>
<defs>
<linearGradient id="paint0_linear" x1="1.86265e-07" y1="50" x2="52.2774" y2="47.4932" gradientUnits="userSpaceOnUse">
<stop stop-color="#F7A800"/>
<stop offset="1" stop-color="#FFC316"/>
</linearGradient>
<clipPath id="clip0">
<rect width="24" height="24.4615" fill="white" transform="translate(12 13)"/>
</clipPath>
</defs>
</svg>
