<svg width="50" height="50" viewBox="0 0 50 50" fill="none" xmlns="http://www.w3.org/2000/svg">
<rect width="50" height="50" rx="25" fill="url(#paint0_linear)"/>
<g clip-path="url(#clip0)">
<path d="M37.5469 18.5172C37.7203 17.9312 37.5469 17.5 36.7125 17.5H33.9515C33.2484 17.5 32.925 17.8703 32.7515 18.2828C32.7515 18.2828 31.3453 21.7094 29.3578 23.9312C28.7156 24.5734 28.4203 24.7797 28.0687 24.7797C27.8953 24.7797 27.6281 24.5734 27.6281 23.9875V18.5172C27.6281 17.8141 27.4312 17.5 26.85 17.5H22.5093C22.0687 17.5 21.8062 17.8281 21.8062 18.1328C21.8062 18.7984 22.8 18.9531 22.9031 20.8281V24.8969C22.9031 25.7875 22.7437 25.9516 22.3922 25.9516C21.4547 25.9516 19.1765 22.5109 17.8265 18.5734C17.5546 17.8094 17.2875 17.5 16.5796 17.5H13.8187C13.0312 17.5 12.8718 17.8703 12.8718 18.2828C12.8718 19.0141 13.8093 22.6469 17.2359 27.4469C19.5187 30.7234 22.7343 32.5 25.6593 32.5C27.4172 32.5 27.6328 32.1062 27.6328 31.4266C27.6328 28.2953 27.4734 28 28.3547 28C28.7625 28 29.4656 28.2062 31.1062 29.7859C32.9812 31.6609 33.2906 32.5 34.3406 32.5H37.1016C37.8891 32.5 38.2875 32.1062 38.0578 31.3281C37.5328 29.6922 33.9844 26.3266 33.825 26.1016C33.4172 25.5766 33.5344 25.3422 33.825 24.8734C33.8297 24.8687 37.2 20.125 37.5469 18.5172Z" fill="white"/>
</g>
<defs>
<linearGradient id="paint0_linear" x1="1.86265e-07" y1="50" x2="52.2774" y2="47.4932" gradientUnits="userSpaceOnUse">
<stop stop-color="#F7A800"/>
<stop offset="1" stop-color="#FFC316"/>
</linearGradient>
<clipPath id="clip0">
<rect width="27" height="24" fill="white" transform="translate(12 13)"/>
</clipPath>
</defs>
</svg>
