<svg width="50" height="50" viewBox="0 0 50 50" fill="none" xmlns="http://www.w3.org/2000/svg">
<rect width="50" height="50" rx="25" fill="url(#paint0_linear)"/>
<g clip-path="url(#clip0)">
<path d="M21.4162 28.473L21.0192 34.1644C21.5872 34.1644 21.8332 33.9157 22.1282 33.617L24.7912 31.0231L30.3092 35.1418C31.3212 35.7167 32.0342 35.4139 32.3072 34.1929L35.9292 16.8945L35.9302 16.8935C36.2512 15.3687 35.3892 14.7725 34.4032 15.1465L13.1132 23.4543C11.6602 24.0291 11.6822 24.8547 12.8662 25.2288L18.3092 26.9543L30.9522 18.8912C31.5472 18.4896 32.0882 18.7118 31.6432 19.1134L21.4162 28.473Z" fill="#FAFAFA"/>
</g>
<defs>
<linearGradient id="paint0_linear" x1="1.86265e-07" y1="50" x2="52.2774" y2="47.4932" gradientUnits="userSpaceOnUse">
<stop stop-color="#0CB5AD"/>
<stop offset="1" stop-color="#0C7DB5"/>
</linearGradient>
<clipPath id="clip0">
<rect width="24" height="24.4615" fill="white" transform="translate(12 13)"/>
</clipPath>
</defs>
</svg>
