<svg width="50" height="50" viewBox="0 0 50 50" fill="none" xmlns="http://www.w3.org/2000/svg">
<rect width="50" height="50" rx="25" fill="url(#paint0_linear)"/>
<g clip-path="url(#clip0)">
<path d="M37.5471 18.5172C37.7205 17.9312 37.5471 17.5 36.7127 17.5H33.9518C33.2487 17.5 32.9252 17.8703 32.7518 18.2828C32.7518 18.2828 31.3455 21.7094 29.358 23.9312C28.7158 24.5734 28.4205 24.7797 28.069 24.7797C27.8955 24.7797 27.6283 24.5734 27.6283 23.9875V18.5172C27.6283 17.8141 27.4315 17.5 26.8502 17.5H22.5096C22.069 17.5 21.8065 17.8281 21.8065 18.1328C21.8065 18.7984 22.8002 18.9531 22.9033 20.8281V24.8969C22.9033 25.7875 22.744 25.9516 22.3924 25.9516C21.4549 25.9516 19.1768 22.5109 17.8268 18.5734C17.5549 17.8094 17.2877 17.5 16.5799 17.5H13.8189C13.0314 17.5 12.8721 17.8703 12.8721 18.2828C12.8721 19.0141 13.8096 22.6469 17.2361 27.4469C19.519 30.7234 22.7346 32.5 25.6596 32.5C27.4174 32.5 27.633 32.1062 27.633 31.4266C27.633 28.2953 27.4737 28 28.3549 28C28.7627 28 29.4658 28.2062 31.1065 29.7859C32.9815 31.6609 33.2909 32.5 34.3409 32.5H37.1018C37.8893 32.5 38.2877 32.1062 38.0581 31.3281C37.533 29.6922 33.9846 26.3266 33.8252 26.1016C33.4174 25.5766 33.5346 25.3422 33.8252 24.8734C33.8299 24.8687 37.2002 20.125 37.5471 18.5172Z" fill="white"/>
</g>
<defs>
<linearGradient id="paint0_linear" x1="1.86265e-07" y1="50" x2="52.2774" y2="47.4932" gradientUnits="userSpaceOnUse">
<stop stop-color="#0CB5AD"/>
<stop offset="1" stop-color="#0C7DB5"/>
</linearGradient>
<clipPath id="clip0">
<rect width="27" height="24" fill="white" transform="translate(12 13)"/>
</clipPath>
</defs>
</svg>
