<svg xmlns="http://www.w3.org/2000/svg" viewBox="0 0 1021.02 487.23">
  <defs>
    <style>
      .cls-1 {
        fill: #fff;
      }
    </style>
  </defs>
  <g id="Слой_2" data-name="Слой 2">
    <g id="Слой_1-2" data-name="Слой 1">
      <g>
        <g>
          <g>
            <path class="cls-1" d="M110.35,50.57q0,5-5.51,9.61-9.82,4-31.41,12.63,0-4.64,4.75-9Q87.14,60.07,110.35,50.57Zm0,16.2q0,5.17-5.4,9.82Q95,80.6,73.43,89.22q0-4.64,4.75-9Q87.14,76.48,110.35,66.77Z"/>
            <path class="cls-1" d="M73.3,89.41v-.19c0-3.12,1.61-6.16,4.79-9l0,0c6-2.55,16.86-7.09,32.17-13.5l.17-.07v.19c0,3.47-1.83,6.81-5.44,9.92l0,0L73.47,89.34Zm4.94-9c-3,2.78-4.62,5.69-4.69,8.67l31.33-12.56c3.48-3,5.27-6.2,5.34-9.52C95,73.32,84.26,77.83,78.24,80.37ZM73.3,73v-.19c0-3.11,1.61-6.16,4.79-9.05l0,0c6-2.52,16.8-7,32.17-13.28l.17-.07v.18c0,3.34-1.87,6.6-5.55,9.71l0,0C98.33,63,87.76,67.22,73.47,72.93Zm4.94-9c-3,2.78-4.62,5.69-4.69,8.67,14.19-5.67,24.69-9.9,31.23-12.56,3.54-3,5.37-6.12,5.44-9.31C95,57,84.21,61.45,78.24,64Z"/>
          </g>
          <g>
            <path class="cls-1" d="M178.19,5A12.22,12.22,0,0,0,168.36.13q-6.35,0-10.68,6.44a25.74,25.74,0,0,0-4.33,14.74c0,3.86,1,6.9,2.92,9.05s4.85,3.22,8.75,3.22a16,16,0,0,0,12.19-5.28,17.05,17.05,0,0,0,5-12A17.17,17.17,0,0,0,178.19,5Zm-4.33,17a11.58,11.58,0,0,1-4.51.77,21.47,21.47,0,0,1-8.11-1.2,5.35,5.35,0,0,1-3.56-5.28,8,8,0,0,1,1.94-5,5.93,5.93,0,0,1,4.75-2.43c1.94,0,4.33,1.23,7.13,3.69s4.2,4.66,4.2,6.69A2.76,2.76,0,0,1,173.86,22Z"/>
            <path class="cls-1" d="M165,33.71c-3.92,0-6.89-1.1-8.84-3.27s-3-5.24-3-9.13A25.9,25.9,0,0,1,157.58,6.5c2.9-4.31,6.52-6.5,10.78-6.5a12.43,12.43,0,0,1,9.92,4.93,17.37,17.37,0,0,1,4,11.4,17.23,17.23,0,0,1-5,12.06A16.18,16.18,0,0,1,165,33.71ZM168.36.25c-4.17,0-7.73,2.15-10.57,6.39a25.67,25.67,0,0,0-4.31,14.67c0,3.82,1,6.84,2.88,9s4.82,3.18,8.66,3.18a15.89,15.89,0,0,0,12.09-5.24,17,17,0,0,0,4.94-11.89,17.13,17.13,0,0,0-4-11.24h0A12,12,0,0,0,168.36.25Zm1,22.68a21.76,21.76,0,0,1-8.16-1.2,5.5,5.5,0,0,1-3.63-5.4,8.18,8.18,0,0,1,2-5.11,6.06,6.06,0,0,1,4.85-2.47c2,0,4.4,1.25,7.21,3.71s4.25,4.73,4.25,6.79a2.89,2.89,0,0,1-1.92,2.91A11.67,11.67,0,0,1,169.35,22.93ZM164.37,9a5.84,5.84,0,0,0-4.66,2.38,7.94,7.94,0,0,0-1.9,4.95,5.21,5.21,0,0,0,3.48,5.17,21.45,21.45,0,0,0,8.06,1.18,11.35,11.35,0,0,0,4.46-.75h0a2.66,2.66,0,0,0,1.77-2.68c0-2-1.4-4.2-4.17-6.6S166.29,9,164.37,9Z"/>
          </g>
          <g>
            <path class="cls-1" d="M256.58,216.71q0,5.17-5.61,9.93-9.72,3.78-31.31,12.41,0-4.63,4.75-9Q233.38,226.43,256.58,216.71Z"/>
            <path class="cls-1" d="M219.54,239.24v-.19c0-3.12,1.61-6.16,4.79-9.05l0,0c6-2.44,16.48-6.82,32.17-13.39l.17-.07v.19c0,3.47-1.9,6.85-5.66,10l0,0c-6.45,2.5-17,6.68-31.31,12.41Zm4.94-9c-3,2.78-4.63,5.69-4.69,8.67,14.23-5.69,24.7-9.84,31.12-12.34,3.61-3.07,5.48-6.31,5.55-9.63C240.89,223.41,230.42,227.77,224.48,230.2Z"/>
          </g>
          <g>
            <path class="cls-1" d="M245,147.74q-30-17.18-30-24.61c0-3.38,4.15-6,12.43-7.77a109.06,109.06,0,0,1,23.21-2.18,67.17,67.17,0,0,1,12.37,1,88.84,88.84,0,0,1,13.54,4.21l4.54-3.9a44.29,44.29,0,0,0-14.7-17.8q-10.87-7.87-22.87-7.89a45,45,0,0,0-31.16,12.06Q199,112.85,199,129a32.4,32.4,0,0,0,1.84,11.26,66.56,66.56,0,0,0,7.22,13.11q-3.13.22-6.36.65c-1,.09-2.55.12-4.63.12h-4.24L181.07,87.27l3.87,1.51A81,81,0,0,0,189.21,77a96.66,96.66,0,0,0,2.85-13.51c-5.8-2.42-10.07-4.66-12.74-6.69q-4.51-3.32-4.51-6.91c.28-1.87.43-3,.43-3.43l-5-2.61a116.61,116.61,0,0,0-8.41,19.55,44.8,44.8,0,0,0-2,12.83l6.94,4.55,13,73.3H140.74q-1.29-12.39-8.23-26.68-8.05-16.62-13.6-16.6c-4,0-8.78,2.61-14.46,7.89a67.42,67.42,0,0,0-15.74,22.56,17.72,17.72,0,0,1-10.16,10.46c-3.81,1.57-9,2.37-15.44,2.37h-29c-3.47,0-6-2.33-7.55-7q-3-8.7-3-31.28V94.52q0-15.24-2.92-25A56.68,56.68,0,0,0,11.81,52.4L.15,79.38c3.41,3.53,5.55,6.23,6.47,8.11,2,3.9,2.92,9.33,2.92,16.3v30.75q0,27.12,6.26,38.56,5.63,10.36,18.27,10.37h29a41.93,41.93,0,0,0,12.09-1.41q9.17-2.9,15.44-12.31a132.72,132.72,0,0,0,23.76,9.18,110.65,110.65,0,0,0,19.06,4v.58H195.1a116.62,116.62,0,0,0,16.73-1.19,276.28,276.28,0,0,0,27.87-5.83q19-4.84,48-13.82L299.84,132Zm-126.5,4.52c-.7,0-4-1.08-9.82-3.23-1.93-.73-4.79-1.81-8.53-3.25,2-6.48,4.32-9.7,7.15-9.7,2.52,0,5.49,2.15,8.93,6.48,3.1,3.86,4.67,6.6,4.67,8.19C120.88,151.77,120.08,152.26,118.48,152.26Z"/>
            <path class="cls-1" d="M195.1,183.6H133.34V183a111,111,0,0,1-19-3.95,133.28,133.28,0,0,1-23.69-9.13c-4.16,6.21-9.36,10.34-15.44,12.26a42.15,42.15,0,0,1-12.13,1.42h-29c-8.44,0-14.62-3.51-18.38-10.44-4.16-7.6-6.27-20.59-6.27-38.62V103.79c0-7-1-12.42-2.91-16.25C5.59,85.67,3.42,83,.06,79.47L0,79.41l0-.08L11.79,52.15l.12.18a57.13,57.13,0,0,1,8.77,17.1c1.94,6.56,2.92,15,2.92,25.09v21.27c0,15,1,25.48,3,31.24,1.54,4.61,4,6.94,7.44,6.94h29c6.41,0,11.59-.79,15.39-2.35a17.64,17.64,0,0,0,10.09-10.4,67.93,67.93,0,0,1,15.78-22.61c5.65-5.25,10.55-7.92,14.54-7.92,3.74,0,8.35,5.61,13.71,16.68,4.59,9.41,7.36,18.36,8.23,26.6h38.88l-13-73.1-6.95-4.55v-.07a45,45,0,0,1,2-12.86,117.83,117.83,0,0,1,8.42-19.58l.06-.11,5.15,2.7v.08c0,.44-.16,1.6-.44,3.45,0,2.33,1.51,4.62,4.47,6.79,2.65,2,6.93,4.26,12.71,6.68l.09,0v.09a98.68,98.68,0,0,1-2.86,13.52,81,81,0,0,1-4.28,11.78l-.05.11-3.77-1.47,11.7,66.5h4.14c2.27,0,3.69,0,4.62-.12,2.06-.26,4.13-.48,6.14-.63a66.69,66.69,0,0,1-7.11-12.95A33,33,0,0,1,198.87,129c0-10.71,4.5-20.2,13.37-28.21a45.31,45.31,0,0,1,31.24-12.1c8,0,15.69,2.66,22.94,7.91a44.75,44.75,0,0,1,14.75,17.86l0,.08-4.67,4-.07,0A87.23,87.23,0,0,0,263,114.29a66,66,0,0,0-12.35-1,109.54,109.54,0,0,0-23.18,2.17c-8.18,1.76-12.33,4.33-12.33,7.65,0,4.88,10.06,13.12,29.91,24.48l55.05-15.83-12.21,30.95-.06,0c-20.09,6.18-35.81,10.7-48,13.82a271.89,271.89,0,0,1-27.88,5.83A116.91,116.91,0,0,1,195.1,183.6Zm-61.51-.25H195.1a116.25,116.25,0,0,0,16.71-1.2,269,269,0,0,0,27.86-5.83c12.22-3.11,27.92-7.62,48-13.79l12-30.37L245,147.88l-.05,0c-20.24-11.58-30.08-19.67-30.08-24.72,0-3.45,4.21-6.11,12.53-7.89a109.26,109.26,0,0,1,23.23-2.18A67.14,67.14,0,0,1,263,114a88.11,88.11,0,0,1,13.49,4.18l4.42-3.78a44.38,44.38,0,0,0-14.63-17.67c-7.2-5.22-14.87-7.87-22.79-7.87a45.09,45.09,0,0,0-31.07,12c-8.82,8-13.29,17.39-13.29,28A32.48,32.48,0,0,0,201,140.18a67,67,0,0,0,7.2,13.08l.12.18-.22,0c-2.07.15-4.21.36-6.34.64-.94.09-2.37.12-4.65.12h-4.35v-.1l-11.8-67,4,1.54A81.62,81.62,0,0,0,189.09,77a99.82,99.82,0,0,0,2.84-13.39c-5.76-2.41-10-4.65-12.68-6.67-3-2.22-4.56-4.58-4.56-7,.25-1.71.41-2.88.42-3.36L170.32,44A116.7,116.7,0,0,0,162,63.46a44.44,44.44,0,0,0-2,12.72l6.92,4.54v0L180,154.22h-39.4v-.11c-.85-8.24-3.62-17.2-8.21-26.63-5.32-11-9.86-16.54-13.49-16.54-3.93,0-8.76,2.64-14.37,7.86a67.69,67.69,0,0,0-15.72,22.52,17.83,17.83,0,0,1-10.23,10.53c-3.82,1.57-9,2.37-15.48,2.37h-29c-3.52,0-6.1-2.39-7.67-7.11-2-5.79-3-16.32-3-31.32V94.52c0-10.07-1-18.49-2.91-25a56.81,56.81,0,0,0-8.6-16.85L.3,79.36c3.34,3.47,5.51,6.19,6.44,8.07,2,3.91,2.93,9.26,2.93,16.36v30.75c0,18,2.1,30.94,6.24,38.5,3.71,6.84,9.82,10.31,18.16,10.31h29a41.59,41.59,0,0,0,12-1.41c6.06-1.91,11.23-6,15.38-12.26l.06-.09.1,0a132.16,132.16,0,0,0,23.74,9.17,111.21,111.21,0,0,0,19,4h.11Zm-15.11-31c-.72,0-4-1.09-9.86-3.23l-1.8-.68-6.74-2.57-.11-.05,0-.11c2-6.58,4.37-9.79,7.27-9.79,2.55,0,5.59,2.2,9,6.53,3.16,3.94,4.69,6.64,4.69,8.27C121,151.83,120.15,152.38,118.48,152.38Zm-18.2-6.67,6.62,2.52,1.8.69c7.22,2.65,9.3,3.21,9.78,3.21,1.53,0,2.27-.45,2.27-1.38,0-1.54-1.56-4.28-4.64-8.12-3.39-4.26-6.36-6.43-8.83-6.43C104.56,136.2,102.21,139.4,100.28,145.71Z"/>
          </g>
          <g>
            <g>
              <path class="cls-1" d="M436.74,239.28l-8.41,9.7-11.88-7.55-10.13,12.95,13.6,7.55,8.41-9.05L439.78,260l10.56-12.09Z"/>
              <path class="cls-1" d="M420,262.09l-.09,0-13.73-7.62.09-.11,10.2-13.05.1.06,11.79,7.5,8.41-9.7.09.06,13.72,8.7-.09.11-10.63,12.17-.09-.05L428.35,253Zm-13.44-7.74,13.39,7.43,8.41-9.06,11.45,7.12,10.39-11.91-13.38-8.49-8.41,9.7-11.88-7.54Z"/>
            </g>
            <g>
              <path class="cls-1" d="M555,155.3v28.17h-71c-3.26,0-5.56.07-7,.22s-2.12.61-2.12,1.38a22.64,22.64,0,0,0,5.89,2.55,6.48,6.48,0,0,1,3.63,1.84,6.19,6.19,0,0,1,.86,3.62c0,5.1-1.48,11.21-4.39,18.3s-5.77,11.48-8.57,13.2q-4,3.36-23.7,7.73t-33.95,4.36q-20.3,0-32.81-8.41t-12.52-22a59.9,59.9,0,0,1,5.49-25.17q6.67-14.46,24.71-36.59l6.48,4.54q-11.32,13.72-15.69,22.35A37.33,37.33,0,0,0,386,188.32q0,11.56,9.58,17.1c6.35,3.72,16.21,5.56,29.5,5.56q10.37,0,28.73-3.78c12.22-2.51,18.36-4.69,18.36-6.57,0-.86-2.34-1.65-7-2.39a103.21,103.21,0,0,0-15.44-1.07c-8.2,0-12.31-1.78-12.31-5.41,0-1.65,1-4.6,2.91-8.84q2.08-4.41,4.21-8.84,4-9,15.29-14.49a53.39,53.39,0,0,1,23.6-5.49h60.84a33.73,33.73,0,0,0-4.33-12.4,77.55,77.55,0,0,0-7.55-9.73l8.63-25.7a51.24,51.24,0,0,1,11.08,19.22Q555,135.53,555,155.3Z"/>
              <path class="cls-1" d="M414.73,236.8c-13.5,0-24.56-2.84-32.88-8.44s-12.58-13.05-12.58-22.11A60.1,60.1,0,0,1,374.78,181c4.39-9.52,12.71-21.84,24.72-36.62l.08-.09,6.68,4.69-.09.1c-7.5,9.1-12.78,16.61-15.67,22.33a37.28,37.28,0,0,0-4.37,16.88c0,7.64,3.2,13.35,9.51,17s16.19,5.54,29.44,5.54c6.86,0,16.52-1.27,28.71-3.77S472,202.42,472,200.63c0-.54-1.2-1.37-6.92-2.27a104,104,0,0,0-15.42-1.07c-8.37,0-12.44-1.81-12.44-5.53,0-1.67,1-4.57,2.93-8.89,1.37-2.93,2.8-5.9,4.18-8.78l0-.06c2.66-6,7.82-10.87,15.34-14.55A53.86,53.86,0,0,1,483.4,154h60.69a33.64,33.64,0,0,0-4.28-12.21,79,79,0,0,0-7.54-9.71l0-.06,0-.06,8.69-25.9.14.16a51.41,51.41,0,0,1,11.11,19.26c2,6.68,2.95,16.72,2.95,29.85v28.3H484.05c-3.4,0-5.61.07-7,.21-.89.08-1.95.35-2,1.19a22.91,22.91,0,0,0,5.79,2.5c1.88.47,3.09,1.08,3.7,1.88a6.34,6.34,0,0,1,.88,3.7c0,5.08-1.48,11.25-4.4,18.35s-5.8,11.53-8.61,13.25c-2.66,2.24-10.66,4.85-23.74,7.76S424.24,236.8,414.73,236.8Zm-15.11-92.14c-11.95,14.72-20.24,27-24.62,36.47a60.08,60.08,0,0,0-5.48,25.12c0,9,4.2,16.34,12.47,21.91s19.29,8.39,32.74,8.39c9.49,0,20.91-1.47,33.93-4.36s21-5.49,23.64-7.71c2.78-1.71,5.64-6.13,8.53-13.15s4.38-13.21,4.38-18.25a6.09,6.09,0,0,0-.83-3.54,6.4,6.4,0,0,0-3.56-1.8,22.69,22.69,0,0,1-5.92-2.56l-.06,0v-.07c0-.6.38-1.34,2.23-1.5,1.35-.15,3.57-.22,7-.22h70.84v-28c0-13.11-1-23.13-2.94-29.78a51.07,51.07,0,0,0-10.91-19l-8.54,25.42a76.82,76.82,0,0,1,7.52,9.7,34,34,0,0,1,4.35,12.44l0,.14h-61a53.48,53.48,0,0,0-23.55,5.49c-7.46,3.65-12.59,8.51-15.23,14.42l0,.07c-1.38,2.88-2.8,5.85-4.17,8.78-2,4.28-2.91,7.15-2.91,8.78,0,3.5,4.1,5.28,12.19,5.28a103.25,103.25,0,0,1,15.46,1.08c6.39,1,7.13,1.91,7.13,2.51,0,2-6,4.14-18.45,6.7-12.2,2.5-21.88,3.77-28.76,3.77-13.29,0-23.24-1.87-29.56-5.57s-9.64-9.48-9.64-17.21a37.55,37.55,0,0,1,4.4-17c2.89-5.71,8.14-13.2,15.62-22.26Z"/>
            </g>
          </g>
          <g>
            <path class="cls-1" d="M539.48,216.71q0,5.17-5.61,9.93-9.72,3.78-31.31,12.41,0-4.63,4.75-9Q516.27,226.43,539.48,216.71Z"/>
            <path class="cls-1" d="M502.44,239.24v-.19c0-3.12,1.61-6.16,4.79-9.05l0,0c6-2.44,16.49-6.82,32.17-13.39l.18-.07v.19c0,3.47-1.91,6.85-5.66,10l0,0c-6.47,2.51-17,6.69-31.3,12.41Zm4.94-9c-3.05,2.78-4.63,5.69-4.69,8.67,14.2-5.68,24.66-9.83,31.11-12.34,3.62-3.07,5.49-6.31,5.55-9.63C523.78,223.41,513.32,227.77,507.38,230.2Z"/>
          </g>
          <g>
            <path class="cls-1" d="M530.52,52.52,517.44,76.93,542.71,90.1l12.95-24.19Z"/>
            <path class="cls-1" d="M542.76,90.26l-.11-.05L517.27,77l.06-.11,13.14-24.52.11.06,25.25,13.45-.06.11ZM517.61,76.88l25,13.05,12.83-24L530.57,52.69Z"/>
          </g>
          <g>
            <path class="cls-1" d="M605.43,44a17.06,17.06,0,0,1-5,12,16.11,16.11,0,0,1-12.2,5.29q-5.84,0-8.74-3.24t-2.92-9.07a25.82,25.82,0,0,1,4.32-14.74q4.32-6.42,10.69-6.42a12.26,12.26,0,0,1,9.82,4.86A17.34,17.34,0,0,1,605.43,44ZM599,46.87c0-2-1.41-4.25-4.21-6.69s-5.18-3.68-7.13-3.68a5.89,5.89,0,0,0-4.75,2.43,8,8,0,0,0-1.94,5,5.34,5.34,0,0,0,3.56,5.29,21.41,21.41,0,0,0,8.1,1.19,12,12,0,0,0,4.53-.75A2.79,2.79,0,0,0,599,46.87Z"/>
            <path class="cls-1" d="M588.26,61.35c-3.9,0-6.88-1.1-8.84-3.28s-2.94-5.25-2.94-9.15a26.06,26.06,0,0,1,4.34-14.81c2.89-4.3,6.52-6.47,10.79-6.47a12.46,12.46,0,0,1,9.92,4.9,17.51,17.51,0,0,1,4,11.41,17.22,17.22,0,0,1-5,12.07A16.25,16.25,0,0,1,588.26,61.35Zm3.35-33.46c-4.19,0-7.75,2.14-10.59,6.36a25.8,25.8,0,0,0-4.29,14.67c0,3.84,1,6.86,2.88,9s4.82,3.2,8.65,3.2a16.05,16.05,0,0,0,12.11-5.25A17,17,0,0,0,605.3,44a17.22,17.22,0,0,0-4-11.25A12.15,12.15,0,0,0,591.61,27.89Zm1,22.67a21.91,21.91,0,0,1-8.15-1.2A5.48,5.48,0,0,1,580.8,44a8.14,8.14,0,0,1,2-5.1,6,6,0,0,1,4.84-2.47c2,0,4.39,1.25,7.21,3.7s4.25,4.75,4.25,6.79a2.9,2.9,0,0,1-1.91,2.92A12.08,12.08,0,0,1,592.58,50.56Zm-5-13.93A5.78,5.78,0,0,0,583,39,7.87,7.87,0,0,0,581.05,44a5.25,5.25,0,0,0,3.48,5.18,21.56,21.56,0,0,0,8.05,1.18,12,12,0,0,0,4.48-.75,2.65,2.65,0,0,0,1.76-2.69c0-2-1.4-4.19-4.16-6.6S589.51,36.63,587.61,36.63Z"/>
          </g>
          <g>
            <path class="cls-1" d="M630.83,183.46h-48.9q-7.12,0-10.9-3-4.65-3.67-4.65-12,0-4.76.49-10.26t1.46-11.12l4.1-.21a8.07,8.07,0,0,0,3.83,5.5,14.06,14.06,0,0,0,7.18,1.73h37.14q-2.49-15.87-8.64-25.37a45.11,45.11,0,0,0-14.14-13.6l7.77-33.68a56.34,56.34,0,0,1,19.86,27q5.4,15.22,5.4,40.38Z"/>
            <path class="cls-1" d="M631,183.59h-49c-4.76,0-8.45-1-11-3.05-3.11-2.46-4.69-6.52-4.69-12.08,0-3.16.16-6.61.49-10.27s.81-7.4,1.45-11.13l0-.1,4.31-.22,0,.1a8,8,0,0,0,3.77,5.42,14,14,0,0,0,7.12,1.71h37c-1.65-10.45-4.54-18.92-8.6-25.17a45.1,45.1,0,0,0-14.1-13.57l-.07,0,0-.09,7.81-33.87.15.12a56.71,56.71,0,0,1,19.91,27c3.59,10.12,5.41,23.72,5.41,40.42ZM568.43,147.2c-.63,3.69-1.12,7.39-1.44,11s-.48,7.1-.48,10.25c0,5.48,1.54,9.47,4.59,11.88,2.49,2,6.13,3,10.83,3h48.78V148.81c0-16.67-1.82-30.24-5.39-40.33a56.52,56.52,0,0,0-19.67-26.82l-7.71,33.41A45.37,45.37,0,0,1,612,128.66c4.09,6.32,7,14.87,8.66,25.42l0,.14H583.44a14.16,14.16,0,0,1-7.24-1.74,8.21,8.21,0,0,1-3.87-5.48Z"/>
          </g>
          <g>
            <path class="cls-1" d="M720.71,235.13q0,5.18-5.61,9.93-9.72,3.76-31.31,12.41,0-4.64,4.75-9Q697.51,244.84,720.71,235.13Z"/>
            <path class="cls-1" d="M683.67,257.66v-.19c0-3.12,1.61-6.16,4.79-9.05l0,0c5.93-2.44,16.75-6.94,32.17-13.39l.17-.07v.18c0,3.48-1.9,6.86-5.66,10l0,0c-6.48,2.52-16.72,6.58-31.31,12.42Zm4.94-9c-3.05,2.77-4.63,5.69-4.69,8.67,14.49-5.8,24.66-9.83,31.12-12.34,3.61-3.07,5.48-6.31,5.55-9.64C705.28,241.72,694.53,246.19,688.61,248.62Z"/>
          </g>
          <g>
            <path class="cls-1" d="M726.58,186q0,6.59-7.56,17.43a87.67,87.67,0,0,1-17.7,18.84q-11.24,8.85-19.22,8.85-9.5,0-20.4-5.4Q652.19,221,632,207.1l4.53-6.69q9.72,6.48,15.66,8.75A35.7,35.7,0,0,0,665,211.42a30,30,0,0,0,14.9-4.21q7.45-4.2,20.29-15.65,17.92-16,17.93-24.61,0-4.32-3.46-11.34a45.27,45.27,0,0,0-9.5-13.28l6-29.15a53.83,53.83,0,0,1,11.33,17.39,58.93,58.93,0,0,1,4,22.34ZM721.07,75.29l-13,24.18L682.86,86.3,695.7,61.91Z"/>
            <path class="cls-1" d="M682.1,231.2c-6.32,0-13.21-1.82-20.46-5.42-6.31-3.08-16.31-9.33-29.7-18.57l-.1-.07.07-.11,4.6-6.79.1.07c6.44,4.29,11.7,7.23,15.63,8.73A35.74,35.74,0,0,0,665,211.3a30,30,0,0,0,14.84-4.2c4.93-2.78,11.75-8,20.27-15.63C712,180.89,718,172.64,718,167c0-2.85-1.16-6.64-3.44-11.28a45.23,45.23,0,0,0-9.47-13.25l0,0v-.07l6.09-29.38.17.17a54.21,54.21,0,0,1,11.36,17.42,59.43,59.43,0,0,1,4,22.39v33c0,4.39-2.55,10.28-7.58,17.5a87.94,87.94,0,0,1-17.73,18.87C693.92,228.21,687.42,231.2,682.1,231.2Zm-49.92-24.13c13.34,9.2,23.28,15.42,29.57,18.49C669,229.13,675.82,231,682.1,231c5.27,0,11.71-3,19.14-8.83a88.15,88.15,0,0,0,17.68-18.81c5-7.18,7.53-13,7.53-17.36v-33a59,59,0,0,0-4-22.3,53.89,53.89,0,0,0-11.14-17.17l-6,28.85a45.46,45.46,0,0,1,9.47,13.27c2.3,4.67,3.47,8.5,3.47,11.39,0,5.76-6,14.08-18,24.7-8.53,7.6-15.37,12.87-20.32,15.67a30.23,30.23,0,0,1-15,4.23,36,36,0,0,1-12.89-2.28c-3.93-1.5-9.17-4.42-15.57-8.69Zm76-107.43-.11,0L682.69,86.36l.06-.11,12.9-24.51.11.06,25.48,13.44-.06.11ZM683,86.25l25,13.06,12.84-24L695.75,62.08Z"/>
          </g>
          <g>
            <path class="cls-1" d="M832,231.44q0,5.19-5.61,9.93-9.72,3.78-31.31,12.42,0-4.65,4.75-9Q808.75,241.15,832,231.44Z"/>
            <path class="cls-1" d="M794.91,254v-.18c0-3.12,1.62-6.17,4.79-9.06l0,0c5.93-2.43,16.76-6.93,32.17-13.38l.17-.08v.19c0,3.48-1.9,6.85-5.65,10l0,0c-6.43,2.5-17,6.68-31.3,12.41Zm5-9c-3.05,2.78-4.63,5.7-4.69,8.67,14.24-5.7,24.7-9.85,31.11-12.34,3.62-3.06,5.48-6.3,5.55-9.63C816.53,238,805.77,242.51,799.86,244.93Z"/>
          </g>
          <g>
            <path class="cls-1" d="M858.54,57.64q0,8.08-2.81,13.27-3.13,5.84-8.64,5.83a9.55,9.55,0,0,1-3.56-.64A20,20,0,0,1,839.86,74a28.56,28.56,0,0,1-4.21,5.83q-3.45,3.47-7.23,3.46a7.9,7.9,0,0,1-6.8-3.08q-2.26-3.07-2.27-8.47a20.13,20.13,0,0,1,.76-5.51,58.48,58.48,0,0,1,2.15-6.15l2.27-1c0,.57-.07,1.51-.21,2.8a29,29,0,0,0-.22,3.24,9.16,9.16,0,0,0,1,4.27A3.12,3.12,0,0,0,828,71.35q4.63,0,7.44-6a68.11,68.11,0,0,0,3.24-10.9l2.27-.65a35.6,35.6,0,0,0,1.4,6.48q1.3,3.35,4.32,3.34c2.74,0,4.89-1.8,6.48-5.39a21.71,21.71,0,0,0,1.94-9l2.27-.65q.43,2,.81,4.59A31.07,31.07,0,0,1,858.54,57.64Z"/>
            <path class="cls-1" d="M828.42,83.45a8.06,8.06,0,0,1-6.9-3.12c-1.52-2.07-2.3-4.94-2.3-8.55a20.3,20.3,0,0,1,.77-5.54,56.8,56.8,0,0,1,2.16-6.17l0,0,0,0,2.45-1v.19c0,.57-.08,1.49-.22,2.82a30.63,30.63,0,0,0-.22,3.22,9.19,9.19,0,0,0,1,4.21A3,3,0,0,0,828,71.22c3,0,5.49-2,7.33-6a69.77,69.77,0,0,0,3.23-10.88l0-.07,2.47-.71,0,.14a35,35,0,0,0,1.4,6.44c.85,2.21,2.23,3.28,4.2,3.28,2.67,0,4.81-1.79,6.36-5.33a21.44,21.44,0,0,0,1.94-8.9v-.1l2.48-.71,0,.13c.29,1.39.56,2.94.81,4.6a31.33,31.33,0,0,1,.38,4.5c0,5.39-.95,9.88-2.82,13.33-2.1,3.91-5,5.9-8.75,5.9a9.62,9.62,0,0,1-3.61-.66,19.3,19.3,0,0,1-3.58-2A29,29,0,0,1,835.74,80C833.42,82.28,831,83.45,828.42,83.45Zm-6.06-23.24a59.06,59.06,0,0,0-2.13,6.1,20.12,20.12,0,0,0-.76,5.47c0,3.55.76,6.38,2.25,8.4a7.8,7.8,0,0,0,6.7,3c2.47,0,4.87-1.15,7.14-3.41A28.85,28.85,0,0,0,839.75,74l.07-.12.11.08a19.34,19.34,0,0,0,3.65,2,9.49,9.49,0,0,0,3.51.64c3.61,0,6.48-1.94,8.53-5.77,1.85-3.42,2.79-7.86,2.79-13.21a30.94,30.94,0,0,0-.38-4.47c-.23-1.6-.5-3.1-.78-4.44l-2,.58a21.9,21.9,0,0,1-2,8.92c-1.59,3.63-3.81,5.47-6.59,5.47-2.06,0-3.55-1.16-4.43-3.43a34.5,34.5,0,0,1-1.39-6.36l-2.06.59a69.81,69.81,0,0,1-3.23,10.85c-1.89,4.06-4.43,6.12-7.56,6.12a3.25,3.25,0,0,1-3-2,9.38,9.38,0,0,1-1-4.32,31.14,31.14,0,0,1,.22-3.25c.13-1.18.2-2,.21-2.6Z"/>
          </g>
          <g>
            <path class="cls-1" d="M925.17,183.46H834.59q-13.07,0-17.32-.43a37.55,37.55,0,0,1-9.23-2.27q-8.87-3-14.58-12.3a38.76,38.76,0,0,1-5.72-20.73,64.91,64.91,0,0,1,.43-7.93,60.88,60.88,0,0,1,1.73-8.26,66.91,66.91,0,0,1,4.1-11.77,96.21,96.21,0,0,1,8-12.85l6,4.32a92.46,92.46,0,0,0-6.32,13.5,30.47,30.47,0,0,0-1.67,9.82A17.23,17.23,0,0,0,804,145.63a18.21,18.21,0,0,0,10.31,6.42,63.27,63.27,0,0,0,9.87,1.51q6.11.54,12.8.54h78a89,89,0,0,0-5-11.66A81.34,81.34,0,0,0,902.71,132l9.72-25q8.09,11.55,10.58,21.16,2.15,8.43,2.16,24.83ZM883,206.24l-13,24.18-25-13.6,12.95-24.61Z"/>
            <path class="cls-1" d="M870.05,230.59l-.11-.06-25.15-13.66.06-.11,13-24.72,25.26,14.15,0,.11Zm-24.93-13.82L870,230.25l12.84-24L858,192.38Zm80.17-33.18h-90.7c-8.67,0-14.5-.15-17.34-.43a38.49,38.49,0,0,1-9.26-2.28c-5.9-2-10.82-6.17-14.63-12.36a39,39,0,0,1-5.74-20.79,65.37,65.37,0,0,1,.43-7.95,60.19,60.19,0,0,1,1.73-8.28,67,67,0,0,1,4.11-11.78,96.22,96.22,0,0,1,8-12.87l.07-.1.1.07,6.14,4.38-.05.1a92.75,92.75,0,0,0-6.31,13.48,30.42,30.42,0,0,0-1.67,9.78,17.19,17.19,0,0,0,3.92,11,18.19,18.19,0,0,0,10.24,6.38,63.47,63.47,0,0,0,9.86,1.5c4,.36,8.32.54,12.78.54h77.87a87.87,87.87,0,0,0-4.9-11.47,81.45,81.45,0,0,0-7.33-10.45l0-.06,0-.07,9.79-25.26.14.19c5.38,7.68,8.94,14.81,10.6,21.2,1.43,5.61,2.16,14,2.16,24.86ZM802,107.1a95,95,0,0,0-7.9,12.72,67.17,67.17,0,0,0-4.1,11.75,59.58,59.58,0,0,0-1.72,8.24,64.85,64.85,0,0,0-.43,7.92,38.8,38.8,0,0,0,5.7,20.66c3.78,6.14,8.66,10.26,14.51,12.26a38.33,38.33,0,0,0,9.2,2.26c2.82.28,8.65.43,17.31.43H925V152.91c0-10.87-.72-19.21-2.16-24.8-1.63-6.31-5.13-13.35-10.42-20.92L902.85,132a79.92,79.92,0,0,1,7.31,10.43,89.94,89.94,0,0,1,5,11.68l.06.16H837c-4.47,0-8.77-.18-12.81-.54a62.78,62.78,0,0,1-9.89-1.51,18.4,18.4,0,0,1-10.38-6.47,17.43,17.43,0,0,1-4-11.14,31,31,0,0,1,1.68-9.86,92.88,92.88,0,0,1,6.27-13.42Z"/>
          </g>
          <g>
            <path class="cls-1" d="M995.51,67.24q0,5-5.4,9.61-9.93,4-31.52,12.74,0-4.86,4.42-9.07Q972.3,76.74,995.51,67.24Z"/>
            <path class="cls-1" d="M958.46,89.78v-.19c0-3.26,1.51-6.34,4.47-9.16l0,0c6.29-2.56,17.22-7,32.49-13.28l.17-.07v.18c0,3.34-1.83,6.6-5.44,9.71l0,0c-6.62,2.66-17.23,7-31.52,12.74Zm4.62-9.15c-2.84,2.71-4.31,5.66-4.36,8.77l31.33-12.66c3.47-3,5.26-6.12,5.33-9.31C980.22,73.64,969.35,78.08,963.08,80.63Z"/>
          </g>
          <g>
            <path class="cls-1" d="M1020.89,186q0,6.59-7.55,17.43a87.47,87.47,0,0,1-17.71,18.84q-11.22,8.85-19.21,8.85-9.51,0-20.41-5.4-9.5-4.63-29.68-18.57l4.53-6.69q9.72,6.48,15.65,8.75a35.75,35.75,0,0,0,12.85,2.26,30,30,0,0,0,14.9-4.21q7.44-4.2,20.29-15.65,17.93-16,17.92-24.61,0-4.32-3.45-11.34a45.27,45.27,0,0,0-9.5-13.28l6-29.15a53.86,53.86,0,0,1,11.34,17.39,58.93,58.93,0,0,1,4,22.34Z"/>
            <path class="cls-1" d="M976.42,231.2c-6.33,0-13.21-1.82-20.46-5.42-6.32-3.08-16.31-9.33-29.71-18.57l-.1-.07.07-.11,4.61-6.79.1.07c6.44,4.29,11.7,7.23,15.63,8.73a35.7,35.7,0,0,0,12.8,2.26,30,30,0,0,0,14.84-4.2c4.93-2.78,11.75-8,20.27-15.63,11.86-10.58,17.88-18.83,17.88-24.52,0-2.85-1.16-6.64-3.44-11.28a45.25,45.25,0,0,0-9.48-13.25l0,0,0-.07,6.09-29.38.16.17A53.88,53.88,0,0,1,1017,130.52a59.23,59.23,0,0,1,4,22.39v33c0,4.39-2.55,10.28-7.58,17.5a88.19,88.19,0,0,1-17.73,18.87C988.23,228.21,981.74,231.2,976.42,231.2ZM926.5,207.07c13.33,9.2,23.28,15.42,29.57,18.49,7.22,3.57,14.06,5.39,20.35,5.39,5.26,0,11.7-3,19.14-8.83a87.85,87.85,0,0,0,17.67-18.81c5-7.18,7.54-13,7.54-17.36v-33a59,59,0,0,0-4-22.3,53.89,53.89,0,0,0-11.14-17.17l-6,28.85a45.46,45.46,0,0,1,9.47,13.27c2.3,4.67,3.47,8.5,3.47,11.39,0,5.76-6.05,14.08-18,24.7-8.53,7.6-15.36,12.88-20.31,15.67a30.23,30.23,0,0,1-15,4.23,36,36,0,0,1-12.89-2.28c-3.93-1.5-9.17-4.42-15.58-8.69Z"/>
          </g>
        </g>
        <g>
          <g>
            <path class="cls-1" d="M56.66,334l-13,24.4,25.27,13.17,13-24.16Z"/>
            <path class="cls-1" d="M68.93,371.72l-.11-.06L43.44,358.44l13.17-24.63L82,347.34l-.06.11ZM43.78,358.33l25,13.05,12.83-23.93-24.95-13.3Z"/>
          </g>
          <g>
            <path class="cls-1" d="M156,445.62l-9.08,17.5-16-8-11.24,21,20.08,11,8.62-17,15.35,8.62,11.88-22Z"/>
            <path class="cls-1" d="M139.84,487.23l-.11-.06-20.19-11.05,11.35-21.18,16,8,9.09-17.5.12.06,19.75,11.08-.06.11-11.94,22.12-.11-.06-15.24-8.56Zm-20-11.21,19.85,10.87,8.63-17,.11.07,15.24,8.56,11.76-21.79-19.42-10.9L147,463.29l-.11-.06-15.85-8Z"/>
          </g>
          <g>
            <path class="cls-1" d="M260.58,381.59Q252.51,365,247,365c-4,0-8.78,2.61-14.46,7.89a67.64,67.64,0,0,0-15.75,22.56,17.68,17.68,0,0,1-10.16,10.47c-3.8,1.57-9,2.37-15.44,2.37H177.36q-.09-18.88-3-28.61a50.54,50.54,0,0,0-11-19.22l-8.66,25.69a85.35,85.35,0,0,1,7.59,9.73,33.77,33.77,0,0,1,4.29,12.41H117.32q-.28-12.81-3.23-21.37-1.7-5.2-9.27-18.91l-9.51,29.16q7.68,14.46,10,21.06a39.11,39.11,0,0,1,2.34,13.26q0,10.83-13.3,18.24t-32.69,7.45q-19.76,0-31.89-7.18T17.58,431.47a45.32,45.32,0,0,1,3.29-16.94q3.31-8.2,14-26.46l-6.48-4.52Q13.93,405.48,9,419.16a79.14,79.14,0,0,0-4.55,27.41c0,11.76,4.73,20.79,14.19,27.17s23,9.55,40.45,9.55a99.41,99.41,0,0,0,26.37-3.5q12.81-3.51,19.43-9a30.43,30.43,0,0,0,9.58-14.52,71.47,71.47,0,0,0,2.83-18.6h73.91a42,42,0,0,0,12.1-1.41c6.11-1.93,11.26-6.05,15.44-12.31a131.25,131.25,0,0,0,23.76,9.18c10.19,2.95,19.09,4.42,26.64,4.42V414C269.11,404.12,266.29,393.35,260.58,381.59Zm-14,24.83q-1.06,0-9.82-3.22c-1.94-.74-4.79-1.81-8.54-3.25,2-6.48,4.33-9.7,7.12-9.7,2.52,0,5.53,2.14,9,6.47q4.65,5.8,4.66,8.2C248.94,405.93,248.14,406.42,246.55,406.42Z"/>
            <path class="cls-1" d="M59.05,483.41c-17.41,0-31-3.22-40.52-9.57S4.29,458.29,4.29,446.57a79.55,79.55,0,0,1,4.55-27.45c3.31-9.11,9.85-21.1,19.44-35.63l.07-.11L35,388l-.06.1c-7.09,12.15-11.8,21-14,26.44a45.52,45.52,0,0,0-3.27,16.9c0,7.47,4.07,13.66,12.09,18.4S48.53,457,61.63,457c12.87,0,23.85-2.5,32.63-7.44s13.23-11,13.23-18.13a39.38,39.38,0,0,0-2.32-13.22c-1.56-4.45-4.91-11.53-10-21l0,0,0-.05,9.6-29.43.14.25c5.12,9.3,8.16,15.5,9.28,18.93,2,5.67,3,12.83,3.23,21.28h49a33.77,33.77,0,0,0-4.26-12.21,85.14,85.14,0,0,0-7.57-9.72l-.05,0,0-.07,8.72-25.9.14.17a50.83,50.83,0,0,1,11.08,19.26c1.91,6.4,2.92,16,3,28.52h13.69c6.42,0,11.6-.79,15.39-2.35a17.68,17.68,0,0,0,10.1-10.4,67.82,67.82,0,0,1,15.78-22.61c5.65-5.26,10.54-7.92,14.54-7.92,3.73,0,8.34,5.61,13.71,16.67h0c5.67,11.68,8.55,22.6,8.55,32.44v23.67h-.13c-7.55,0-16.52-1.49-26.68-4.42a130.57,130.57,0,0,1-23.68-9.14c-4.17,6.22-9.36,10.34-15.45,12.27a42.15,42.15,0,0,1-12.13,1.42H117.38a72.36,72.36,0,0,1-2.83,18.51,30.72,30.72,0,0,1-9.62,14.58c-4.41,3.68-11,6.72-19.47,9.05A100.06,100.06,0,0,1,59.05,483.41ZM28.42,383.73c-9.54,14.47-16.05,26.41-19.34,35.48a79.27,79.27,0,0,0-4.54,27.36c0,11.63,4.75,20.74,14.13,27.07s23,9.52,40.38,9.52a99.48,99.48,0,0,0,26.34-3.49c8.48-2.32,15-5.35,19.38-9a30.49,30.49,0,0,0,9.54-14.47,71.31,71.31,0,0,0,2.82-18.56v-.12h74a42,42,0,0,0,12.06-1.41c6.06-1.92,11.23-6,15.37-12.26l.06-.09.1.05A130.93,130.93,0,0,0,242.5,433c10.08,2.91,19,4.4,26.49,4.41V414c0-9.81-2.87-20.68-8.53-32.33h0c-5.31-11-9.85-16.53-13.48-16.53-3.93,0-8.77,2.64-14.38,7.85a67.72,67.72,0,0,0-15.71,22.52A17.91,17.91,0,0,1,206.66,406c-3.83,1.57-9,2.37-15.49,2.37H177.23v-.12c-.06-12.56-1.06-22.18-3-28.58a50.59,50.59,0,0,0-10.88-19l-8.57,25.41a84,84,0,0,1,7.55,9.7,34,34,0,0,1,4.32,12.44l0,.15H117.19v-.12c-.18-8.48-1.26-15.66-3.21-21.33-1.11-3.39-4.1-9.49-9.13-18.64l-9.41,28.84c5,9.5,8.4,16.58,10,21a39.57,39.57,0,0,1,2.34,13.3c0,7.24-4.49,13.41-13.35,18.34s-19.84,7.48-32.76,7.48c-13.15,0-23.9-2.42-31.95-7.2S17.46,439,17.46,431.47a45.8,45.8,0,0,1,3.29-17c2.19-5.4,6.88-14.27,14-26.38Zm218.13,22.82c-.73,0-4.05-1.09-9.87-3.23l-1.71-.65c-1.78-.68-4.06-1.54-6.82-2.61l-.11,0,0-.11c2-6.59,4.37-9.79,7.24-9.79,2.58,0,5.63,2.2,9.06,6.53,3.16,3.94,4.7,6.64,4.7,8.27C249.07,406,248.22,406.55,246.55,406.55Zm-18.2-6.68c2.71,1.05,5,1.9,6.71,2.57l1.71.64c7.21,2.66,9.3,3.22,9.78,3.22,1.53,0,2.27-.45,2.27-1.38,0-1.55-1.56-4.28-4.64-8.12-3.39-4.27-6.37-6.43-8.87-6.43C232.62,390.37,230.27,393.57,228.35,399.87Z"/>
          </g>
          <g>
            <path class="cls-1" d="M309.06,292.76a13.4,13.4,0,0,1-2.81,4.75,8.68,8.68,0,0,1-3.67,1.94l-23.32,7.12a21.66,21.66,0,0,1,3.78-5.34,15.47,15.47,0,0,1,5.83-2.65A18.65,18.65,0,0,1,284.5,295a5.28,5.28,0,0,1-1.35-3.29,7.53,7.53,0,0,1,.86-3.19,18.32,18.32,0,0,1,2.27-3.51q7-9.39,13.93-9.39a4.27,4.27,0,0,1,3.29,1.35,5,5,0,0,1,1.24,3.51,8.26,8.26,0,0,1-.48,3,28.5,28.5,0,0,1-2,3.72q-5.4-2.7-7.34-2.7a8.74,8.74,0,0,0-3.89,1,9.18,9.18,0,0,0-2.37,1.73c0,.94,1.72,2.38,5.18,4.32s5.94,2.91,7.45,2.91A50.16,50.16,0,0,0,309.06,292.76Zm.21,113.45A63.83,63.83,0,0,1,307,423.76q-2.26,7.94-8.75,21.32l-6.47-2.59A128.2,128.2,0,0,0,294.38,420q0-6.58-1.08-19.32t-2.7-25.21Q289,363,285.31,345.76a48.54,48.54,0,0,1-1.3-8.31q0-3.34,3.35-11.39t9.39-19.49l6.48,38.22q3.56,21.81,5,37.78Q309.27,394.89,309.27,406.21Z"/>
            <path class="cls-1" d="M298.32,445.24l-6.68-2.68,0-.1A127.71,127.71,0,0,0,294.25,420c0-4.35-.36-10.85-1.08-19.31s-1.62-16.93-2.69-25.2-2.85-18.25-5.29-29.73a48.47,48.47,0,0,1-1.3-8.34c0-2.24,1.13-6.09,3.36-11.44s5.38-11.91,9.39-19.49l.17-.33,6.54,38.58c2.37,14.46,4,27.17,5,37.79.72,8.19,1.08,16.15,1.08,23.65a64,64,0,0,1-2.27,17.58c-1.51,5.27-4.45,12.45-8.75,21.34Zm-6.39-2.83,6.27,2.51c4.27-8.83,7.19-16,8.69-21.2a63.91,63.91,0,0,0,2.26-17.51c0-7.49-.36-15.44-1.08-23.63-.93-10.61-2.6-23.32-5-37.77L296.69,307c-3.92,7.44-7,13.88-9.21,19.15s-3.34,9.13-3.34,11.34a47.71,47.71,0,0,0,1.29,8.28c2.44,11.5,4.22,21.51,5.29,29.76s2,16.75,2.7,25.21,1.08,15,1.08,19.33A127.66,127.66,0,0,1,291.93,442.41ZM279,306.78l.15-.27a22,22,0,0,1,3.81-5.37,15,15,0,0,1,5.61-2.6,18.39,18.39,0,0,1-4.17-3.49,5.45,5.45,0,0,1-1.38-3.37,7.57,7.57,0,0,1,.88-3.24,19.08,19.08,0,0,1,2.28-3.54c4.68-6.26,9.4-9.43,14-9.43a4.4,4.4,0,0,1,3.38,1.38,5.15,5.15,0,0,1,1.28,3.6,8.21,8.21,0,0,1-.5,3,27,27,0,0,1-2,3.75l-.06.1-.1-.06c-3.57-1.78-6-2.68-7.28-2.68a8.48,8.48,0,0,0-3.83,1,8.78,8.78,0,0,0-2.31,1.66c.05.63,1,1.85,5.12,4.16,3.42,1.92,5.9,2.9,7.39,2.9a49.16,49.16,0,0,0,7.74-1.62l.23-.06-.08.23a13.45,13.45,0,0,1-2.84,4.79,8.87,8.87,0,0,1-3.72,2Zm21.21-31.06c-4.55,0-9.2,3.14-13.83,9.34a17.32,17.32,0,0,0-2.25,3.49,7.26,7.26,0,0,0-.86,3.13,5.19,5.19,0,0,0,1.33,3.21,18.18,18.18,0,0,0,4.34,3.59l.23.15-.26.07a15.29,15.29,0,0,0-5.78,2.62,21.16,21.16,0,0,0-3.61,5l23-7a8.73,8.73,0,0,0,3.62-1.91,13,13,0,0,0,2.7-4.48,47.31,47.31,0,0,1-7.57,1.56c-1.53,0-4.06-1-7.51-2.93s-5.25-3.43-5.25-4.43v-.05l0,0A9.1,9.1,0,0,1,291,285.3a8.79,8.79,0,0,1,3.94-1c1.31,0,3.7.87,7.29,2.66a26.36,26.36,0,0,0,1.93-3.61,8,8,0,0,0,.48-2.92,4.92,4.92,0,0,0-1.21-3.43A4.19,4.19,0,0,0,300.21,275.72Z"/>
          </g>
          <g>
            <path class="cls-1" d="M491.94,446.36,479,471l25,13.6,13-24.16Z"/>
            <path class="cls-1" d="M504.08,484.75l-.11-.06L478.81,471l13.07-24.84.12.06,25.15,14.12Zm-24.93-13.82L504,484.41l12.84-23.94L492,446.53Z"/>
          </g>
          <g>
            <path class="cls-1" d="M607.66,407.5v30.14H468v2.46q0,6.63-7.55,17.43a86.13,86.13,0,0,1-17.71,18.85c-7.49,5.89-13.88,8.87-19.22,8.87-6.32,0-13.14-1.81-20.38-5.4q-9.53-4.65-29.71-18.57l4.54-6.69q9.72,6.44,15.65,8.74a35.74,35.74,0,0,0,12.87,2.25,29.93,29.93,0,0,0,14.88-4.21q7.47-4.19,20.29-15.66,17.92-16,17.93-24.61c0-2.86-1.17-6.63-3.47-11.33a45.07,45.07,0,0,0-9.48-13.26l6-29.16A53.91,53.91,0,0,1,464,384.72a58.86,58.86,0,0,1,4,22.35v1.2H517.2a33.78,33.78,0,0,0-4.33-12.41,79.09,79.09,0,0,0-7.55-9.73L514,360.44A51.16,51.16,0,0,1,525,379.66q2.85,9.7,2.94,28.61H590.5a102.18,102.18,0,0,0-8.22-8.85c-2.15-2-5.07-4.48-8.72-7.33q-6.18-4.79-12.22-9.52l-3.44,3.9c-6.41-6.35-10.22-10.19-11.45-11.57a20.8,20.8,0,0,1-5.4-14.12c0-7.28.49-12.4,1.5-15.35,1.45-4.18,4.52-7.86,9.18-11.11a113.52,113.52,0,0,1,13.39-7.89q5.61-2.81,14.91-6.57c2.86-1.17,9-3.53,18.24-7.12v25.69c-.37,0-3.38.92-9.06,2.79q-10.59,3.46-16.85,6c-6.05,2.46-9.09,4.3-9.09,5.5,0,.64,2.58,3.46,7.68,8.44a249.35,249.35,0,0,1,17.59,18.57A158.09,158.09,0,0,1,607.66,407.5Z"/>
            <path class="cls-1" d="M423.48,485.38c-6.31,0-13.19-1.83-20.44-5.42-6.29-3.07-16-9.15-29.72-18.58l-.11-.07,4.69-6.9.1.07c6.44,4.27,11.7,7.21,15.63,8.74a35.53,35.53,0,0,0,12.82,2.23,29.88,29.88,0,0,0,14.82-4.19c4.92-2.76,11.74-8,20.27-15.64,11.87-10.58,17.89-18.84,17.89-24.52,0-2.81-1.17-6.6-3.46-11.28a45,45,0,0,0-9.46-13.22l-.05-.05v-.07l6.1-29.39.16.17a54.28,54.28,0,0,1,11.36,17.41,59.44,59.44,0,0,1,4,22.4v1.07h49a33.64,33.64,0,0,0-4.29-12.21,78.59,78.59,0,0,0-7.54-9.72l0,0,0-.07,8.7-25.9.14.17a51.41,51.41,0,0,1,11.11,19.26c1.89,6.44,2.88,16,3,28.52h62.13a100.64,100.64,0,0,0-8-8.62c-2.14-2-5.07-4.49-8.71-7.33L572,391c-3.5-2.71-7.12-5.52-10.61-8.27l-3.45,3.91-.1-.09c-6.62-6.56-10.26-10.24-11.45-11.58a21,21,0,0,1-5.44-14.2c0-7.4.5-12.43,1.52-15.39,1.43-4.15,4.53-7.91,9.22-11.18a116.36,116.36,0,0,1,13.4-7.89c3.67-1.84,8.56-4,14.93-6.58q4.07-1.65,16.82-6.57l1.58-.61v26h-.12c-.17,0-1.39.27-9,2.78-6.9,2.25-12.56,4.29-16.84,6.05-7.45,3-9,4.59-9,5.38,0,.41,1.32,2.19,7.64,8.35a250.56,250.56,0,0,1,17.59,18.58,158.42,158.42,0,0,1,19.14,27.74l0,.06v30.27H468.09v2.33c0,4.41-2.55,10.3-7.58,17.5a86.69,86.69,0,0,1-17.73,18.88C435.17,482.47,428.86,485.38,423.48,485.38Zm-49.92-24.13c13.64,9.38,23.32,15.43,29.6,18.49,7.21,3.57,14,5.39,20.32,5.39,5.32,0,11.58-2.9,19.14-8.85a86.44,86.44,0,0,0,17.69-18.82c5-7.16,7.53-13,7.53-17.36v-2.58h139.7v-30a159.16,159.16,0,0,0-19.1-27.67,250.17,250.17,0,0,0-17.58-18.56c-6.91-6.75-7.71-8.1-7.71-8.53,0-1.27,3-3.11,9.16-5.62,4.29-1.76,10-3.79,16.86-6,5.24-1.72,8.25-2.66,9-2.78v-25.4l-1.24.48q-12.75,4.94-16.82,6.57c-6.36,2.59-11.24,4.74-14.91,6.57a114.44,114.44,0,0,0-13.37,7.88c-4.64,3.24-7.71,7-9.13,11.05-1,2.89-1.5,8-1.5,15.31a20.69,20.69,0,0,0,5.38,14c1.18,1.33,4.78,5,11.35,11.48l3.43-3.89.09.07c3.53,2.78,7.17,5.61,10.7,8.35l1.51,1.17c3.65,2.85,6.58,5.32,8.73,7.34a101.88,101.88,0,0,1,8.24,8.86l.17.2H527.85v-.12c-.06-12.53-1.05-22.14-2.94-28.58a51.27,51.27,0,0,0-10.91-19l-8.54,25.41a79.64,79.64,0,0,1,7.52,9.7,34.13,34.13,0,0,1,4.34,12.44l0,.15H467.84v-1.32a59.11,59.11,0,0,0-4-22.3,54.35,54.35,0,0,0-11.14-17.17l-6,28.87a45.19,45.19,0,0,1,9.46,13.24c2.31,4.72,3.49,8.55,3.49,11.39,0,5.76-6.05,14.07-18,24.71-8.55,7.63-15.38,12.9-20.31,15.67a30.2,30.2,0,0,1-14.95,4.22,35.63,35.63,0,0,1-12.91-2.25c-3.93-1.52-9.17-4.45-15.58-8.69Z"/>
          </g>
          <g>
            <path class="cls-1" d="M647.6,292.76a13.4,13.4,0,0,1-2.81,4.75,8.68,8.68,0,0,1-3.67,1.94l-23.31,7.12a21.69,21.69,0,0,1,3.77-5.34,15.47,15.47,0,0,1,5.83-2.65A18.65,18.65,0,0,1,623,295a5.28,5.28,0,0,1-1.35-3.29,7.42,7.42,0,0,1,.87-3.19,18.26,18.26,0,0,1,2.26-3.51q7-9.39,13.93-9.39a4.27,4.27,0,0,1,3.29,1.35,5,5,0,0,1,1.24,3.51,8.26,8.26,0,0,1-.48,3,27.3,27.3,0,0,1-2,3.72q-5.4-2.7-7.34-2.7a8.74,8.74,0,0,0-3.89,1,9.35,9.35,0,0,0-2.37,1.73q0,1.41,5.18,4.32c3.45,1.94,5.94,2.91,7.45,2.91A50.16,50.16,0,0,0,647.6,292.76Zm.22,113.45a63.82,63.82,0,0,1-2.27,17.55q-2.26,7.94-8.74,21.32l-6.48-2.59A127.24,127.24,0,0,0,632.92,420q0-6.58-1.08-19.32t-2.7-25.21q-1.62-12.47-5.29-29.74a48.2,48.2,0,0,1-1.29-8.31q0-3.34,3.34-11.39t9.39-19.49l6.48,38.22q3.57,21.81,5,37.78Q647.82,394.89,647.82,406.21Z"/>
            <path class="cls-1" d="M636.87,445.24l-.11-.05-6.57-2.63,0-.1A128.51,128.51,0,0,0,632.79,420c0-4.35-.36-10.85-1.08-19.31s-1.62-16.93-2.69-25.2-2.85-18.25-5.29-29.73a48.61,48.61,0,0,1-1.3-8.34c0-2.24,1.13-6.09,3.36-11.44s5.38-11.91,9.39-19.49l.18-.33,6.54,38.58c2.36,14.46,4,27.17,5,37.79.72,8.19,1.08,16.15,1.08,23.65a64,64,0,0,1-2.27,17.58c-1.51,5.27-4.45,12.45-8.75,21.34Zm-6.4-2.83,6.27,2.51c4.27-8.83,7.19-16,8.69-21.2a63.91,63.91,0,0,0,2.26-17.51c0-7.49-.36-15.44-1.08-23.63-.93-10.61-2.6-23.32-5-37.77L635.23,307c-3.92,7.44-7,13.88-9.21,19.15s-3.34,9.13-3.34,11.34a48.75,48.75,0,0,0,1.29,8.28c2.44,11.5,4.22,21.5,5.3,29.76s2,16.75,2.69,25.21S633,415.68,633,420A127.56,127.56,0,0,1,630.47,442.41ZM617.55,306.78l.15-.27a21.78,21.78,0,0,1,3.8-5.37,15,15,0,0,1,5.61-2.6,18.39,18.39,0,0,1-4.17-3.49,5.43,5.43,0,0,1-1.37-3.37,7.54,7.54,0,0,1,.87-3.24,18.64,18.64,0,0,1,2.29-3.54c4.67-6.26,9.39-9.43,14-9.43a4.39,4.39,0,0,1,3.38,1.38,5.15,5.15,0,0,1,1.28,3.6,8.25,8.25,0,0,1-.5,3,26.67,26.67,0,0,1-2,3.75l-.06.1-.11-.06c-3.56-1.78-6-2.68-7.28-2.68a8.48,8.48,0,0,0-3.83,1,9,9,0,0,0-2.31,1.66c0,.63,1,1.84,5.12,4.16,3.42,1.92,5.91,2.9,7.39,2.9a48.93,48.93,0,0,0,7.74-1.62l.23-.06-.08.23a13.54,13.54,0,0,1-2.84,4.79,8.81,8.81,0,0,1-3.72,2Zm21.2-31.06c-4.54,0-9.2,3.14-13.83,9.34a17.77,17.77,0,0,0-2.25,3.49,7.23,7.23,0,0,0-.85,3.13,5.17,5.17,0,0,0,1.32,3.21,18.18,18.18,0,0,0,4.34,3.59l.23.15-.26.07a15.29,15.29,0,0,0-5.78,2.62,20.9,20.9,0,0,0-3.6,5l23-7a8.74,8.74,0,0,0,3.62-1.91,13.14,13.14,0,0,0,2.69-4.48,47.31,47.31,0,0,1-7.57,1.56c-1.53,0-4.05-1-7.51-2.93s-5.25-3.43-5.25-4.43v-.05l0,0a9.63,9.63,0,0,1,2.41-1.75,8.79,8.79,0,0,1,3.94-1c1.31,0,3.7.87,7.29,2.66a26.36,26.36,0,0,0,1.93-3.61,8,8,0,0,0,.48-2.92A4.92,4.92,0,0,0,642,277,4.19,4.19,0,0,0,638.75,275.72Z"/>
          </g>
          <g>
            <path class="cls-1" d="M858,411c0,.87,0,1.89-.11,3.08s-.18,2.41-.32,3.67-.29,2.48-.43,3.67-.29,2.14-.44,2.86q-.42,2.16-1.4,5.67t-2.26,7a35.94,35.94,0,0,1-2.81,5.94c-1,1.66-2,2.48-3,2.48a72.18,72.18,0,0,1-9.76-1.13,38.79,38.79,0,0,1-9.61-3.08,31.17,31.17,0,0,1-8.32-5.72,26.06,26.06,0,0,1-6-9.07,102.19,102.19,0,0,1-5.12,9.45,41.71,41.71,0,0,1-6.21,7.88,27,27,0,0,1-7.88,5.4,24.19,24.19,0,0,1-10,2,19.47,19.47,0,0,1-9.45-2.1,18.45,18.45,0,0,1-6.37-5.78,30,30,0,0,1-4-8.52A94,94,0,0,1,762,424.35h-.22a34.86,34.86,0,0,1-3,5.67,34.34,34.34,0,0,1-3.78,4.86,22.57,22.57,0,0,1-3.89,3.34,6.27,6.27,0,0,1-3.29,1.24q-3.35,0-8.21-.43c-3.23-.28-6.58-.72-10-1.29a39.08,39.08,0,0,1-5.29-1.19,23.66,23.66,0,0,1-4.37-1.78,11.94,11.94,0,0,1-3-2.22,3.77,3.77,0,0,1-1.13-2.69,15.7,15.7,0,0,1,1.08-5.08,64.46,64.46,0,0,1,2.8-6.58q1.72-3.57,3.83-7.29t4.05-7.18a23.81,23.81,0,0,1,4.92-5.45,102.61,102.61,0,0,1,8.25-6.48q4.65-3.29,9.77-6.37t9.45-5.12a50.73,50.73,0,0,1,.32-5.56,15.09,15.09,0,0,1,1.19-4.7,39.71,39.71,0,0,1,4.1-6.48,32.37,32.37,0,0,1,6.48-6.37h.22v23c0,2,0,4.21.1,6.58s.18,4.72.33,7,.36,4.52.65,6.64a42.71,42.71,0,0,0,1.07,5.56q1.62,6.48,5.67,9.28a16,16,0,0,0,9.34,2.81,15.82,15.82,0,0,0,9-2.65,40.78,40.78,0,0,0,8.42-7.93l-4.21-28.07c-.14-1.08-.31-2.32-.49-3.72s-.32-2.83-.43-4.27-.2-2.82-.27-4.15-.11-2.5-.11-3.51a23.05,23.05,0,0,1,.71-5.4,20.89,20.89,0,0,1,2.53-5.94,24.94,24.94,0,0,1,4-5.18q2.37-2.37,4.1-4.21h.22c.28,2.45.62,4.91,1,7.4s.77,4.84,1.13,7.07l4.43,28.93a37.77,37.77,0,0,0,2.75,10.2,27.25,27.25,0,0,0,4.27,6.85,22.37,22.37,0,0,0,3.62,3.3,46.85,46.85,0,0,0,4.42,2.91,46.33,46.33,0,0,0,4.64,2.38,23.53,23.53,0,0,0,4.27,1.46c1.15-.51,1.72-1.91,1.72-4.21q-2.48-11.44-5-22.89t-4.32-23.1c-.29-2.09-.47-3.87-.54-5.35s-.11-2.61-.11-3.4q0-5.07,3.56-11.22a26.38,26.38,0,0,1,3.3-4.7c1.18-1.33,2.28-2.65,3.29-3.94h.22c.14,1.15.32,2.34.54,3.56s.46,2.61.75,4.16.61,3.33,1,5.34.79,4.39,1.3,7.13c.57,3.09,1.17,6.26,1.78,9.5s1.19,6.38,1.73,9.44,1,5.92,1.51,8.58.84,4.93,1.13,6.81q1.19,7.13,2,12.79A72.22,72.22,0,0,1,858,411ZM753.29,400.17a102.39,102.39,0,0,0-11,6.15q-4.59,3-7.72,4.86l-.11.32a17.32,17.32,0,0,0,3.08,1.08c1.33.36,2.82.72,4.48,1.08s3.4.65,5.23.87a46.25,46.25,0,0,0,5.24.32,7.44,7.44,0,0,0,4.48-1.46,10.63,10.63,0,0,0,3.18-3.72V393.48h-.32a23.24,23.24,0,0,1-2.91,3.83A12.37,12.37,0,0,1,753.29,400.17ZM818,320.5a33.68,33.68,0,0,1-.54,6.15,14.92,14.92,0,0,1-1.89,5.13,10.06,10.06,0,0,1-3.56,3.51,10.67,10.67,0,0,1-5.45,1.29,10.21,10.21,0,0,1-3.57-.59,19.83,19.83,0,0,1-3.67-1.89,22.36,22.36,0,0,1-4.21,5.18,10.16,10.16,0,0,1-7.23,3.13q-4.53,0-6.8-2.16t-2.27-7a16.23,16.23,0,0,1,.76-4.91,49.19,49.19,0,0,1,2.16-5.56l2.26-.87a23.42,23.42,0,0,1-.21,2.59,23.27,23.27,0,0,0-.22,2.92,7.65,7.65,0,0,0,1,3.78,3.15,3.15,0,0,0,2.92,1.72q4.64,0,7.45-5.5a22.1,22.1,0,0,0,1.46-3.94c.53-1.84,1.13-4,1.78-6.43h2.26c.29,1.66.56,3,.81,3.89a16.62,16.62,0,0,0,.6,1.94,4.7,4.7,0,0,0,4.53,3.24c2.59,0,4.68-1.54,6.26-4.64a18.94,18.94,0,0,0,2-8.42l2.26-.65c.29,1.23.56,2.61.81,4.16A25.45,25.45,0,0,1,818,320.5Zm-15.44-20.08q0,5.4-3.67,12.63h-2.37c.14-1.22.25-2.36.32-3.4s.11-1.82.11-2.32a26.3,26.3,0,0,0-3.67-13.28l2.32-3.94c.83-1.4,1.74-2.9,2.75-4.48a42.56,42.56,0,0,1,3.19,8.31A27.52,27.52,0,0,1,802.51,300.42Zm88.63,105.79a63.83,63.83,0,0,1-2.26,17.55q-2.28,7.94-8.75,21.32l-6.48-2.59A127.24,127.24,0,0,0,876.24,420q0-6.58-1.07-19.32t-2.7-25.21q-1.62-12.47-5.29-29.74a47.52,47.52,0,0,1-1.3-8.31q0-3.34,3.35-11.39t9.39-19.49l6.48,38.22q3.55,21.81,5,37.78Q891.14,394.89,891.14,406.21Z"/>
            <path class="cls-1" d="M784.27,451.14a19.58,19.58,0,0,1-9.51-2.12,18.67,18.67,0,0,1-6.41-5.81,30.39,30.39,0,0,1-4-8.57,94.48,94.48,0,0,1-2.42-10.16h0a35,35,0,0,1-2.95,5.61,33.93,33.93,0,0,1-3.79,4.87,22.92,22.92,0,0,1-3.91,3.37,6.49,6.49,0,0,1-3.36,1.26c-2.24,0-5-.15-8.22-.43s-6.6-.72-10-1.3a37,37,0,0,1-5.3-1.19,24.41,24.41,0,0,1-4.4-1.79,12.43,12.43,0,0,1-3-2.24,3.92,3.92,0,0,1-1.17-2.78,15.91,15.91,0,0,1,1.09-5.12,67.61,67.61,0,0,1,2.81-6.6c1.13-2.33,2.42-4.78,3.84-7.29l4-7.18a24,24,0,0,1,4.94-5.48,99.21,99.21,0,0,1,8.27-6.49c3.09-2.19,6.38-4.33,9.78-6.37s6.53-3.74,9.38-5.1a52.12,52.12,0,0,1,.33-5.5,15.36,15.36,0,0,1,1.2-4.73,39.09,39.09,0,0,1,4.11-6.5,32.15,32.15,0,0,1,6.51-6.4l0,0h.38V380.2c0,2.05,0,4.27.11,6.58s.18,4.74.32,7,.36,4.52.65,6.63a41.76,41.76,0,0,0,1.08,5.55c1.06,4.26,2.95,7.36,5.61,9.21a16.62,16.62,0,0,0,18.16.16,41,41,0,0,0,8.36-7.87l-4.2-28c-.15-1.08-.31-2.32-.49-3.73s-.32-2.83-.43-4.27-.21-2.9-.27-4.16-.11-2.49-.11-3.51a23.23,23.23,0,0,1,.71-5.43,20.62,20.62,0,0,1,2.55-6,25.51,25.51,0,0,1,4-5.21c1.63-1.63,3-3,4.1-4.2l0,0H813v.11c.29,2.43.63,4.91,1,7.39l1.14,7.07,4.42,28.93a38,38,0,0,0,2.75,10.17,27.36,27.36,0,0,0,4.24,6.82,22.54,22.54,0,0,0,3.6,3.28,45.31,45.31,0,0,0,4.41,2.9,46.12,46.12,0,0,0,4.63,2.37,22.8,22.8,0,0,0,4.2,1.44c1.08-.49,1.62-1.86,1.62-4.07q-2.47-11.42-5-22.86c-1.65-7.58-3.1-15.36-4.32-23.11-.29-2.09-.47-3.89-.54-5.36s-.11-2.58-.11-3.41c0-3.38,1.2-7.18,3.58-11.29a26.32,26.32,0,0,1,3.3-4.71c1.18-1.32,2.28-2.64,3.29-3.94l0-.05h.39v.11c.14,1.15.32,2.34.54,3.56s.47,2.61.75,4.16.62,3.32,1,5.34.79,4.43,1.29,7.12c.58,3.1,1.17,6.26,1.78,9.5s1.18,6.34,1.73,9.45c.34,1.95.68,3.83,1,5.62l.52,3c.47,2.66.85,4.94,1.13,6.81.79,4.72,1.45,9,2,12.79a73,73,0,0,1,.76,8.92c0,.84,0,1.85-.11,3.09s-.19,2.43-.33,3.68-.29,2.48-.43,3.67-.29,2.15-.43,2.87c-.29,1.43-.76,3.34-1.41,5.67s-1.41,4.68-2.27,7a35,35,0,0,1-2.82,6c-1,1.68-2.08,2.54-3.12,2.54a74.26,74.26,0,0,1-9.8-1.14,39.14,39.14,0,0,1-9.64-3.08,31.37,31.37,0,0,1-8.34-5.75,26,26,0,0,1-5.91-8.85,104.5,104.5,0,0,1-5,9.21,42.14,42.14,0,0,1-6.22,7.9,27.21,27.21,0,0,1-7.92,5.42A24.43,24.43,0,0,1,784.27,451.14Zm-22.54-26.91h.4l0,.1a93.63,93.63,0,0,0,2.43,10.24,29.84,29.84,0,0,0,4,8.49,18.37,18.37,0,0,0,6.32,5.74,19.34,19.34,0,0,0,9.39,2.09,24.11,24.11,0,0,0,10-2,26.68,26.68,0,0,0,7.84-5.37,41.09,41.09,0,0,0,6.19-7.86,101.61,101.61,0,0,0,5.12-9.43l.12-.26.11.26a26.06,26.06,0,0,0,6,9,30.9,30.9,0,0,0,8.28,5.7,39.1,39.1,0,0,0,9.58,3.07,71.86,71.86,0,0,0,9.75,1.13c.95,0,1.93-.82,2.91-2.43a34.79,34.79,0,0,0,2.8-5.91c.86-2.29,1.62-4.63,2.26-6.95s1.12-4.24,1.4-5.66c.14-.71.29-1.64.43-2.85s.29-2.41.44-3.67.24-2.48.32-3.67.11-2.23.11-3.07a72.78,72.78,0,0,0-.76-8.89c-.5-3.76-1.16-8.06-1.94-12.78-.29-1.87-.67-4.15-1.14-6.8l-.52-3q-.46-2.68-1-5.62c-.55-3.11-1.13-6.29-1.72-9.44s-1.21-6.41-1.78-9.5c-.5-2.7-.94-5.1-1.3-7.13s-.68-3.79-1-5.34-.54-2.93-.76-4.16-.38-2.34-.52-3.46h-.05c-1,1.29-2.1,2.6-3.26,3.9a26.88,26.88,0,0,0-3.28,4.68c-2.35,4.06-3.54,7.82-3.54,11.16,0,.83,0,2,.11,3.4s.25,3.26.53,5.33c1.22,7.75,2.68,15.52,4.32,23.09s3.31,15.26,5,22.89c0,2.37-.61,3.83-1.8,4.35l0,0h0a23,23,0,0,1-4.29-1.47,47.57,47.57,0,0,1-4.65-2.38,46.58,46.58,0,0,1-4.44-2.92,23.47,23.47,0,0,1-3.64-3.31,28,28,0,0,1-4.28-6.89,37.72,37.72,0,0,1-2.76-10.23l-4.43-28.93q-.54-3.35-1.13-7.07c-.39-2.44-.73-4.89-1-7.29h0c-1.12,1.19-2.45,2.56-4.06,4.17a24.81,24.81,0,0,0-4,5.16,20.81,20.81,0,0,0-2.52,5.9,22.71,22.71,0,0,0-.7,5.37c0,1,0,2.19.11,3.5s.15,2.61.27,4.15.25,2.87.43,4.26l.48,3.73L807,407.55l0,0a41.37,41.37,0,0,1-8.45,8,16.05,16.05,0,0,1-9,2.66,16.22,16.22,0,0,1-9.41-2.82c-2.71-1.89-4.64-5-5.72-9.36a45.62,45.62,0,0,1-1.08-5.57c-.29-2.12-.5-4.36-.65-6.65s-.25-4.64-.32-7-.11-4.53-.11-6.59V357.33h0a32.08,32.08,0,0,0-6.42,6.32,39.71,39.71,0,0,0-4.09,6.45,15.21,15.21,0,0,0-1.17,4.66,48.25,48.25,0,0,0-.33,5.55v.07l-.07,0c-2.86,1.36-6,3.08-9.43,5.12s-6.68,4.18-9.76,6.36a101.33,101.33,0,0,0-8.25,6.47,24,24,0,0,0-4.89,5.42q-1.94,3.46-4.05,7.18c-1.41,2.51-2.7,5-3.82,7.28a67.3,67.3,0,0,0-2.81,6.57,15.72,15.72,0,0,0-1.07,5,3.72,3.72,0,0,0,1.1,2.61,12.12,12.12,0,0,0,3,2.19,23.85,23.85,0,0,0,4.35,1.77,38,38,0,0,0,5.27,1.18c3.44.58,6.81,1,10,1.3s6,.43,8.2.43a6.16,6.16,0,0,0,3.22-1.22,22.47,22.47,0,0,0,3.87-3.33,33.48,33.48,0,0,0,3.76-4.84,34.24,34.24,0,0,0,3-5.65Zm118.46,21-.11-.05-6.57-2.63,0-.1A127.51,127.51,0,0,0,876.12,420c0-4.34-.36-10.84-1.08-19.31s-1.63-17-2.7-25.2-2.85-18.27-5.29-29.73a48.75,48.75,0,0,1-1.3-8.34c0-2.24,1.13-6.09,3.36-11.44s5.38-11.89,9.4-19.49l.17-.33.06.36,6.48,38.22c2.36,14.47,4,27.19,5,37.79.71,8.19,1.08,16.15,1.08,23.65A64.42,64.42,0,0,1,889,423.79c-1.51,5.28-4.46,12.46-8.76,21.34Zm-6.4-2.83,6.28,2.51c4.26-8.82,7.19-15.95,8.69-21.2A63.91,63.91,0,0,0,891,406.21c0-7.49-.37-15.44-1.08-23.63-.93-10.59-2.6-23.3-5-37.77L878.56,307c-3.94,7.46-7,13.9-9.22,19.15S866,335.24,866,337.45a48.19,48.19,0,0,0,1.3,8.28c2.44,11.48,4.22,21.48,5.29,29.76s2,16.74,2.7,25.21,1.08,15,1.08,19.33A127.73,127.73,0,0,1,873.79,442.41ZM752.53,415a44.29,44.29,0,0,1-5.25-.33c-1.83-.21-3.59-.5-5.25-.86s-3.15-.73-4.48-1.09a16.48,16.48,0,0,1-3.1-1.09l-.1,0,.16-.47,0,0c2.09-1.23,4.69-2.86,7.71-4.85a101.8,101.8,0,0,1,11-6.16h0a12,12,0,0,0,3.63-2.84,22.51,22.51,0,0,0,2.9-3.81l0-.06h.52v16.38a10.81,10.81,0,0,1-3.23,3.76A7.52,7.52,0,0,1,752.53,415Zm-17.87-3.54a17.5,17.5,0,0,0,3,1c1.33.36,2.83.73,4.47,1.08s3.41.65,5.23.86a43.68,43.68,0,0,0,5.22.33,7.37,7.37,0,0,0,4.41-1.44,10.65,10.65,0,0,0,3.13-3.65v-16h-.13a23.57,23.57,0,0,1-2.89,3.79,12.34,12.34,0,0,1-3.71,2.89,102.92,102.92,0,0,0-10.94,6.15c-3,2-5.59,3.61-7.69,4.83Zm53.17-68.9c-3,0-5.36-.74-6.89-2.19s-2.3-3.85-2.3-7.11a16.48,16.48,0,0,1,.76-4.95,51.26,51.26,0,0,1,2.16-5.57l0-.05,2.49-.95v.18a21.91,21.91,0,0,1-.22,2.61,24.17,24.17,0,0,0-.21,2.9,7.48,7.48,0,0,0,1,3.71,3,3,0,0,0,2.81,1.67c3,0,5.5-1.83,7.34-5.44a22.06,22.06,0,0,0,1.44-3.92c.55-1.84,1.15-4,1.78-6.42l0-.09h2.47l0,.1c.28,1.65.55,3,.8,3.88s.45,1.58.59,1.93a4.63,4.63,0,0,0,4.42,3.16c2.53,0,4.6-1.54,6.15-4.58a18.94,18.94,0,0,0,1.93-8.36V313l2.48-.71,0,.12c.29,1.24.57,2.64.82,4.17a25.9,25.9,0,0,1,.38,4,34,34,0,0,1-.55,6.17,15.2,15.2,0,0,1-1.9,5.18A10.31,10.31,0,0,1,812,335.4a10.8,10.8,0,0,1-5.51,1.31,10.44,10.44,0,0,1-3.61-.6,19.8,19.8,0,0,1-3.59-1.84,22.63,22.63,0,0,1-4.17,5.11A10.34,10.34,0,0,1,787.83,342.54Zm-6.06-19.68a49.9,49.9,0,0,0-2.13,5.5,16.34,16.34,0,0,0-.75,4.88c0,3.19.75,5.52,2.23,6.92s3.73,2.13,6.71,2.13a10.09,10.09,0,0,0,7.15-3.1,22.67,22.67,0,0,0,4.19-5.16l.07-.1.1.07a20.13,20.13,0,0,0,3.65,1.87,10.11,10.11,0,0,0,3.52.59,10.5,10.5,0,0,0,5.38-1.28,9.91,9.91,0,0,0,3.52-3.47,14.92,14.92,0,0,0,1.88-5.08,34.61,34.61,0,0,0,.54-6.13,25.45,25.45,0,0,0-.38-3.92c-.24-1.47-.5-2.83-.78-4l-2,.59a19.22,19.22,0,0,1-2,8.38c-1.61,3.12-3.75,4.71-6.38,4.71a4.85,4.85,0,0,1-4.65-3.32,19.89,19.89,0,0,1-.6-2c-.24-.9-.51-2.18-.79-3.79h-2.07c-.63,2.38-1.22,4.51-1.76,6.33a22.31,22.31,0,0,1-1.46,4c-1.89,3.69-4.43,5.57-7.56,5.57a3.28,3.28,0,0,1-3-1.79,7.78,7.78,0,0,1-1-3.84,24.62,24.62,0,0,1,.21-2.93c.13-1,.2-1.83.22-2.39Zm17.15-9.68h-2.59V313c.14-1.21.25-2.35.33-3.4s.1-1.82.1-2.31a26.29,26.29,0,0,0-3.65-13.22l0-.06,0-.06,2.32-3.94c.83-1.41,1.76-2.92,2.76-4.49l.11-.18.1.19a42.85,42.85,0,0,1,3.2,8.34,27.76,27.76,0,0,1,1,6.51c0,3.6-1.24,7.87-3.69,12.69Zm-2.31-.25h2.16c2.4-4.76,3.62-9,3.62-12.51a27.77,27.77,0,0,0-1-6.45,42.47,42.47,0,0,0-3.08-8.09c-1,1.51-1.84,2.95-2.63,4.29l-2.29,3.88A26.51,26.51,0,0,1,797,307.33c0,.49,0,1.25-.1,2.33S796.74,311.77,796.61,312.93Z"/>
          </g>
        </g>
      </g>
    </g>
  </g>
</svg>
