<svg width="14" height="24" viewBox="0 0 14 24" fill="none" xmlns="http://www.w3.org/2000/svg">
<path d="M1.48139 23.851C1.27066 23.8572 1.06239 23.8043 0.880178 23.6983C0.697964 23.5923 0.549081 23.4373 0.45039 23.251C0.366865 23.0726 0.345313 22.8714 0.389155 22.6794C0.432997 22.4874 0.539722 22.3155 0.69239 22.191L9.81339 14.241C10.1197 13.9914 10.3666 13.6767 10.5361 13.3198C10.7057 12.9628 10.7937 12.5727 10.7937 12.1775C10.7937 11.7824 10.7057 11.3922 10.5361 11.0353C10.3666 10.6783 10.1197 10.3636 9.81339 10.114L0.692391 2.16401C0.590176 2.08084 0.507779 1.97593 0.451188 1.85692C0.394597 1.73791 0.365234 1.60779 0.365234 1.47601C0.365234 1.34423 0.394597 1.21411 0.451188 1.0951C0.507779 0.97609 0.590176 0.871186 0.692391 0.788011C0.91418 0.604082 1.19326 0.503418 1.48139 0.503418C1.76952 0.503418 2.0486 0.604082 2.27039 0.788011L11.3914 8.73801C11.9013 9.15442 12.3122 9.67901 12.5944 10.2738C12.8766 10.8686 13.023 11.5187 13.023 12.177C13.023 12.8353 12.8766 13.4854 12.5944 14.0802C12.3122 14.675 11.9013 15.1996 11.3914 15.616L2.27039 23.566C2.05024 23.7528 1.77011 23.854 1.48139 23.851Z" fill="white"/>
</svg>
