<svg width="900" height="900" viewBox="0 0 900 900" fill="none" xmlns="http://www.w3.org/2000/svg">
<g filter="url(#filter0_f)">
<circle cx="450" cy="450" r="200" fill="#E1B741" fill-opacity="0.1"/>
</g>
<g clip-path="url(#clip0)">
<g opacity="0.2">
<path d="M210.418 530.596C210.693 530.911 211.028 531.169 211.404 531.354C211.779 531.54 212.187 531.649 212.605 531.676C213.023 531.703 213.443 531.648 213.839 531.513C214.236 531.378 214.602 531.166 214.917 530.889C215.392 530.473 215.732 529.924 215.894 529.314L260.819 536.976C260.87 537.046 260.923 537.114 260.979 537.18C261.259 537.499 261.6 537.76 261.982 537.945L234.695 610.439C234.188 610.299 233.654 610.288 233.141 610.406C232.628 610.524 232.151 610.767 231.755 611.113C231.44 611.39 231.182 611.726 230.997 612.101C230.811 612.477 230.702 612.886 230.674 613.304C230.646 613.722 230.701 614.141 230.835 614.538C230.969 614.934 231.18 615.3 231.456 615.615C232.013 616.251 232.8 616.639 233.644 616.694C234.488 616.749 235.319 616.466 235.956 615.908C236.459 615.466 236.81 614.876 236.959 614.223L290.114 621.319C290.077 622.137 290.358 622.937 290.899 623.551C291.256 623.959 291.711 624.268 292.221 624.45C292.731 624.632 293.28 624.68 293.814 624.59L303.467 661.569C303.093 661.702 302.747 661.904 302.447 662.164C301.811 662.722 301.421 663.51 301.365 664.355C301.309 665.2 301.59 666.032 302.147 666.668C302.705 667.303 303.492 667.691 304.336 667.745C305.18 667.8 306.011 667.517 306.648 666.958C307.029 666.623 307.325 666.202 307.511 665.73C307.697 665.258 307.768 664.749 307.718 664.244L349.309 656.152C349.436 656.599 349.659 657.011 349.964 657.361C350.461 657.927 351.142 658.298 351.887 658.409C352.632 658.519 353.393 658.362 354.034 657.965L378.571 693.698C377.947 694.26 377.569 695.045 377.519 695.883C377.468 696.72 377.749 697.544 378.3 698.175C378.576 698.49 378.911 698.748 379.287 698.933C379.662 699.118 380.071 699.227 380.489 699.254C380.907 699.281 381.326 699.225 381.723 699.09C382.119 698.955 382.486 698.742 382.801 698.466C383.025 698.266 383.221 698.037 383.383 697.785L412.627 711.9C412.425 712.44 412.373 713.025 412.476 713.592C412.58 714.158 412.835 714.687 413.214 715.12C413.416 715.351 413.651 715.552 413.912 715.716L391.495 759.817C390.95 759.602 390.356 759.541 389.779 759.641C389.201 759.741 388.662 759.998 388.22 760.384C387.584 760.943 387.195 761.731 387.139 762.576C387.083 763.42 387.364 764.252 387.92 764.889C388.478 765.524 389.265 765.912 390.108 765.966C390.952 766.021 391.783 765.739 392.42 765.181C392.514 765.096 392.604 765.005 392.689 764.91L451.147 808.354C450.794 808.935 450.635 809.613 450.693 810.29C450.752 810.967 451.024 811.607 451.471 812.117C452.028 812.752 452.815 813.14 453.658 813.194C454.501 813.249 455.332 812.967 455.968 812.409C456.605 811.85 456.994 811.062 457.05 810.217C457.106 809.373 456.825 808.541 456.268 807.905C455.949 807.541 455.55 807.255 455.103 807.069L487.102 705.185C487.563 705.257 488.034 705.226 488.482 705.095C488.931 704.965 489.345 704.737 489.696 704.429C490.333 703.871 490.722 703.082 490.778 702.238C490.834 701.393 490.553 700.561 489.996 699.925C489.72 699.61 489.385 699.353 489.01 699.168C488.634 698.983 488.226 698.873 487.808 698.846C487.39 698.82 486.97 698.875 486.574 699.01C486.177 699.146 485.811 699.358 485.495 699.635C485.367 699.749 485.248 699.873 485.139 700.005L452.997 680.675C453.288 680.106 453.403 679.463 453.325 678.828C453.247 678.194 452.981 677.598 452.56 677.118C452.282 676.8 451.943 676.54 451.562 676.356L480.436 592.36C480.968 592.497 481.527 592.494 482.059 592.351C482.59 592.208 483.075 591.929 483.468 591.543C483.86 591.157 484.146 590.675 484.298 590.146C484.45 589.617 484.462 589.057 484.333 588.522C484.205 587.987 483.94 587.494 483.565 587.092C483.19 586.69 482.717 586.393 482.193 586.228C481.668 586.063 481.11 586.038 480.572 586.153C480.034 586.269 479.535 586.521 479.123 586.887C478.827 587.145 478.582 587.457 478.403 587.807L440.484 572.192C440.645 571.672 440.67 571.12 440.558 570.588C440.445 570.056 440.198 569.562 439.841 569.153L440.058 569.363L513.359 494.951C513.799 495.316 514.33 495.554 514.895 495.641C515.46 495.729 516.038 495.662 516.569 495.448C517.1 495.233 517.563 494.88 517.91 494.424C518.257 493.969 518.475 493.428 518.541 492.859L562.123 494.146C562.155 494.652 562.307 495.143 562.566 495.579C562.825 496.014 563.184 496.381 563.614 496.649C564.043 496.917 564.531 497.079 565.035 497.121C565.54 497.163 566.048 497.083 566.516 496.889C566.985 496.696 567.4 496.393 567.729 496.006C568.057 495.62 568.289 495.161 568.405 494.667C568.521 494.173 568.518 493.659 568.395 493.167C568.273 492.675 568.035 492.22 567.701 491.839C567.268 491.342 566.689 490.993 566.047 490.843L575.433 425.569C576.268 425.666 577.109 425.429 577.771 424.909C578.433 424.389 578.862 423.628 578.966 422.792C579.07 421.957 578.84 421.115 578.325 420.45C577.81 419.785 577.053 419.352 576.22 419.244L580.353 379.083C581.017 379.094 581.668 378.897 582.215 378.519C582.762 378.141 583.176 377.602 583.401 376.976C583.626 376.35 583.649 375.67 583.467 375.031C583.285 374.392 582.908 373.827 582.388 373.414L622.184 310.977C622.679 311.219 623.228 311.328 623.778 311.294C624.327 311.259 624.859 311.083 625.321 310.782C625.783 310.481 626.159 310.065 626.413 309.575C626.667 309.086 626.789 308.539 626.769 307.988L676.989 300.495C677.095 300.97 677.308 301.414 677.611 301.793C677.915 302.173 678.301 302.478 678.741 302.685C679.18 302.892 679.661 302.995 680.147 302.988C680.633 302.98 681.111 302.861 681.545 302.64C681.978 302.42 682.356 302.103 682.648 301.714C682.941 301.325 683.141 300.874 683.233 300.396C683.326 299.919 683.308 299.426 683.181 298.957C683.054 298.487 682.821 298.053 682.501 297.688L682.468 297.669L718.654 250.105C719.126 250.345 719.652 250.463 720.182 250.449C720.712 250.434 721.23 250.287 721.69 250.022C722.149 249.756 722.536 249.38 722.813 248.927C723.091 248.474 723.252 247.96 723.281 247.43C723.31 246.9 723.206 246.371 722.979 245.891C722.753 245.412 722.41 244.997 721.982 244.684C721.554 244.371 721.054 244.17 720.529 244.1C720.003 244.029 719.468 244.091 718.972 244.279L694.587 205.922C694.623 205.895 694.659 205.869 694.693 205.838C695.049 205.528 695.332 205.144 695.522 204.712C695.712 204.28 695.804 203.812 695.791 203.341C695.779 202.87 695.662 202.407 695.45 201.987C695.238 201.567 694.935 201.199 694.564 200.909C694.192 200.62 693.761 200.417 693.302 200.315C692.842 200.212 692.366 200.213 691.906 200.316C691.447 200.42 691.016 200.625 690.644 200.915C690.272 201.205 689.97 201.574 689.757 201.995L651.266 184.466C651.437 183.98 651.488 183.461 651.415 182.951C651.342 182.442 651.146 181.958 650.846 181.541C650.545 181.124 650.148 180.786 649.688 180.556C649.228 180.326 648.719 180.212 648.205 180.221C647.691 180.231 647.186 180.366 646.735 180.613C646.283 180.86 645.898 181.213 645.612 181.642C645.326 182.07 645.148 182.561 645.093 183.073C645.038 183.585 645.108 184.103 645.296 184.582L579.354 217.851C579.12 217.479 578.812 217.16 578.449 216.913C578.086 216.666 577.675 216.498 577.244 216.417C576.812 216.337 576.368 216.347 575.94 216.447C575.513 216.546 575.11 216.733 574.757 216.996C574.404 217.259 574.11 217.591 573.892 217.973C573.673 218.355 573.536 218.778 573.489 219.215C573.442 219.652 573.486 220.094 573.617 220.513C573.749 220.933 573.965 221.32 574.254 221.651C574.436 221.856 574.643 222.037 574.87 222.19L555.186 258.216C554.771 258.036 554.322 257.947 553.869 257.954C553.416 257.962 552.97 258.066 552.56 258.259C552.151 258.453 551.787 258.732 551.493 259.077C551.199 259.422 550.982 259.826 550.856 260.261C550.73 260.697 550.698 261.154 550.762 261.603C550.827 262.051 550.986 262.481 551.23 262.863C551.473 263.244 551.795 263.57 552.174 263.817C552.554 264.064 552.981 264.227 553.429 264.296L550.617 309.287C549.847 309.31 549.111 309.612 548.546 310.137C547.981 310.661 547.625 311.373 547.545 312.14L441.14 310.835C441.096 310.269 440.903 309.724 440.578 309.258C440.254 308.792 439.811 308.421 439.295 308.184C438.779 307.947 438.209 307.852 437.644 307.909C437.079 307.966 436.539 308.174 436.08 308.509C435.622 308.845 435.26 309.298 435.034 309.819C434.808 310.341 434.726 310.914 434.795 311.478C434.864 312.042 435.082 312.577 435.427 313.028C435.772 313.479 436.231 313.83 436.757 314.043L399.261 437.286C398.95 436.997 398.584 436.774 398.185 436.628C397.786 436.483 397.361 436.42 396.937 436.441C396.513 436.462 396.097 436.569 395.714 436.753C395.331 436.938 394.988 437.197 394.707 437.516C394.425 437.835 394.21 438.207 394.074 438.61C393.938 439.014 393.884 439.44 393.915 439.864C393.946 440.288 394.061 440.701 394.254 441.08C394.447 441.458 394.714 441.794 395.039 442.068L367.923 480.908C367.491 480.661 367.007 480.519 366.51 480.494C366.013 480.469 365.517 480.561 365.061 480.763C364.606 480.964 364.204 481.27 363.888 481.655C363.572 482.04 363.35 482.494 363.241 482.98L303.915 475.318L304.366 474.647L303.344 475.246L302.988 475.2L303.054 475.414L215.411 526.635C215.351 526.549 215.286 526.466 215.216 526.387C214.659 525.751 213.872 525.363 213.028 525.308C212.184 525.253 211.353 525.536 210.716 526.094C210.401 526.371 210.144 526.706 209.958 527.082C209.773 527.458 209.663 527.867 209.635 528.285C209.608 528.703 209.663 529.122 209.797 529.519C209.931 529.915 210.142 530.281 210.418 530.596ZM439.962 313.562L476.745 351.223C476.25 351.805 475.979 352.545 475.983 353.309C475.987 354.072 476.264 354.809 476.765 355.384L454.844 378.568L439.007 314.102C439.355 313.98 439.678 313.797 439.962 313.562ZM717.696 249.362C717.835 249.519 717.989 249.663 718.156 249.79L701.903 271.155L682.039 297.262C681.797 297.075 681.527 296.926 681.24 296.818L688.833 237.416L717.018 246.422C716.88 246.93 716.869 247.465 716.987 247.978C717.106 248.491 717.349 248.966 717.696 249.362ZM572.848 420.771C572.461 421.438 572.327 422.221 572.471 422.977L543.526 431.368L529.353 391.23C529.631 391.101 529.889 390.934 530.12 390.734C530.229 390.635 530.331 390.53 530.427 390.419L572.848 420.771ZM513.264 490.087C512.914 490.395 512.636 490.776 512.45 491.203L466.809 476.004L511.225 484.226L513.768 489.724C513.589 489.825 513.421 489.945 513.267 490.082L513.264 490.087ZM478.141 590.082L415.869 612.601L399.519 581.15C399.652 581.067 399.777 580.972 399.895 580.869C400.402 580.425 400.754 579.83 400.902 579.172L478.042 589.164C478.03 589.474 478.063 589.783 478.141 590.082ZM484.791 703.515L451.794 724.104L450.633 682.401C451.248 682.315 451.825 682.05 452.293 681.641C452.444 681.508 452.583 681.361 452.706 681.202L484.834 700.51C484.581 700.969 484.444 701.484 484.437 702.008C484.429 702.532 484.551 703.05 484.791 703.515ZM451.216 724.465L392.874 760.861C392.829 760.805 392.787 760.743 392.735 760.686C392.64 760.579 392.537 760.478 392.429 760.384L448.686 682.053C449.105 682.279 449.57 682.407 450.046 682.428L451.216 724.465ZM451.787 807.622C451.692 807.708 451.602 807.798 451.518 807.894L393.059 764.449C393.339 763.987 393.497 763.462 393.52 762.922C393.542 762.382 393.427 761.846 393.186 761.364L451.233 725.146L453.505 806.855C452.869 806.933 452.27 807.2 451.787 807.622ZM364.154 485.999C364.604 486.426 365.168 486.711 365.779 486.818L361.808 532.656L319.724 527.498C319.746 526.793 319.534 526.101 319.121 525.53L364.154 485.999ZM578.752 221.94C579.325 221.438 579.699 220.747 579.806 219.993L640.9 222.947C640.91 223.229 640.96 223.509 641.046 223.777L570.95 253.584L576.39 222.721C576.816 222.758 577.245 222.707 577.651 222.573C578.057 222.439 578.432 222.223 578.752 221.94ZM571.081 266.125L641.492 224.669C641.553 224.754 641.619 224.837 641.689 224.914C642.058 225.335 642.531 225.651 643.062 225.829L628.986 284.576L571.339 268.064C571.457 267.406 571.367 266.728 571.081 266.125ZM640.036 224.848L570.786 265.616C570.725 265.534 570.663 265.454 570.588 265.373C570.178 264.901 569.636 264.562 569.032 264.4L570.814 254.281L640.036 224.848ZM570.303 269.869C570.403 269.78 570.498 269.685 570.586 269.585L620.852 306.47C620.57 306.947 620.418 307.49 620.41 308.045L573.444 310.831L568.852 270.601C569.391 270.488 569.891 270.235 570.303 269.869ZM579.92 372.749C579.779 372.771 579.64 372.804 579.504 372.848L552.336 315.222C552.507 315.122 552.668 315.006 552.817 314.875C553.145 314.588 553.41 314.236 553.597 313.841C553.783 313.447 553.887 313.018 553.9 312.583L572.926 311.453L579.92 372.749ZM551.81 315.477L578.951 373.05C578.241 373.403 577.69 374.011 577.41 374.753L535.192 365.39L550.086 315.603C550.658 315.716 551.251 315.67 551.8 315.471L551.81 315.477ZM528.648 385.21C528.096 385.094 527.523 385.13 526.99 385.312C526.456 385.495 525.982 385.819 525.616 386.248L481.909 354.889C482.027 354.69 482.121 354.477 482.19 354.255L534.444 365.836L528.648 385.21ZM434.346 570.502L404.802 564.05L414.224 542.514C414.645 542.653 415.09 542.703 415.531 542.661C415.972 542.618 416.399 542.484 416.786 542.267L435.206 568.988C434.784 569.403 434.486 569.927 434.346 570.502ZM350.262 652.855C350.094 653.003 349.943 653.168 349.809 653.346L320.997 636.908L331.428 618.998C331.82 619.18 332.244 619.28 332.676 619.292C333.108 619.305 333.538 619.23 333.94 619.072L350.799 652.481C350.61 652.589 350.432 652.716 350.267 652.858L350.262 652.855ZM305.895 661.67C305.314 661.4 304.664 661.312 304.031 661.418L294.379 624.438C294.753 624.305 295.098 624.104 295.398 623.844C295.59 623.675 295.761 623.483 295.907 623.273L320.198 637.132L305.895 661.67ZM296.191 622.759C296.396 622.305 296.494 621.809 296.476 621.31L329.672 616.825C329.788 617.34 330.032 617.817 330.379 618.213C330.541 618.397 330.724 618.562 330.925 618.704L320.49 636.619L296.191 622.759ZM368.22 486.252L412.915 537.294C412.516 537.717 412.24 538.241 412.117 538.809L362.397 532.714L366.362 486.874C367.031 486.868 367.682 486.65 368.22 486.252ZM525.621 390.441C525.784 390.625 525.968 390.79 526.169 390.933L495.662 443.41C495.422 443.252 495.163 443.125 494.891 443.033L488.448 405.558L525.224 389.845C525.333 390.058 525.466 390.258 525.621 390.441ZM481.261 355.678C481.369 355.582 481.471 355.479 481.564 355.369L490.654 361.891L525.265 386.721C525.039 387.107 524.896 387.538 524.846 387.983C524.797 388.429 524.841 388.879 524.977 389.306L488.347 404.96L479.989 356.357C480.459 356.232 480.895 356 481.261 355.678ZM487.889 405.794L494.269 442.898C493.86 442.849 493.445 442.88 493.046 442.988L470.247 421.538L466.186 417.719C466.5 417.317 466.713 416.846 466.808 416.345C466.902 415.845 466.876 415.329 466.731 414.841L487.889 405.794ZM465.77 418.146L492.438 443.227C491.819 443.542 491.32 444.052 491.019 444.678L463.448 443.111L463.944 418.925C464.619 418.867 465.259 418.594 465.77 418.146ZM462.271 471.77C461.644 471.85 461.056 472.116 460.582 472.534C460.394 472.701 460.226 472.89 460.081 473.096L460.048 473.077L400.029 440.872C400.134 440.627 400.208 440.37 400.248 440.106L462.847 443.666L462.271 471.77ZM395.024 576.901C394.774 577.341 394.633 577.834 394.61 578.339C394.588 578.844 394.686 579.347 394.896 579.806L374.699 591.502L361.449 557.414C361.693 557.292 361.92 557.14 362.126 556.962C362.189 556.906 362.246 556.848 362.304 556.789L395.024 576.901ZM412.085 540.048L363.004 553.455C362.871 553.093 362.672 552.758 362.416 552.469C361.983 551.974 361.408 551.627 360.769 551.473L362.344 533.31L412.044 539.394C412.035 539.613 412.049 539.832 412.085 540.048ZM318.632 529.817C318.793 529.676 318.939 529.52 319.068 529.349L333.16 538.164L357.165 553.162C357.088 553.319 357.025 553.481 356.975 553.649L320.291 546.227L317.406 530.464C317.861 530.339 318.282 530.113 318.639 529.804L318.632 529.817ZM356.844 554.251C356.795 554.69 356.838 555.133 356.971 555.554C357.103 555.975 357.321 556.363 357.612 556.694C357.852 556.969 358.138 557.2 358.457 557.375L333.797 613.085C333.378 612.946 332.936 612.895 332.497 612.934L320.4 546.859L356.844 554.251ZM335.177 614.004C334.938 613.729 334.652 613.499 334.332 613.323L359.002 557.598C359.615 557.801 360.275 557.815 360.897 557.638L374.182 591.8L335.371 614.255C335.317 614.173 335.251 614.087 335.177 614.004ZM363.185 554.184L412.248 540.617C412.38 540.975 412.577 541.305 412.828 541.592C413.071 541.869 413.361 542.102 413.683 542.279L404.226 563.934L363.176 554.961C363.211 554.704 363.214 554.442 363.185 554.184ZM460.269 477.031L460.369 477.132L433.944 513.351L416.861 536.752C416.283 536.411 415.612 536.261 414.944 536.323L404.798 480.397L459.504 475.297C459.577 475.94 459.844 476.544 460.269 477.031ZM360.17 551.379C359.35 551.342 358.546 551.623 357.927 552.165C357.767 552.304 357.622 552.46 357.493 552.629L319.393 528.839C319.511 528.6 319.599 528.347 319.655 528.086L361.76 533.238L360.17 551.379ZM313.439 528.147C313.614 528.893 314.053 529.55 314.675 529.997C315.297 530.444 316.059 530.65 316.822 530.578L319.662 546.115L266.547 535.365C266.56 535.205 266.563 535.044 266.554 534.884L295.389 530.738L313.439 528.147ZM265.712 537.245C266.056 536.875 266.306 536.428 266.441 535.941L319.777 546.737L331.899 613.05C331.551 613.145 331.222 613.299 330.926 613.505L265.712 537.245ZM335.674 614.772L374.402 592.357L385.376 620.579C385.132 620.699 384.905 620.85 384.699 621.029C384.197 621.469 383.847 622.057 383.699 622.709L335.959 616.242C335.984 615.736 335.886 615.232 335.674 614.772ZM385.923 620.363L374.914 592.056L395.189 580.318C395.252 580.408 395.322 580.493 395.394 580.578C395.76 580.995 396.228 581.309 396.753 581.488L387.262 620.282C386.815 620.214 386.359 620.242 385.923 620.363ZM395.694 576.074C395.575 576.18 395.463 576.295 395.361 576.417L362.67 556.337C362.835 556.091 362.964 555.823 363.052 555.54L403.975 564.474L399.122 575.569C398.563 575.313 397.942 575.224 397.334 575.314C396.726 575.404 396.156 575.668 395.694 576.074ZM462.859 471.747L463.436 443.7L490.802 445.265C490.675 445.744 490.663 446.246 490.765 446.731C490.866 447.216 491.08 447.67 491.388 448.057L464.631 472.404C464.121 472.01 463.503 471.781 462.859 471.747ZM479.409 356.459L487.787 405.196L466.502 414.288C466.385 414.056 466.238 413.839 466.066 413.643C465.716 413.242 465.271 412.935 464.77 412.753L478.68 356.432C478.921 356.469 479.166 356.478 479.409 356.459ZM461.277 417.86C461.812 418.47 462.559 418.852 463.367 418.928L462.872 443.083L400.307 439.53C400.299 439.301 400.265 439.074 400.207 438.853L460.807 417.151C460.931 417.408 461.089 417.646 461.277 417.86ZM399.214 442.021C399.426 441.833 399.611 441.618 399.766 441.381L459.801 473.598C459.637 473.944 459.537 474.317 459.505 474.698L404.692 479.814L397.952 442.706C398.413 442.576 398.838 442.344 399.199 442.029L399.214 442.021ZM414.37 536.419C414.007 536.521 413.665 536.685 413.359 536.906L368.66 485.871C369.22 485.28 369.533 484.495 369.532 483.681L404.211 480.454L414.37 536.419ZM265.155 537.717L265.367 537.754L330.504 613.896C330.018 614.397 329.709 615.044 329.626 615.738L291.299 614.736L264.694 537.976C264.856 537.903 265.011 537.816 265.157 537.714L265.155 537.717ZM329.111 616.308L296.402 620.729C296.286 620.214 296.043 619.737 295.694 619.341C295.31 618.904 294.812 618.581 294.257 618.407C293.701 618.233 293.108 618.215 292.542 618.355L291.493 615.326L329.111 616.308ZM306.951 662.46C306.79 662.275 306.607 662.11 306.406 661.968L320.704 637.42L349.506 653.853C349.244 654.386 349.134 654.981 349.19 655.572L307.604 663.667C307.478 663.221 307.255 662.809 306.951 662.46ZM351.331 652.239L336.762 623.325L354.33 652.723C353.91 652.399 353.416 652.185 352.893 652.1C352.369 652.016 351.832 652.063 351.331 652.239ZM334.657 618.679C334.73 618.623 334.803 618.567 334.876 618.504C335.379 618.064 335.729 617.476 335.877 616.825L383.609 623.287C383.57 624.107 383.851 624.91 384.393 625.526C384.867 626.071 385.514 626.436 386.225 626.56L380.568 692.882C380.097 692.903 379.636 693.028 379.219 693.249L334.657 618.679ZM383.722 695.053C383.589 694.652 383.377 694.281 383.099 693.964C382.598 693.392 381.908 693.019 381.155 692.913L386.824 626.614C387.048 626.612 387.273 626.587 387.493 626.539L407.679 689.296L383.722 695.053ZM388.054 626.358C388.361 626.228 388.646 626.049 388.897 625.829C388.915 625.798 388.952 625.775 388.981 625.748L447.59 677.411C447.347 677.758 447.176 678.15 447.086 678.564C446.997 678.978 446.991 679.405 447.068 679.821L408.259 689.147L388.054 626.358ZM447.222 680.398C447.355 680.747 447.548 681.068 447.794 681.348L417.694 710.595C417.318 710.274 416.873 710.044 416.393 709.924C415.914 709.804 415.413 709.797 414.929 709.904L408.436 689.72L447.222 680.398ZM418.103 711.018L448.08 681.89L392.34 759.502L414.452 715.97C414.996 716.187 415.591 716.249 416.169 716.149C416.747 716.049 417.287 715.792 417.728 715.404C418.342 714.86 418.723 714.101 418.793 713.285C418.862 712.468 418.615 711.656 418.103 711.018ZM448.091 676.843C448.048 676.882 448.009 676.921 447.968 676.962L389.371 625.302C389.648 624.92 389.838 624.482 389.927 624.019C390.015 623.555 390 623.078 389.883 622.622L415.585 613.332L448.466 676.568C448.334 676.65 448.209 676.742 448.091 676.843ZM389.684 622.07C389.558 621.798 389.394 621.546 389.196 621.32C388.833 620.901 388.363 620.587 387.837 620.41L397.322 581.627C397.885 581.707 398.459 581.635 398.986 581.418L415.312 612.804L389.684 622.07ZM400.882 577.694C400.759 577.202 400.521 576.747 400.188 576.364C400.023 576.176 399.836 576.009 399.63 575.866L404.558 564.601L434.259 571.085C434.247 571.281 434.254 571.477 434.28 571.67L400.882 577.694ZM435.652 568.619L417.264 541.93L417.325 541.884C417.961 541.324 418.349 540.536 418.405 539.691C418.461 538.846 418.179 538.014 417.623 537.378C417.533 537.277 417.436 537.182 417.334 537.093L460.827 477.529C461.002 477.654 461.189 477.762 461.385 477.851L437.805 568.089C437.049 568.002 436.285 568.191 435.655 568.621L435.652 568.619ZM465.851 475.22C465.892 474.787 465.843 474.351 465.709 473.938C465.574 473.525 465.356 473.144 465.068 472.819L465.043 472.805L491.806 448.464C492.231 448.834 492.747 449.084 493.301 449.188C493.855 449.292 494.427 449.247 494.958 449.057L510.922 483.566L465.851 475.22ZM495.499 448.824C495.677 448.721 495.845 448.601 496 448.466C496.134 448.347 496.256 448.217 496.367 448.078L562.506 492.422C562.393 492.63 562.303 492.85 562.239 493.078L511.63 483.7L495.499 448.824ZM563.194 491.541C563.06 491.659 562.937 491.789 562.825 491.928L496.675 447.578C497.027 446.929 497.144 446.179 497.008 445.455L543.137 432.093L563.969 491.049C563.689 491.176 563.428 491.341 563.194 491.541ZM496.847 444.891C496.712 444.546 496.52 444.228 496.278 443.949L496.114 443.78L526.667 391.224C527.328 391.531 528.074 391.603 528.782 391.429L542.942 431.535L496.847 444.891ZM531.029 387.303C530.883 386.867 530.643 386.468 530.328 386.135C530.012 385.801 529.628 385.54 529.201 385.37L535 365.951L577.23 375.31C577.175 375.615 577.164 375.926 577.197 376.234L531.029 387.303ZM580.498 372.709L573.509 311.417L620.45 308.631C620.547 309.213 620.804 309.756 621.191 310.201C621.34 310.369 621.506 310.522 621.686 310.656L581.89 373.093C581.462 372.859 580.985 372.728 580.498 372.709ZM621.494 305.698C621.39 305.789 621.292 305.888 621.201 305.993L570.933 269.111C571.026 268.957 571.106 268.796 571.172 268.628L628.845 285.149L624.1 304.945C623.638 304.87 623.164 304.899 622.713 305.029C622.263 305.159 621.846 305.388 621.494 305.698ZM643.638 225.951C644.159 226.024 644.69 225.968 645.184 225.787L678.934 296.829C678.2 297.121 677.601 297.677 677.255 298.388L629.565 284.727L643.638 225.951ZM680.67 296.652C680.281 296.58 679.883 296.579 679.494 296.65L645.72 225.55C646.306 225.208 646.764 224.683 647.025 224.057L688.274 237.236L680.67 296.652ZM647.194 223.49C647.307 222.968 647.289 222.427 647.142 221.914L689.926 205.177C690.008 205.303 690.099 205.425 690.197 205.54C690.706 206.123 691.411 206.499 692.179 206.596L688.341 236.634L647.194 223.49ZM689.576 204.459C689.598 204.526 689.623 204.588 689.651 204.652L646.932 221.376C646.811 221.133 646.66 220.906 646.483 220.7C646.021 220.171 645.397 219.81 644.707 219.675L645.687 210.431L689.576 204.459ZM644.124 219.619C643.35 219.609 642.599 219.881 642.01 220.385C641.422 220.889 641.038 221.59 640.929 222.357L579.861 219.404L645.09 210.521L644.124 219.619ZM575.811 222.621L570.297 253.854L556.72 259.627C556.603 259.419 556.463 259.224 556.303 259.048C556.122 258.842 555.915 258.661 555.687 258.509L575.372 222.48C575.515 222.538 575.662 222.585 575.811 222.621ZM556.96 260.172L570.182 254.55L568.472 264.28C568.046 264.245 567.618 264.297 567.212 264.431C566.806 264.565 566.431 264.78 566.109 265.062C565.837 265.302 565.608 265.587 565.433 265.905L556.946 262.147C557.157 261.506 557.161 260.816 556.96 260.172ZM568.257 270.654L572.852 310.872L553.861 311.994C553.772 311.391 553.511 310.826 553.109 310.367C552.835 310.057 552.504 309.803 552.135 309.618L567.312 270.532C567.619 270.618 567.937 270.659 568.257 270.654ZM548.31 314.578C548.637 314.953 549.049 315.244 549.511 315.427L534.607 365.266L482.315 353.677C482.39 353.092 482.302 352.498 482.06 351.96L548.099 314.304C548.164 314.399 548.234 314.491 548.31 314.578ZM477.187 355.79C477.464 356.008 477.775 356.177 478.108 356.292L464.203 412.605C463.869 412.547 463.529 412.544 463.194 412.595L455.005 379.25L477.187 355.79ZM462.624 412.737C461.859 413.003 461.224 413.551 460.848 414.269C460.472 414.987 460.383 415.821 460.6 416.602L399.987 438.285C399.901 438.103 399.797 437.929 399.677 437.767L454.52 379.756L462.624 412.737ZM397.376 442.807L404.112 479.858L369.484 483.097C369.381 482.533 369.127 482.008 368.75 481.578C368.645 481.46 368.531 481.349 368.41 481.247L395.521 442.404C396.084 442.724 396.731 442.864 397.376 442.807ZM363.765 485.554L319.084 524.78L314.444 509.916L363.639 485.362L363.765 485.554ZM318.503 524.889C317.919 524.432 317.193 524.194 316.452 524.216C315.71 524.237 314.999 524.517 314.44 525.007C314.078 525.324 313.793 525.72 313.607 526.163C313.42 526.606 313.336 527.086 313.361 527.567L266.473 534.298C266.439 534.171 266.398 534.046 266.351 533.923L313.91 510.18L318.503 524.889ZM262.533 538.152C263.058 538.293 263.61 538.3 264.139 538.17L290.654 614.712L237.032 613.306C236.99 612.606 236.716 611.94 236.254 611.413C235.974 611.092 235.633 610.831 235.25 610.644L262.533 538.152ZM239.373 613.956L290.857 615.304L291.966 618.534C291.685 618.667 291.426 618.84 291.195 619.048C290.692 619.49 290.341 620.08 290.192 620.733L239.373 613.956ZM354.509 657.616C354.905 657.255 355.204 656.8 355.378 656.294C355.552 655.787 355.596 655.245 355.506 654.717L375.539 688.243L354.509 657.616ZM383.651 697.262C383.86 696.744 383.931 696.181 383.857 695.628L407.862 689.859L414.369 710.089C414.061 710.22 413.776 710.398 413.523 710.617C413.276 710.835 413.064 711.09 412.894 711.373L383.651 697.262ZM454.555 806.912C454.401 806.879 454.246 806.857 454.09 806.844L451.812 724.782L485.115 704.014C485.153 704.06 485.185 704.109 485.225 704.152C485.584 704.563 486.043 704.873 486.558 705.054L454.555 806.912ZM451.042 676.167C450.362 675.981 449.64 676.025 448.987 676.292L416.143 613.128L478.338 590.637C478.465 590.908 478.628 591.159 478.823 591.385C479.123 591.728 479.494 592.001 479.911 592.185L451.042 676.167ZM478.182 588.347C478.158 588.424 478.137 588.501 478.118 588.581L400.962 578.58C400.965 578.477 400.966 578.376 400.959 578.27L434.391 572.246C434.584 572.843 434.949 573.37 435.44 573.76C435.931 574.15 436.526 574.386 437.151 574.438C437.776 574.491 438.403 574.357 438.953 574.055C439.503 573.752 439.952 573.294 440.244 572.738L478.182 588.347ZM439.634 568.942C439.278 568.606 438.849 568.358 438.381 568.218L461.941 478.043C462.666 478.217 463.429 478.13 464.097 477.796C464.765 477.463 465.294 476.904 465.592 476.22L512.267 491.755C512.154 492.238 512.155 492.741 512.269 493.224C512.384 493.706 512.61 494.155 512.929 494.534L439.634 568.942ZM517.768 490.372C517.347 489.892 516.791 489.55 516.173 489.39C515.555 489.23 514.902 489.26 514.301 489.475L511.934 484.357L561.491 493.537L518.547 492.276C518.505 491.572 518.231 490.903 517.768 490.372ZM565.465 490.761C565.149 490.745 564.833 490.776 564.526 490.852L543.722 431.925L572.638 423.538C572.824 424.016 573.123 424.443 573.51 424.78C573.897 425.116 574.361 425.354 574.86 425.472L565.465 490.761ZM575.632 419.189C574.843 419.178 574.076 419.46 573.483 419.982C573.375 420.08 573.273 420.184 573.178 420.294L530.765 389.95C531.126 389.328 531.268 388.604 531.169 387.892L577.33 376.819C577.495 377.377 577.811 377.878 578.243 378.268C578.674 378.657 579.205 378.92 579.776 379.028L575.632 419.189ZM626.704 307.391C626.587 306.872 626.341 306.39 625.991 305.989C625.636 305.582 625.181 305.273 624.672 305.092L629.412 285.31L677.022 298.945C676.938 299.255 676.901 299.576 676.911 299.898L626.704 307.391ZM718.435 244.535C718.28 244.631 718.133 244.738 717.996 244.858C717.675 245.138 717.414 245.479 717.227 245.861L688.912 236.818L692.771 206.619C693.236 206.593 693.69 206.465 694.1 206.244L718.435 244.535ZM689.542 202.538C689.414 202.974 689.38 203.433 689.441 203.883L645.745 209.838L648.217 186.607C649.007 186.621 649.774 186.338 650.366 185.814C650.631 185.582 650.855 185.307 651.029 185L689.542 202.538ZM645.561 185.107C645.651 185.253 645.752 185.391 645.862 185.522C646.324 186.051 646.949 186.412 647.638 186.548L645.153 209.92L579.758 218.826C579.722 218.674 579.675 218.524 579.617 218.379L645.561 185.107ZM554.016 264.333C554.567 264.318 555.104 264.159 555.575 263.872C556.046 263.585 556.434 263.18 556.7 262.697L565.186 266.457C564.938 267.186 564.963 267.98 565.256 268.692C565.549 269.404 566.089 269.985 566.777 270.328L551.589 309.408C551.463 309.371 551.335 309.342 551.206 309.322L554.016 264.333ZM547.54 312.73C547.565 313.098 547.656 313.458 547.809 313.794L481.775 351.453C481.708 351.357 481.636 351.264 481.559 351.176C481.017 350.557 480.255 350.172 479.434 350.103C478.613 350.034 477.797 350.287 477.157 350.808L440.391 313.152C440.805 312.663 441.063 312.061 441.132 311.424L547.54 312.73ZM438.435 314.243L454.359 379.08L400.153 436.421L437.332 314.219C437.696 314.292 438.069 314.3 438.435 314.243ZM363.164 483.566C363.149 483.999 363.221 484.43 363.375 484.834L314.272 509.336L303.83 475.893L363.164 483.566ZM303.305 476.227L313.731 509.616L266.085 533.393C265.994 533.243 265.89 533.101 265.776 532.967C265.66 532.835 265.532 532.713 265.394 532.604L303.305 476.227ZM302.441 476.457L264.905 532.278C264.334 531.967 263.681 531.84 263.034 531.912C262.387 531.985 261.777 532.254 261.288 532.684C260.784 533.126 260.432 533.716 260.282 534.368C260.131 535.021 260.19 535.705 260.449 536.322L216.001 528.742C216.045 528.196 215.946 527.649 215.714 527.153L302.441 476.457Z" fill="#E1B741"/>
</g>
<path d="M170.45 612.832C170.388 613.145 170.388 613.468 170.45 613.782C170.512 614.095 170.635 614.393 170.813 614.658C170.99 614.924 171.218 615.152 171.483 615.329C171.749 615.506 172.046 615.629 172.359 615.691C172.867 615.791 173.393 615.727 173.862 615.507C174.331 615.287 174.718 614.924 174.966 614.469L225.954 636.528C225.923 636.62 225.896 636.714 225.876 636.809C225.814 637.123 225.813 637.446 225.876 637.759C225.938 638.072 226.061 638.37 226.238 638.636C226.416 638.901 226.643 639.129 226.909 639.306C227.174 639.484 227.472 639.607 227.785 639.669C228.098 639.731 228.421 639.73 228.734 639.668C229.047 639.605 229.345 639.481 229.611 639.303C229.876 639.125 230.104 638.897 230.282 638.631C230.459 638.365 230.583 638.067 230.645 637.753C230.732 637.313 230.697 636.858 230.542 636.438C230.388 636.017 230.12 635.648 229.769 635.371L250.362 603.749C250.568 603.858 250.789 603.937 251.018 603.984C251.45 604.069 251.896 604.036 252.31 603.888C252.724 603.74 253.091 603.482 253.37 603.142L273.855 617.077C273.751 617.28 273.675 617.497 273.631 617.721C273.568 618.034 273.568 618.357 273.63 618.67C273.692 618.984 273.816 619.282 273.993 619.547C274.17 619.813 274.398 620.041 274.663 620.218C274.929 620.395 275.227 620.518 275.54 620.58C276.167 620.702 276.817 620.572 277.349 620.218C277.882 619.864 278.254 619.314 278.386 618.688L311.344 621.267C311.326 621.842 311.512 622.404 311.869 622.855C312.227 623.305 312.732 623.613 313.295 623.726C313.646 623.797 314.009 623.791 314.358 623.707L324.87 654.265C324.518 654.425 324.208 654.666 323.968 654.969C323.727 655.272 323.562 655.627 323.486 656.007C323.423 656.32 323.423 656.643 323.485 656.956C323.547 657.27 323.671 657.568 323.848 657.833C324.025 658.099 324.253 658.326 324.518 658.504C324.784 658.681 325.082 658.804 325.395 658.866C325.708 658.928 326.03 658.928 326.344 658.865C326.657 658.802 326.955 658.678 327.22 658.5C327.486 658.322 327.714 658.094 327.891 657.828C328.069 657.562 328.192 657.264 328.255 656.95C328.315 656.655 328.318 656.351 328.263 656.055L356.379 648.315C356.524 648.702 356.765 649.046 357.079 649.313C357.393 649.581 357.771 649.764 358.176 649.845C358.788 649.965 359.424 649.845 359.951 649.51L384.912 681.923C384.538 682.271 384.283 682.728 384.183 683.228C384.121 683.542 384.121 683.864 384.183 684.178C384.245 684.491 384.368 684.789 384.545 685.055C384.723 685.32 384.951 685.548 385.216 685.725C385.481 685.902 385.779 686.025 386.092 686.087C386.405 686.149 386.728 686.149 387.041 686.086C387.354 686.024 387.652 685.9 387.918 685.722C388.183 685.544 388.411 685.315 388.589 685.049C388.766 684.784 388.89 684.485 388.952 684.172C389.031 683.777 389.011 683.368 388.893 682.984C388.776 682.599 388.565 682.249 388.279 681.966L425.751 636.296C426.02 636.478 426.323 636.604 426.642 636.666C426.705 636.679 426.77 636.688 426.837 636.694L449.029 663.447C448.69 663.789 448.459 664.223 448.365 664.695C448.24 665.327 448.37 665.984 448.727 666.519C449.085 667.055 449.64 667.427 450.272 667.552C450.585 667.614 450.907 667.614 451.221 667.551C451.534 667.489 451.832 667.365 452.097 667.187C452.363 667.009 452.591 666.781 452.768 666.515C452.946 666.249 453.069 665.95 453.132 665.637C453.194 665.323 453.194 665.001 453.132 664.687C453.07 664.374 452.947 664.076 452.769 663.81C452.592 663.545 452.364 663.317 452.099 663.14C451.833 662.962 451.536 662.839 451.222 662.777C451.143 662.763 451.062 662.752 450.982 662.744L451.391 585.319L451.557 585.281L451.392 585.063L451.395 584.158L451.127 584.707L423.442 548.446C423.72 548.188 423.935 547.869 424.068 547.513C424.202 547.157 424.25 546.775 424.21 546.398C424.169 546.02 424.041 545.658 423.836 545.339C423.63 545.02 423.353 544.754 423.026 544.562L438.342 511.837C438.455 511.879 438.571 511.911 438.688 511.935C439.299 512.056 439.933 511.939 440.46 511.606C440.987 511.273 441.367 510.751 441.521 510.146C441.675 509.542 441.592 508.902 441.288 508.359C440.985 507.815 440.484 507.409 439.89 507.224L506.999 435.452C507.34 435.718 507.746 435.887 508.176 435.943C508.605 435.999 509.041 435.939 509.44 435.77C509.839 435.6 510.185 435.327 510.444 434.979C510.702 434.631 510.863 434.22 510.91 433.79C510.957 433.359 510.888 432.923 510.71 432.528C510.533 432.133 510.253 431.793 509.9 431.543C509.547 431.293 509.133 431.142 508.702 431.105C508.27 431.069 507.837 431.148 507.446 431.336L466.012 361.551C466.507 361.191 466.848 360.658 466.968 360.058C467.081 359.504 466.995 358.928 466.726 358.432L495.364 339.411C495.579 339.683 495.85 339.905 496.158 340.063C496.466 340.222 496.805 340.312 497.151 340.329C497.497 340.345 497.843 340.287 498.166 340.159C498.488 340.031 498.779 339.835 499.02 339.585C499.261 339.335 499.445 339.036 499.561 338.709C499.678 338.382 499.722 338.034 499.693 337.688C499.664 337.343 499.561 337.007 499.392 336.705C499.222 336.403 498.99 336.14 498.711 335.935L515 309.191C515.311 309.342 515.65 309.425 515.995 309.435C516.34 309.444 516.684 309.38 517.003 309.247C517.321 309.113 517.608 308.913 517.844 308.66C518.08 308.407 518.259 308.107 518.37 307.779C518.481 307.451 518.52 307.104 518.487 306.76C518.453 306.416 518.346 306.083 518.174 305.784C518.001 305.485 517.767 305.226 517.486 305.024C517.206 304.823 516.886 304.684 516.547 304.616C516.419 304.592 516.288 304.578 516.158 304.574L512.985 248.327C513.373 248.268 513.742 248.117 514.059 247.886C514.376 247.654 514.632 247.349 514.807 246.997C514.981 246.645 515.067 246.256 515.059 245.864C515.05 245.471 514.947 245.087 514.758 244.743C514.569 244.399 514.299 244.107 513.972 243.89C513.645 243.674 513.271 243.54 512.881 243.5C512.491 243.459 512.097 243.514 511.732 243.66C511.367 243.805 511.043 244.036 510.787 244.334L484.531 225.591C484.727 225.29 484.853 224.95 484.902 224.594C484.951 224.239 484.921 223.877 484.814 223.535C484.707 223.193 484.526 222.879 484.283 222.615C484.04 222.351 483.742 222.145 483.41 222.01C483.078 221.876 482.721 221.816 482.363 221.836C482.005 221.856 481.656 221.955 481.34 222.126C481.025 222.296 480.751 222.535 480.538 222.824C480.325 223.113 480.179 223.445 480.109 223.797L480.093 223.897L445.457 222.426C445.396 222.025 445.235 221.645 444.989 221.322C444.743 221 444.421 220.744 444.051 220.578C443.68 220.412 443.274 220.342 442.87 220.373C442.465 220.405 442.075 220.537 441.734 220.758C441.393 220.979 441.113 221.282 440.919 221.639C440.725 221.996 440.623 222.396 440.623 222.802C440.623 223.208 440.725 223.608 440.918 223.965C441.112 224.321 441.392 224.623 441.733 224.844L424.125 266.883L424.099 266.868C423.736 266.797 423.361 266.809 423.004 266.905C422.646 267 422.315 267.176 422.035 267.419C421.755 267.662 421.534 267.966 421.39 268.307C421.245 268.648 421.179 269.018 421.199 269.387C421.218 269.757 421.322 270.118 421.502 270.441C421.681 270.765 421.933 271.043 422.236 271.254C422.54 271.466 422.888 271.605 423.253 271.661C423.619 271.717 423.993 271.689 424.346 271.579L438.536 307.62C438.164 307.817 437.85 308.108 437.624 308.463C437.397 308.818 437.267 309.225 437.245 309.645C437.223 310.065 437.31 310.484 437.497 310.86C437.685 311.236 437.967 311.557 438.316 311.791L412.244 361.9C412.115 361.849 411.982 361.81 411.846 361.782C411.386 361.692 410.91 361.737 410.475 361.911C410.04 362.085 409.664 362.381 409.392 362.764C409.121 363.147 408.966 363.6 408.945 364.068C408.925 364.537 409.04 365.001 409.277 365.405L384.315 383.453C383.911 382.994 383.348 382.705 382.739 382.644C382.13 382.583 381.52 382.753 381.031 383.122C380.542 383.491 380.209 384.031 380.1 384.633C379.99 385.236 380.112 385.858 380.44 386.374L340.909 417.47C340.6 417.143 340.206 416.908 339.771 416.791C339.336 416.675 338.877 416.682 338.445 416.812C338.014 416.941 337.626 417.188 337.326 417.525C337.026 417.862 336.825 418.275 336.746 418.719C336.667 419.163 336.713 419.62 336.878 420.039C337.043 420.458 337.322 420.823 337.682 421.093C338.043 421.362 338.471 421.526 338.92 421.566C339.368 421.606 339.82 421.521 340.223 421.319L357.676 449.641C357.33 449.904 357.061 450.254 356.896 450.656C356.731 451.058 356.676 451.497 356.737 451.927C356.799 452.357 356.974 452.762 357.245 453.101C357.516 453.44 357.872 453.7 358.278 453.854L337.086 530.655L337.3 530.715C336.893 530.636 336.473 530.663 336.079 530.793C335.684 530.923 335.33 531.151 335.048 531.457L310.279 512.349C310.441 512.097 310.554 511.816 310.613 511.523C310.694 511.113 310.669 510.689 310.54 510.292C310.41 509.895 310.18 509.538 309.873 509.256C309.565 508.973 309.19 508.775 308.784 508.681C308.377 508.586 307.953 508.597 307.552 508.714C307.151 508.831 306.787 509.049 306.494 509.348C306.202 509.647 305.991 510.016 305.882 510.419C305.773 510.823 305.769 511.247 305.872 511.652C305.974 512.057 306.179 512.429 306.467 512.731L261.997 563.839C261.73 563.658 261.429 563.533 261.112 563.471C260.635 563.377 260.141 563.428 259.693 563.618C259.245 563.808 258.864 564.128 258.599 564.537L233.58 550.686C233.625 550.562 233.662 550.435 233.69 550.307C233.753 549.993 233.753 549.67 233.691 549.357C233.628 549.044 233.505 548.746 233.328 548.48C233.151 548.215 232.923 547.987 232.657 547.81C232.392 547.632 232.094 547.509 231.781 547.447C231.149 547.322 230.493 547.454 229.957 547.813C229.421 548.171 229.049 548.728 228.923 549.36C228.852 549.71 228.86 550.071 228.945 550.418C229.03 550.765 229.19 551.088 229.413 551.366L174.316 611.36C174.023 611.134 173.682 610.979 173.319 610.907C173.004 610.844 172.68 610.844 172.366 610.907C172.051 610.969 171.752 611.094 171.485 611.273C171.219 611.451 170.99 611.681 170.812 611.949C170.635 612.217 170.512 612.517 170.45 612.832ZM233.383 551.088L258.39 564.936C258.33 565.081 258.284 565.231 258.253 565.384C258.16 565.85 258.204 566.332 258.381 566.772L230.396 581.911L231.405 552.273C231.806 552.254 232.197 552.136 232.542 551.93C232.887 551.723 233.176 551.434 233.383 551.088ZM309.519 513.108L345.539 560.26C345.151 560.607 344.884 561.068 344.778 561.578C344.756 561.695 344.742 561.814 344.737 561.934L317.739 563.133L308.874 513.393C309.101 513.33 309.318 513.234 309.519 513.108ZM361.543 452.056C361.573 451.902 361.589 451.745 361.589 451.588L366.192 451.173L388.557 477.366L361.103 453.025C361.319 452.739 361.469 452.408 361.543 452.056ZM384.603 386.265L420.826 402.708C420.788 402.813 420.757 402.92 420.736 403.029C420.69 403.252 420.676 403.481 420.695 403.708L388.776 409.657L383.278 387.334C383.831 387.146 384.299 386.765 384.595 386.261L384.603 386.265ZM442.122 225.068C442.271 225.129 442.425 225.176 442.582 225.207C442.976 225.286 443.384 225.265 443.769 225.147C444.154 225.028 444.503 224.817 444.786 224.53L461.483 239.715L425.142 267.382C424.958 267.237 424.754 267.119 424.537 267.033L435.071 241.899L442.122 225.068ZM506.093 433.151C506.048 433.43 506.053 433.714 506.106 433.991L457.47 448.112L464.424 424.791C464.995 424.904 465.588 424.807 466.095 424.519C466.602 424.231 466.988 423.771 467.185 423.222L506.093 433.151ZM314.709 619.077L340.824 619.48L316.17 620.873C316.095 620.476 315.922 620.103 315.667 619.79C315.412 619.476 315.083 619.231 314.709 619.077ZM276.501 615.793C276.184 615.729 275.858 615.729 275.542 615.795L270.208 597.774L319.364 587.176C319.413 587.34 319.482 587.498 319.57 587.646L277.939 616.673C277.58 616.217 277.07 615.905 276.501 615.793ZM251.887 599.175C251.269 599.08 250.637 599.226 250.124 599.584C249.61 599.942 249.254 600.484 249.129 601.097C249.041 601.536 249.076 601.991 249.231 602.411C249.385 602.831 249.652 603.2 250.002 603.478L229.688 634.678L259.699 568.257L251.887 599.175ZM253.83 600.846C253.719 600.485 253.525 600.155 253.264 599.883C253.003 599.61 252.682 599.402 252.327 599.275L260.166 568.238C260.444 568.292 260.73 568.297 261.01 568.252L269.647 597.429L253.83 600.846ZM261.444 568.151C261.749 568.042 262.03 567.874 262.27 567.656C262.51 567.438 262.704 567.174 262.84 566.88L319.322 585.887C319.313 585.914 319.306 585.942 319.302 585.97C319.251 586.221 319.241 586.479 319.272 586.733L270.084 597.34L261.444 568.151ZM339.181 533.716L363.858 535.686C363.862 536.024 363.937 536.358 364.077 536.665C364.217 536.973 364.419 537.248 364.672 537.473L354.047 551.914L338.507 534.859C338.834 534.549 339.068 534.153 339.181 533.716ZM513.685 306.53C513.621 306.85 513.622 307.18 513.689 307.499C513.755 307.819 513.884 308.122 514.07 308.39L495.759 323.752L488.718 266.083C488.928 266.037 489.132 265.963 489.322 265.863L514.571 305.092C514.114 305.45 513.8 305.96 513.685 306.53ZM488.11 328.476C488.033 328.461 487.955 328.45 487.877 328.443L488.393 267.157L495.348 324.098L489.343 329.135C489.006 328.799 488.577 328.57 488.11 328.476ZM487.725 266.09C487.802 266.102 487.879 266.115 487.956 266.121L487.429 328.441C486.918 328.483 486.433 328.685 486.043 329.019L453.15 297.233L486.593 265.535C486.915 265.816 487.305 266.008 487.725 266.09ZM441.795 310.953L485.327 330.095C485.293 330.194 485.265 330.295 485.243 330.398C485.161 330.809 485.187 331.234 485.317 331.632L456.996 343.931L440.927 311.844C441.287 311.629 441.585 311.324 441.792 310.959L441.795 310.953ZM456.79 344.518L463.31 357.525C463.027 357.699 462.783 357.93 462.593 358.204C462.404 358.477 462.272 358.786 462.208 359.113C462.181 359.261 462.166 359.411 462.163 359.561L413.747 363.586C413.72 363.483 413.688 363.381 413.65 363.281L456.79 344.518ZM413.751 364.649C413.79 364.449 413.805 364.245 413.793 364.041L462.19 360.006C462.267 360.445 462.462 360.854 462.755 361.189L435.545 390.02L413.261 365.698C413.507 365.392 413.674 365.03 413.747 364.644L413.751 364.649ZM435.543 390.693L463.108 420.777C462.99 420.909 462.886 421.052 462.797 421.206L425.415 404.293C425.451 404.189 425.481 404.083 425.503 403.975C425.576 403.609 425.564 403.232 425.468 402.872C425.372 402.511 425.194 402.178 424.949 401.898L435.543 390.693ZM412.162 593.815C411.627 593.761 411.089 593.885 410.632 594.169L391.176 568.332L419.938 548.233C420.244 548.595 420.648 548.859 421.102 548.993L412.162 593.815ZM327.275 654.473L338.032 635.671L356.455 646.427C356.372 646.602 356.31 646.787 356.271 646.977C356.212 647.273 356.209 647.578 356.261 647.875L328.153 655.602C327.98 655.146 327.674 654.753 327.275 654.473ZM356.678 646.042L338.258 635.281L346.118 621.545C346.287 621.626 346.465 621.684 346.649 621.719C347.044 621.798 347.452 621.777 347.837 621.66L357.532 645.291C357.192 645.471 356.899 645.728 356.678 646.042ZM316.025 622.29C316.093 622.134 316.144 621.971 316.176 621.804C316.209 621.642 316.225 621.477 316.222 621.311L344.722 619.703C344.77 620.03 344.884 620.343 345.056 620.624C345.229 620.904 345.457 621.147 345.726 621.337L337.866 635.072L316.025 622.29ZM324.071 586.921C324.109 586.717 324.123 586.509 324.113 586.302L346.94 582.789L346.901 616.92C346.517 616.956 346.146 617.083 345.821 617.291L323.344 588.223C323.716 587.875 323.969 587.419 324.068 586.919L324.071 586.921ZM349.295 563.279L375.057 577.228C375.038 577.29 375.022 577.352 375.009 577.415C374.971 577.618 374.958 577.825 374.969 578.031L347.395 582.268L347.416 564.468C347.799 564.43 348.168 564.301 348.492 564.093C348.815 563.885 349.086 563.603 349.279 563.27L349.295 563.279ZM422.659 405.9C422.838 405.935 423.021 405.949 423.203 405.943L426.852 436.219L399.621 446.248C399.458 446.101 399.275 445.978 399.078 445.882L422.11 405.716C422.281 405.794 422.46 405.853 422.644 405.891L422.659 405.9ZM427.307 455.563L421.188 453.72L400.363 447.453C400.284 447.149 400.146 446.863 399.958 446.611L426.895 436.672L428.996 454.103C428.618 454.192 428.266 454.371 427.971 454.624C427.676 454.878 427.446 455.198 427.299 455.558L427.307 455.563ZM423.63 405.877C423.965 405.804 424.281 405.661 424.557 405.457C424.834 405.253 425.064 404.993 425.232 404.694L454.711 418.031L462.6 421.608C462.563 421.713 462.533 421.82 462.51 421.929C462.439 422.293 462.451 422.669 462.545 423.028L427.256 436.048L423.63 405.877ZM400.384 448.534C400.424 448.338 400.438 448.138 400.426 447.939L427.163 455.996C427.059 456.506 427.122 457.035 427.343 457.506L411.564 467.048L400.012 449.433C400.197 449.162 400.324 448.857 400.387 448.535L400.384 448.534ZM411.422 467.652L437.646 507.647C437.488 507.774 437.347 507.92 437.226 508.083L396.906 483.1L393.03 480.7C393.171 480.395 393.247 480.064 393.254 479.728C393.261 479.392 393.198 479.058 393.069 478.748L411.422 467.652ZM419.378 546.409C419.325 546.914 419.431 547.423 419.681 547.864L390.907 567.976L367.932 537.44C368.259 537.141 368.5 536.758 368.626 536.333L419.378 546.409ZM426.024 632.1C425.916 632.148 425.814 632.206 425.717 632.273L398.36 601.288L409.702 597.262C409.864 597.608 410.105 597.911 410.407 598.146C410.708 598.381 411.061 598.542 411.436 598.615C411.823 598.693 412.224 598.675 412.603 598.561L416.77 608.962L426.024 632.1ZM377.85 575.496C377.563 575.438 377.268 575.435 376.979 575.485L367.118 537.943C367.273 537.887 367.421 537.815 367.561 537.729L390.539 568.231L379.141 576.199C378.795 575.836 378.343 575.59 377.85 575.496ZM375.768 579.709L348.369 617.258C348.13 617.115 347.869 617.015 347.597 616.96C347.515 616.943 347.431 616.931 347.347 616.925L347.388 582.725L375.021 578.469C375.14 578.947 375.401 579.376 375.769 579.702L375.768 579.709ZM349.325 618.323C349.186 618.018 348.984 617.746 348.734 617.525L376.131 579.967C376.369 580.11 376.63 580.21 376.902 580.265C377.233 580.33 377.573 580.326 377.901 580.252C378.23 580.179 378.54 580.038 378.811 579.839L397.585 601.104L349.325 618.323ZM379.137 579.535C379.23 579.436 379.315 579.33 379.391 579.218L397.718 588.955L409.668 595.303C409.604 595.452 409.557 595.607 409.527 595.766C409.456 596.121 409.466 596.488 409.557 596.838L398.045 600.941L379.137 579.535ZM409.867 594.898L379.609 578.809C379.673 578.66 379.721 578.504 379.752 578.344C379.875 577.722 379.752 577.077 379.408 576.546L390.809 568.591L410.275 594.441C410.123 594.577 409.989 594.733 409.878 594.904L409.867 594.898ZM368.492 534.629C368.278 534.165 367.923 533.78 367.478 533.53L376.229 513.742L390.255 482.05L390.358 482.078C390.842 482.172 391.343 482.118 391.796 481.92L409.297 520.007L368.492 534.629ZM365.817 538.046C366.103 538.101 366.396 538.105 366.684 538.058L376.427 575.64C376.242 575.716 376.067 575.814 375.906 575.934L354.341 552.238L365.037 537.74C365.277 537.885 365.54 537.988 365.814 538.045L365.817 538.046ZM349.542 619.562C349.568 619.286 349.545 619.007 349.474 618.739L397.899 601.478L425.375 632.586C425.109 632.865 424.914 633.204 424.804 633.574L349.542 619.562ZM419.467 545.969L368.708 535.906C368.74 535.617 368.72 535.325 368.649 535.043L409.487 520.419L420.581 544.556C420.043 544.868 419.645 545.373 419.467 545.969ZM409.732 519.861L392.198 481.71C392.441 481.546 392.653 481.34 392.823 481.101L436.998 508.471C436.734 508.992 436.67 509.592 436.818 510.156L409.732 519.861ZM438.034 507.407L411.819 467.427L427.585 457.888C427.943 458.391 428.479 458.737 429.084 458.859C429.298 458.895 429.517 458.903 429.733 458.882L438.512 507.205C438.343 507.253 438.18 507.319 438.026 507.403L438.034 507.407ZM430.028 454.077C429.833 454.04 429.635 454.027 429.437 454.037L427.323 436.508L462.715 423.456C462.794 423.623 462.891 423.781 463.005 423.926L431.113 454.597C430.801 454.335 430.428 454.156 430.028 454.077ZM399.713 449.794L411.178 467.279L392.861 478.35C392.593 477.939 392.206 477.619 391.753 477.433L397.633 450.462C398.007 450.521 398.39 450.491 398.752 450.375C399.113 450.259 399.442 450.06 399.713 449.794ZM354.069 552.629L375.586 576.24C375.433 576.407 375.304 576.594 375.205 576.797L349.478 562.865C349.52 562.751 349.553 562.634 349.579 562.515C349.67 562.054 349.626 561.578 349.452 561.142C349.279 560.707 348.983 560.331 348.601 560.06L354.069 552.629ZM346.705 564.437C346.79 564.454 346.871 564.466 346.953 564.475L346.934 582.343L324.034 585.866C323.953 585.529 323.799 585.213 323.583 584.942L345.592 563.879C345.911 564.155 346.297 564.344 346.711 564.426L346.705 564.437ZM278.182 617.049L319.82 588.026C320.174 588.447 320.661 588.736 321.2 588.844C321.814 588.965 322.451 588.845 322.979 588.508L345.462 617.565C345.09 617.913 344.836 618.368 344.735 618.867C344.723 618.937 344.713 619.009 344.705 619.078L278.454 618.078C278.441 617.718 278.348 617.367 278.182 617.049ZM315.808 622.685L337.647 635.445L326.884 654.251C326.714 654.173 326.536 654.115 326.353 654.078C326.002 654.005 325.639 654.012 325.29 654.097L314.794 623.547C315.205 623.359 315.556 623.061 315.808 622.685ZM359.13 645.068C358.735 644.99 358.326 645.011 357.941 645.13L348.398 621.843L363.4 646.318L361 646.781C360.877 646.35 360.636 645.963 360.306 645.661C359.976 645.359 359.569 645.154 359.13 645.068ZM348.576 621.285C349.002 620.965 349.311 620.514 349.457 620.002L424.589 633.984L424.694 634.111C424.684 634.246 424.684 634.382 424.695 634.516L363.86 646.225L348.576 621.285ZM426.453 631.94L413.016 598.399C413.342 598.232 413.625 597.993 413.846 597.701C414.067 597.408 414.22 597.07 414.292 596.711C414.403 596.156 414.316 595.579 414.048 595.081C413.78 594.583 413.347 594.195 412.823 593.983L424.286 591.412L426.745 631.877C426.647 631.892 426.549 631.913 426.453 631.94ZM412.67 593.554L421.55 549.069C421.609 549.075 421.668 549.077 421.727 549.077L424.261 590.951L412.67 593.554ZM422.268 544.276C421.841 544.191 421.398 544.224 420.987 544.369L409.91 520.27L436.957 510.584C437.165 511.032 437.505 511.406 437.931 511.656L422.615 544.381C422.502 544.337 422.387 544.301 422.27 544.273L422.268 544.276ZM430.164 458.811C430.762 458.656 431.278 458.279 431.609 457.756C431.94 457.234 432.06 456.606 431.945 455.999L456.813 448.769L439.416 507.127C439.262 507.112 439.106 507.111 438.951 507.125L430.164 458.811ZM431.819 455.567C431.726 455.328 431.596 455.104 431.433 454.905L463.316 424.25C463.52 424.426 463.752 424.566 464.002 424.667L456.96 448.278L431.819 455.567ZM463.441 420.474L435.843 390.35L463.076 361.497C463.375 361.733 463.725 361.894 464.098 361.968C464.187 361.984 464.275 361.996 464.364 362.006L464.673 419.987C464.225 420.031 463.798 420.199 463.441 420.474ZM465.062 357.201C464.607 357.109 464.135 357.151 463.704 357.323L457.205 344.347L485.511 332.043C485.629 332.255 485.777 332.449 485.95 332.619L465.913 357.548C465.655 357.378 465.366 357.26 465.062 357.201ZM490.026 331.342C490.09 331.023 490.089 330.693 490.023 330.374C489.957 330.055 489.828 329.752 489.643 329.484L495.425 324.634L496.754 335.515C496.247 335.626 495.789 335.896 495.446 336.285L489.721 332.108C489.863 331.87 489.963 331.609 490.015 331.336L490.026 331.342ZM497.746 335.504C497.566 335.469 497.383 335.454 497.2 335.46L495.834 324.29L514.366 308.74C514.448 308.819 514.536 308.893 514.628 308.961L498.338 335.706C498.147 335.61 497.944 335.541 497.735 335.498L497.746 335.504ZM489.706 265.624C490.17 265.258 490.486 264.737 490.594 264.156C490.703 263.576 490.597 262.976 490.296 262.468L495.946 258.351L514.938 304.833L489.706 265.624ZM490.032 262.105C489.682 261.702 489.207 261.428 488.683 261.326C488.48 261.288 488.273 261.275 488.067 261.287L482.819 226.69L482.976 226.668L495.76 257.944L490.032 262.105ZM482.027 226.665C482.137 226.684 482.248 226.695 482.359 226.698L487.604 261.353C487.212 261.452 486.85 261.646 486.552 261.919L462.167 239.758L480.542 225.769C480.908 226.236 481.433 226.553 482.017 226.659L482.027 226.665ZM486.269 262.251C486.049 262.543 485.897 262.881 485.825 263.239C485.795 263.385 485.78 263.534 485.779 263.683L425.923 268.483C425.826 268.196 425.675 267.929 425.48 267.697L461.838 240.018L486.269 262.251ZM425.991 269.745C426.043 269.476 426.051 269.2 426.013 268.929L485.805 264.124C485.872 264.521 486.037 264.894 486.286 265.21L452.833 296.927L425.616 270.643C425.8 270.372 425.927 270.066 425.991 269.745ZM452.832 297.541L485.736 329.344C485.65 329.451 485.573 329.565 485.507 329.686L441.974 310.547C442.007 310.447 442.035 310.346 442.058 310.244C442.127 309.893 442.119 309.53 442.033 309.183C441.947 308.835 441.785 308.511 441.559 308.234L452.832 297.541ZM439.195 312.158C439.637 312.246 440.095 312.209 440.517 312.05L456.577 344.121L413.427 362.878C413.229 362.56 412.961 362.293 412.642 362.098L438.706 312.002C438.863 312.072 439.028 312.124 439.197 312.155L439.195 312.158ZM412.937 366.021L435.227 390.346L424.621 401.586C424.32 401.351 423.969 401.189 423.596 401.113C423.282 401.05 422.959 401.052 422.646 401.117L412.34 366.393C412.557 366.298 412.758 366.172 412.939 366.019L412.937 366.021ZM420.78 404.168C420.93 404.706 421.261 405.175 421.717 405.497L398.653 445.724C398.596 445.709 398.539 445.69 398.479 445.68C398.203 445.624 397.918 445.618 397.64 445.663L388.886 410.11L420.78 404.168ZM397.212 445.76C396.683 445.945 396.234 446.306 395.941 446.783L341.415 420.001C341.464 419.874 341.502 419.743 341.529 419.61C341.576 419.387 341.59 419.158 341.57 418.931L388.445 410.193L397.212 445.76ZM341.209 420.42L395.736 447.199C395.685 447.326 395.645 447.457 395.618 447.591C395.589 447.745 395.574 447.901 395.573 448.058L366.374 450.699L340.879 420.844C341.005 420.716 341.115 420.573 341.209 420.42ZM395.613 448.506C395.691 448.929 395.879 449.323 396.159 449.649C396.44 449.975 396.801 450.221 397.207 450.361L391.334 477.307L391.313 477.295C390.99 477.232 390.657 477.235 390.335 477.304C390.012 477.374 389.707 477.508 389.438 477.699L366.736 451.112L395.613 448.506ZM389.825 481.907L367.066 533.349C366.967 533.315 366.866 533.288 366.764 533.266C366.451 533.204 366.128 533.204 365.815 533.267C365.502 533.329 365.204 533.453 364.939 533.631C364.673 533.809 364.445 534.038 364.267 534.303C364.09 534.569 363.966 534.868 363.904 535.181C363.9 535.2 363.897 535.22 363.895 535.239L339.255 533.271C339.297 532.692 339.131 532.117 338.787 531.651L389.399 481.661C389.532 481.757 389.675 481.84 389.825 481.907ZM338.158 535.135L353.766 552.279L348.206 559.832C348.034 559.749 347.852 559.689 347.664 559.653C347.286 559.575 346.895 559.591 346.523 559.697L337.764 535.344C337.901 535.286 338.033 535.217 338.158 535.135ZM344.777 562.375C344.836 562.806 345.011 563.214 345.281 563.555L323.279 584.611C322.96 584.333 322.574 584.143 322.159 584.06C321.936 584.015 321.708 584.001 321.481 584.02L317.83 563.558L344.777 562.375ZM321.036 584.104C320.69 584.2 320.369 584.372 320.096 584.607C319.824 584.843 319.607 585.135 319.461 585.465L262.989 566.46C263.01 566.423 263.013 566.375 263.019 566.333C263.041 566.217 263.055 566.099 263.061 565.981L317.374 563.583L321.036 584.104ZM258.601 567.177C258.795 567.482 259.057 567.74 259.365 567.931L229.078 634.969C228.979 634.935 228.877 634.908 228.774 634.888C228.718 634.876 228.662 634.869 228.603 634.863L230.381 582.423L258.601 567.177ZM228.132 634.833C227.721 634.858 227.323 634.986 226.974 635.207C226.626 635.428 226.34 635.733 226.141 636.095L175.156 614.038C175.184 613.945 175.211 613.851 175.231 613.755C175.327 613.274 175.275 612.777 175.084 612.327L229.919 582.676L228.132 634.833ZM253.898 602.052C253.948 601.8 253.958 601.542 253.926 601.287L269.771 597.869L275.125 615.934C274.732 616.095 274.387 616.357 274.126 616.693L253.65 602.762C253.768 602.539 253.852 602.3 253.898 602.052ZM312.95 619.05C312.567 619.191 312.225 619.428 311.957 619.736C311.688 620.045 311.502 620.416 311.415 620.816L283.156 618.603L312.95 619.05ZM361.043 647.933C361.089 647.699 361.101 647.46 361.078 647.223L363.643 646.729L384.165 680.216L360.316 649.229C360.687 648.883 360.942 648.43 361.043 647.933ZM387.927 681.682C387.657 681.494 387.351 681.363 387.027 681.296C386.503 681.192 385.958 681.266 385.479 681.506L364.113 646.631L424.782 634.956C424.894 635.357 425.107 635.722 425.401 636.016L387.927 681.682ZM450.537 662.744C450.12 662.78 449.72 662.925 449.376 663.163L427.419 636.693C427.929 636.63 428.406 636.406 428.781 636.055C429.157 635.704 429.412 635.242 429.51 634.737C429.607 634.248 429.551 633.741 429.351 633.285C429.151 632.829 428.816 632.445 428.39 632.187L450.948 586.104L450.537 662.744ZM450.774 585.465L427.979 632.006C427.854 631.956 427.725 631.918 427.593 631.891C427.461 631.867 427.328 631.852 427.194 631.847L424.727 591.315L450.774 585.465ZM450.79 585L424.714 590.858L422.162 549.071C422.488 549.02 422.801 548.902 423.08 548.726L450.79 585ZM440.129 506.312L457.325 448.629L506.217 434.418C506.323 434.683 506.474 434.928 506.662 435.142L440.129 506.312ZM507.06 431.566C506.665 431.854 506.366 432.255 506.204 432.716L467.306 422.789C467.404 422.17 467.26 421.538 466.904 421.023C466.547 420.509 466.006 420.152 465.393 420.027C465.306 420.007 465.217 419.994 465.127 419.989L464.82 362.005C465.102 361.976 465.376 361.896 465.63 361.77L507.06 431.566ZM466.471 358.053C466.408 357.976 466.34 357.902 466.268 357.834L486.28 332.891C486.544 333.064 486.838 333.186 487.148 333.248C487.565 333.33 487.998 333.302 488.401 333.165C488.805 333.028 489.165 332.787 489.447 332.467L495.17 336.642C495.026 336.879 494.925 337.139 494.87 337.411C494.758 337.965 494.844 338.541 495.113 339.038L466.471 358.053ZM515.707 304.601C515.59 304.62 515.474 304.646 515.36 304.679L496.31 258.09L510.818 247.543C511.169 247.946 511.645 248.221 512.17 248.323C512.298 248.348 512.427 248.361 512.557 248.364L515.707 304.601ZM510.525 244.703C510.388 244.935 510.292 245.188 510.24 245.452C510.123 246.041 510.227 246.652 510.533 247.168L496.126 257.657L483.395 226.531C483.714 226.404 484.002 226.211 484.241 225.965L510.525 244.703ZM480.062 224.353C480.072 224.708 480.161 225.057 480.321 225.374L461.85 239.438L445.059 224.174C445.241 223.906 445.368 223.604 445.431 223.286C445.456 223.149 445.47 223.01 445.474 222.871L480.062 224.353ZM424.744 271.425C424.962 271.309 425.161 271.159 425.333 270.982L452.508 297.235L441.256 307.915C440.944 307.651 440.57 307.47 440.169 307.389C439.768 307.308 439.353 307.33 438.963 307.452L424.744 271.425ZM409.534 365.768C409.888 366.172 410.365 366.448 410.892 366.552C411.231 366.62 411.58 366.613 411.917 366.532L422.217 401.241C421.706 401.448 421.28 401.821 421.009 402.301L384.778 385.853C384.816 385.748 384.846 385.641 384.868 385.533C384.986 384.945 384.882 384.335 384.576 383.821L409.534 365.768ZM380.721 386.733C380.99 387.017 381.323 387.232 381.693 387.359C382.063 387.486 382.458 387.522 382.845 387.464L388.335 409.757L341.47 418.497C341.405 418.265 341.306 418.044 341.175 417.842L380.721 386.733ZM340.859 421.518L365.825 450.751L361.54 451.138C361.472 450.767 361.319 450.418 361.093 450.117C360.867 449.817 360.574 449.573 360.238 449.405C359.901 449.237 359.53 449.149 359.154 449.149C358.778 449.149 358.406 449.236 358.069 449.404L340.859 421.518ZM358.723 453.97C359.095 454.036 359.477 454.014 359.84 453.906C360.202 453.798 360.535 453.607 360.811 453.349L388.863 478.245C388.651 478.531 388.506 478.86 388.437 479.208C388.361 479.589 388.377 479.982 388.484 480.355C388.591 480.728 388.786 481.07 389.052 481.352L338.465 531.304C338.194 531.049 337.867 530.86 337.511 530.752L358.723 453.97ZM334.79 531.807C334.629 532.058 334.516 532.338 334.458 532.631C334.396 532.944 334.396 533.267 334.458 533.58C334.52 533.894 334.643 534.192 334.821 534.457C334.998 534.723 335.226 534.95 335.491 535.128C335.757 535.305 336.054 535.428 336.368 535.49C336.691 535.554 337.024 535.551 337.347 535.483L346.114 559.871C346.043 559.908 345.973 559.945 345.907 559.987L309.889 512.837C309.935 512.793 309.977 512.751 310.018 512.704L334.79 531.807ZM306.806 513.025C307.088 513.229 307.411 513.37 307.753 513.438C307.976 513.483 308.204 513.496 308.431 513.478L317.291 563.138L263.056 565.535C262.984 565.002 262.738 564.508 262.355 564.13L306.806 513.025ZM229.723 551.685C230.038 551.953 230.415 552.135 230.82 552.216L230.955 552.238L229.934 582.165L174.856 611.95C174.791 611.85 174.717 611.756 174.637 611.668L229.723 551.685Z" fill="#E1B741"/>
</g>
<defs>
<filter id="filter0_f" x="-0.00012207" y="3.05176e-05" width="900" height="900" filterUnits="userSpaceOnUse" color-interpolation-filters="sRGB">
<feFlood flood-opacity="0" result="BackgroundImageFix"/>
<feBlend mode="normal" in="SourceGraphic" in2="BackgroundImageFix" result="shape"/>
<feGaussianBlur stdDeviation="125" result="effect1_foregroundBlur"/>
</filter>
<clipPath id="clip0">
<rect width="369" height="675" fill="white" transform="translate(459.563 817.067) rotate(-150)"/>
</clipPath>
</defs>
</svg>
