<svg width="50" height="50" viewBox="0 0 50 50" fill="none" xmlns="http://www.w3.org/2000/svg">
<rect width="50" height="50" rx="25" fill="url(#paint0_linear)"/>
<g clip-path="url(#clip0)">
<path d="M29.3385 28.5149C31.2404 28.5149 32.7877 26.9378 32.7877 24.9993V19.3743C32.7877 17.4358 31.2404 15.8586 29.3385 15.8586C27.4365 15.8586 25.8892 17.4358 25.8892 19.3743V24.9993C25.8892 26.9378 27.4365 28.5149 29.3385 28.5149Z" fill="#FAFAFA"/>
<path d="M34.8575 21.4836C34.4765 21.4836 34.1676 21.7985 34.1676 22.1868V24.9993C34.1676 27.7132 32.0013 29.9211 29.3386 29.9211C26.6759 29.9211 24.5096 27.7132 24.5096 24.9993V22.1868C24.5096 21.7985 24.2007 21.4836 23.8197 21.4836C23.4388 21.4836 23.1299 21.7985 23.1299 22.1868V24.9993C23.1299 28.2509 25.5487 30.9372 28.6488 31.2881V34.1399H26.5792C26.1982 34.1399 25.8893 34.4547 25.8893 34.843C25.8893 35.2313 26.1982 35.5461 26.5792 35.5461H32.098C32.479 35.5461 32.7879 35.2313 32.7879 34.843C32.7879 34.4547 32.479 34.1399 32.098 34.1399H30.0285V31.2881C33.1285 30.9372 35.5473 28.2509 35.5473 24.9993V22.1868C35.5473 21.7984 35.2385 21.4836 34.8575 21.4836Z" fill="#FAFAFA"/>
<path d="M24.5094 19.3743C24.5094 18.986 24.2006 18.6712 23.8196 18.6712H22.8202L21.6312 16.2474C21.3657 15.7062 20.5944 15.7382 20.3737 16.3007L18.3137 21.5497L16.1497 14.9332C15.9409 14.2946 15.0501 14.2932 14.8408 14.9332L13.6183 18.6711H12.6899C12.3089 18.6711 12 18.9859 12 19.3743C12 19.7626 12.3089 20.0774 12.6899 20.0774H14.1156C14.4125 20.0774 14.6761 19.8837 14.77 19.5966L15.4953 17.379L17.6003 23.8154C17.6918 24.0953 17.9451 24.2872 18.2345 24.2958C18.52 24.3045 18.7864 24.1316 18.8952 23.8541L21.0841 18.2767L21.7769 19.6887C21.8937 19.927 22.1326 20.0774 22.3939 20.0774H23.8196C24.2006 20.0774 24.5094 19.7626 24.5094 19.3743Z" fill="#FAFAFA"/>
</g>
<defs>
<linearGradient id="paint0_linear" x1="1.86265e-07" y1="50" x2="52.2774" y2="47.4932" gradientUnits="userSpaceOnUse">
<stop stop-color="#0CB5AD"/>
<stop offset="1" stop-color="#0C7DB5"/>
</linearGradient>
<clipPath id="clip0">
<rect width="23.5472" height="24" fill="white" transform="translate(12 13)"/>
</clipPath>
</defs>
</svg>
